<svg aria-hidden="true" style="width:0;height:0;position:absolute;overflow:hidden" xmlns="http://www.w3.org/2000/svg"><defs><symbol id="icon-appstore" viewBox="0 0 123 32"><path fill="#fff" style="fill:var(--color1,#fff)" d="M18.212 14.601a6.089 6.089 0 0 1 2.9-5.11A6.244 6.244 0 0 0 16.2 6.835c-2.067-.217-4.07 1.237-5.124 1.237-1.074 0-2.695-1.215-4.441-1.179A6.536 6.536 0 0 0 1.13 10.25c-2.38 4.121-.605 10.178 1.675 13.509 1.141 1.631 2.474 3.453 4.219 3.389 1.707-.071 2.345-1.089 4.405-1.089 2.042 0 2.64 1.089 4.42 1.047 1.832-.03 2.986-1.639 4.087-3.285a13.497 13.497 0 0 0 1.869-3.806 5.885 5.885 0 0 1-3.593-5.414zM14.849 4.645A5.997 5.997 0 0 0 16.221.349a6.1 6.1 0 0 0-3.948 2.043 5.718 5.718 0 0 0-1.408 4.137 5.046 5.046 0 0 0 3.983-1.884zM39.791 23.019h-5.826l-1.399 4.131h-2.468l5.518-15.284h2.564l5.518 15.284h-2.51l-1.398-4.131zm-5.222-1.907h4.618l-2.276-6.704h-.064l-2.278 6.704zM55.614 21.579c0 3.463-1.853 5.688-4.65 5.688a3.777 3.777 0 0 1-3.506-1.95h-.053v5.519h-2.287V16.007h2.214v1.853h.042a3.954 3.954 0 0 1 3.548-1.97c2.828 0 4.692 2.236 4.692 5.689zm-2.351 0c0-2.256-1.166-3.739-2.945-3.739-1.748 0-2.923 1.514-2.923 3.739 0 2.245 1.175 3.749 2.923 3.749 1.779 0 2.945-1.472 2.945-3.749zM67.879 21.579c0 3.463-1.853 5.688-4.65 5.688a3.775 3.775 0 0 1-3.506-1.95h-.053v5.519h-2.287V16.007h2.214v1.853h.042a3.954 3.954 0 0 1 3.548-1.97c2.828 0 4.692 2.236 4.692 5.689zm-2.351 0c0-2.256-1.166-3.739-2.945-3.739-1.748 0-2.923 1.514-2.923 3.739 0 2.245 1.175 3.749 2.923 3.749 1.779 0 2.945-1.472 2.945-3.749zM75.986 22.891c.169 1.516 1.642 2.511 3.654 2.511 1.928 0 3.315-.995 3.315-2.362 0-1.186-.837-1.897-2.817-2.383l-1.981-.477c-2.807-.678-4.109-1.99-4.109-4.12 0-2.637 2.298-4.448 5.561-4.448 3.23 0 5.443 1.811 5.518 4.448h-2.309c-.138-1.525-1.399-2.446-3.242-2.446s-3.103.932-3.103 2.287c0 1.081.805 1.716 2.775 2.203l1.684.414c3.136.742 4.439 2.001 4.439 4.237 0 2.859-2.278 4.65-5.9 4.65-3.389 0-5.678-1.749-5.826-4.513h2.341zM90.308 13.37v2.637h2.119v1.811h-2.119v6.143c0 .954.424 1.399 1.356 1.399.251-.004.503-.022.752-.053v1.8a6.29 6.29 0 0 1-1.27.106c-2.256 0-3.136-.847-3.136-3.008v-6.387h-1.62v-1.811h1.62V13.37h2.298zM93.654 21.579c0-3.506 2.065-5.709 5.285-5.709 3.231 0 5.286 2.203 5.286 5.709 0 3.516-2.044 5.709-5.286 5.709-3.24 0-5.285-2.193-5.285-5.709zm8.24 0c0-2.405-1.102-3.825-2.956-3.825s-2.954 1.43-2.954 3.825c0 2.415 1.101 3.823 2.954 3.823s2.955-1.409 2.955-3.823zM106.108 16.007h2.182v1.897h.053a2.659 2.659 0 0 1 2.681-2.013c.264-.001.526.028.784.085v2.139a3.195 3.195 0 0 0-1.028-.138 2.293 2.293 0 0 0-1.781.734 2.313 2.313 0 0 0-.602 1.83v6.609h-2.287V16.007zM122.355 23.877c-.308 2.023-2.278 3.411-4.798 3.411-3.241 0-5.254-2.172-5.254-5.656 0-3.495 2.023-5.762 5.157-5.762 3.083 0 5.022 2.118 5.022 5.496v.784h-7.87v.138a2.902 2.902 0 0 0 2.998 3.157 2.524 2.524 0 0 0 2.574-1.567h2.172zm-7.732-3.326h5.571a2.669 2.669 0 0 0-.749-2.011 2.694 2.694 0 0 0-1.985-.817 2.841 2.841 0 0 0-2.008.823 2.815 2.815 0 0 0-.829 2.006zM34.282.362a3.255 3.255 0 0 1 2.592 1.006c.33.349.579.767.729 1.224s.196.941.135 1.418c0 2.346-1.268 3.695-3.456 3.695h-2.653V.361h2.653zM32.77 6.667h1.385A2.303 2.303 0 0 0 36.5 5.04c.101-.328.127-.675.077-1.014a2.324 2.324 0 0 0-.592-1.884 2.311 2.311 0 0 0-1.83-.742H32.77v5.267zM39.027 4.932a2.632 2.632 0 0 1 .67-2.016 2.618 2.618 0 0 1 1.943-.859 2.622 2.622 0 0 1 2.613 2.875 2.617 2.617 0 0 1-.669 2.019 2.62 2.62 0 0 1-3.007.636 2.63 2.63 0 0 1-1.429-1.575 2.638 2.638 0 0 1-.121-1.08zm4.102 0c0-1.201-.54-1.904-1.487-1.904-.951 0-1.486.703-1.486 1.904 0 1.211.535 1.908 1.486 1.908.947 0 1.487-.702 1.487-1.908zM51.202 7.706h-1.135l-1.145-4.082h-.087l-1.141 4.082H46.57l-1.528-5.542h1.109l.993 4.229h.082l1.139-4.229h1.049l1.139 4.229h.087l.988-4.229h1.094L51.2 7.706zM54.007 2.164h1.053v.88h.082a1.664 1.664 0 0 1 1.654-.987 1.8 1.8 0 0 1 1.856 1.262c.08.258.101.531.062.799v3.588H57.62V4.393c0-.891-.387-1.334-1.196-1.334a1.276 1.276 0 0 0-1.265.864 1.27 1.27 0 0 0-.059.54v3.242h-1.094V2.163zM60.457 0h1.094v7.706h-1.094V0zM63.072 4.932a2.632 2.632 0 0 1 .67-2.016 2.618 2.618 0 0 1 1.943-.859 2.622 2.622 0 0 1 2.613 2.875 2.634 2.634 0 0 1-.669 2.019 2.62 2.62 0 0 1-1.945.861 2.64 2.64 0 0 1-1.945-.861 2.621 2.621 0 0 1-.669-2.019zm4.103 0c0-1.201-.54-1.904-1.487-1.904-.951 0-1.485.703-1.485 1.904 0 1.211.535 1.908 1.485 1.908.947 0 1.487-.702 1.487-1.908zM69.452 6.138c0-.998.743-1.573 2.061-1.654l1.501-.087v-.478c0-.585-.387-.916-1.135-.916-.61 0-1.034.224-1.155.616h-1.059c.112-.952 1.007-1.563 2.264-1.563 1.389 0 2.173.692 2.173 1.862v3.787h-1.053v-.779h-.087a1.868 1.868 0 0 1-1.665.87 1.679 1.679 0 0 1-1.291-.42 1.681 1.681 0 0 1-.556-1.239zm3.562-.473v-.463l-1.353.087c-.763.051-1.109.311-1.109.799 0 .499.433.789 1.028.789a1.297 1.297 0 0 0 .975-.302 1.306 1.306 0 0 0 .461-.91zM75.541 4.932c0-1.751.9-2.861 2.3-2.861a1.828 1.828 0 0 1 1.7.972h.082V-.001h1.094v7.706h-1.048v-.876h-.087a1.92 1.92 0 0 1-1.74.967c-1.41 0-2.3-1.109-2.3-2.865zm1.13 0c0 1.175.554 1.883 1.481 1.883.922 0 1.492-.718 1.492-1.878 0-1.155-.576-1.883-1.492-1.883-.921 0-1.481.712-1.481 1.878zM85.241 4.932a2.632 2.632 0 0 1 .67-2.016 2.618 2.618 0 0 1 1.943-.859 2.622 2.622 0 0 1 2.613 2.875 2.634 2.634 0 0 1-.669 2.019 2.62 2.62 0 0 1-1.945.861 2.64 2.64 0 0 1-1.945-.861 2.621 2.621 0 0 1-.669-2.019zm4.102 0c0-1.201-.54-1.904-1.487-1.904-.951 0-1.486.703-1.486 1.904 0 1.211.535 1.908 1.486 1.908.947 0 1.487-.702 1.487-1.908zM91.935 2.164h1.053v.88h.082a1.664 1.664 0 0 1 1.654-.987 1.8 1.8 0 0 1 1.856 1.262c.08.258.101.531.062.799v3.588h-1.094V4.393c0-.891-.387-1.334-1.196-1.334a1.276 1.276 0 0 0-.985.398 1.261 1.261 0 0 0-.338 1.006v3.242h-1.094V2.163zM102.823.784v1.405h1.201v.921h-1.201v2.85c0 .581.239.835.784.835.139 0 .279-.009.417-.025v.911a3.589 3.589 0 0 1-.595.056c-1.216 0-1.701-.428-1.701-1.496v-3.13h-.88V2.19h.88V.785h1.095zM105.517 0h1.084v3.054h.087a1.702 1.702 0 0 1 1.69-.992 1.818 1.818 0 0 1 1.44.584 1.823 1.823 0 0 1 .469 1.482v3.578h-1.095V4.398c0-.885-.412-1.334-1.185-1.334a1.29 1.29 0 0 0-1.323.851 1.295 1.295 0 0 0-.072.555v3.237h-1.094V.002zM116.663 6.209a2.254 2.254 0 0 1-2.402 1.604 2.504 2.504 0 0 1-1.942-.838 2.516 2.516 0 0 1-.618-2.023 2.565 2.565 0 0 1 1.492-2.673 2.56 2.56 0 0 1 1.063-.222c1.542 0 2.472 1.054 2.472 2.794v.382h-3.913v.061a1.461 1.461 0 0 0 .882 1.469c.187.081.39.121.594.119a1.334 1.334 0 0 0 1.318-.672h1.053zm-3.847-1.786h2.799a1.325 1.325 0 0 0-.364-1.019 1.336 1.336 0 0 0-1-.416 1.414 1.414 0 0 0-1.435 1.435z"/></symbol><symbol id="icon-arrow" viewBox="0 0 27 32"><path fill="#ff553e" style="fill:var(--color2,#ff553e)" d="M24.516.553a.422.422 0 0 0-.736.41l.736-.41zM16.873 16.48zM.526 28.362a.421.421 0 0 0-.049.593l2.45 2.891a.421.421 0 0 0 .642-.544l-2.177-2.57 2.57-2.177a.421.421 0 0 0-.544-.642l-2.891 2.45zM23.78.962c1.125 2.021 2.101 5.187 1.444 8.134a7.706 7.706 0 0 1-2.382 4.091c-1.329 1.214-3.277 2.238-6.064 2.883l.19.82c2.892-.669 4.982-1.749 6.442-3.082a8.547 8.547 0 0 0 2.636-4.529c.718-3.22-.348-6.602-1.53-8.727l-.736.41zM16.778 16.07c-3.477.805-5.93.366-7.527-.609-1.595-.973-2.389-2.512-2.504-4.029-.116-1.526.456-3 1.557-3.86 1.084-.846 2.762-1.16 5.001-.208l.329-.775c-2.454-1.043-4.472-.756-5.849.32-1.359 1.061-2.012 2.829-1.879 4.588.134 1.768 1.063 3.56 2.905 4.684 1.839 1.123 4.534 1.549 8.156.711l-.19-.82zm-3.473-8.706c2.203.936 3.479 2.747 3.927 4.953.45 2.217.058 4.835-1.107 7.315-2.326 4.953-7.688 9.262-15.293 8.633l-.069.839c8.002.662 13.669-3.888 16.124-9.114 1.226-2.61 1.663-5.412 1.17-7.84-.495-2.44-1.932-4.502-4.423-5.56l-.329.775z"/></symbol><symbol id="icon-bell" viewBox="0 0 32 32"><path fill="#ffdd27" style="fill:var(--color3,#ffdd27)" d="M17.573 24.869h-3.146l-.174 1.009a1.773 1.773 0 1 0 3.494 0l-.174-1.009z"/><path fill="#f9c91a" style="fill:var(--color4,#f9c91a)" d="M17.772 26.108a1.65 1.65 0 0 0-.025-.23l-.174-1.009-2.468-.569-.678.569-.174 1.009a2.02 2.02 0 0 0-.025.23h3.544z"/><path fill="#ffdd27" style="fill:var(--color3,#ffdd27)" d="M23.701 19.944a2.304 2.304 0 0 1-.309-1.152v-4.037a7.395 7.395 0 0 0-5.083-7.024c-.09-.029-.128-.123-.088-.209.173-.374.255-.799.216-1.245-.085-.979-.922-2.229-2.435-2.229a2.45 2.45 0 0 0-2.233 3.457.169.169 0 0 1-.103.233 7.395 7.395 0 0 0-5.06 7.017v4.037c0 .404-.106.802-.309 1.152l7.865 1.575 7.537-1.576zM15.132 6.495a.868.868 0 1 1 1.736 0 .868.868 0 0 1-1.736 0z"/><path fill="#f9c91a" style="fill:var(--color4,#f9c91a)" d="M20.913 13.205v4.037c0 .404.106.802.309 1.152l.895 1.549 1.193.48.391-.48a2.304 2.304 0 0 1-.309-1.152v-4.037a7.395 7.395 0 0 0-4.795-6.923 7.373 7.373 0 0 1 2.316 5.374z"/><path fill="#ffdd27" style="fill:var(--color3,#ffdd27)" d="M31.401 15.405a9.91 9.91 0 0 1-2.352 6.425.772.772 0 0 1-1.133.042l-.004-.004a.777.777 0 0 1-.039-1.052c1.234-1.462 1.979-3.351 1.979-5.411s-.745-3.948-1.979-5.411a.777.777 0 0 1 .039-1.052l.005-.005a.77.77 0 0 1 1.133.042 9.913 9.913 0 0 1 2.352 6.425z"/><path fill="#ffdd27" style="fill:var(--color3,#ffdd27)" d="M28.302 15.405a6.816 6.816 0 0 1-1.431 4.186.776.776 0 0 1-1.161.076l-.001-.001a.776.776 0 0 1-.063-1.023c.693-.896 1.106-2.02 1.106-3.238s-.413-2.342-1.106-3.238a.774.774 0 0 1 .063-1.023l.001-.001a.775.775 0 0 1 1.161.076 6.816 6.816 0 0 1 1.431 4.186zM.599 15.405a9.91 9.91 0 0 0 2.352 6.425.772.772 0 0 0 1.133.042l.004-.004a.777.777 0 0 0 .039-1.052c-1.234-1.462-1.979-3.351-1.979-5.411s.745-3.948 1.979-5.411a.777.777 0 0 0-.039-1.052l-.005-.005a.77.77 0 0 0-1.133.042 9.913 9.913 0 0 0-2.352 6.425z"/><path fill="#ffdd27" style="fill:var(--color3,#ffdd27)" d="M3.698 15.405c0 1.575.534 3.027 1.431 4.186a.776.776 0 0 0 1.161.076l.001-.001a.776.776 0 0 0 .063-1.023c-.693-.896-1.106-2.02-1.106-3.238s.413-2.342 1.106-3.238a.774.774 0 0 0-.063-1.023l-.001-.001a.775.775 0 0 0-1.161.076 6.816 6.816 0 0 0-1.431 4.186z"/><path fill="#f9c91a" style="fill:var(--color4,#f9c91a)" d="M16 9.407c-.449 0-.88-.1-1.281-.296a.466.466 0 0 1 .409-.835c.272.134.566.201.872.201.303 0 .594-.067.865-.198a.465.465 0 1 1 .406.836A2.89 2.89 0 0 1 16 9.406z"/><path fill="#f6e266" style="fill:var(--color5,#f6e266)" d="M23.701 19.944H8.3l-2.616 4.531a.263.263 0 0 0 .228.395H26.09a.264.264 0 0 0 .228-.395l-2.616-4.531z"/><path fill="#f4d820" style="fill:var(--color6,#f4d820)" d="m26.317 24.474-2.616-4.531h-1.585l.361.625c.706 1.222-.176 2.75-1.588 2.75H6.35l-.667 1.155a.263.263 0 0 0 .228.394h20.178a.263.263 0 0 0 .228-.394z"/></symbol><symbol id="icon-brush" viewBox="0 0 162 32"><path fill="#ff733b" style="fill:var(--color7,#ff733b)" d="M.669 17.651C2.01 14.13 7.04 11.416 9.388 10.5c10.731-4.401 28-6.601 35.21-5.501S43.927 8.3 37.053 10.5s-1.844 3.301 4.359 2.2 19.114-2.2 30.18-2.751c11.066-.55-.168-1.65-11.066-1.65s-10.731-2.2-6.874-3.301c3.856-1.1 12.575-5.501 22.803-4.951s34.371 1.65 44.767 5.501c10.395 3.851 31.857 14.303 37.055 17.603s4.526 12.652-4.695 7.151c-9.222-5.501-28.336-15.403-70.252-17.053S9.557 20.951 6.204 24.801c-3.353 3.851-5.701 3.851-4.359.55S3.522 21.5 2.18 22.6s-3.186-.55-1.509-4.951z"/></symbol><symbol id="icon-calendar" viewBox="0 0 38 32"><path fill="#f6f9f9" style="fill:var(--color8,#f6f9f9)" d="M34.623 6.258 15.117 5.154.701 6.258v21.756c0 .379.307.686.687.686h32.549a.686.686 0 0 0 .686-.686V6.258z"/><path fill="#e7ecf1" style="fill:var(--color9,#e7ecf1)" d="M1.388 28.701h32.549a.686.686 0 0 0 .686-.686V6.259l-2.906-.148v11.378a2.188 2.188 0 0 1-2.495 2.168 5.566 5.566 0 0 0-.851-.054c-2.939.041-5.341 2.446-5.38 5.385l-.001.062a2.193 2.193 0 0 1-2.189 2.198H.702v.767c0 .379.307.686.687.686z"/><path fill="#da4a54" style="fill:var(--color10,#da4a54)" d="M31.381 19.753v1.95a.137.137 0 0 1-.137.137h-2.769a.137.137 0 0 1-.137-.137v-1.95c0-.075.061-.137.137-.137h2.769c.075 0 .137.061.137.137zm0-3.247a.137.137 0 0 0-.137-.137h-2.769a.137.137 0 0 0-.137.137v1.95c0 .075.061.137.137.137h2.769a.137.137 0 0 0 .137-.137v-1.95zm0-3.247a.136.136 0 0 0-.137-.136h-2.769a.137.137 0 0 0-.137.136v1.95c0 .075.061.136.137.136h2.769a.137.137 0 0 0 .137-.136v-1.95zm0-3.247a.136.136 0 0 0-.137-.136h-2.769a.137.137 0 0 0-.137.136v1.95c0 .075.061.136.137.136h2.769a.137.137 0 0 0 .137-.136v-1.95z"/><path fill="#d82e3d" style="fill:var(--color11,#d82e3d)" d="M28.475 21.839h2.769a.137.137 0 0 0 .137-.136v-1.95a.137.137 0 0 0-.137-.137h-1.198a2.19 2.19 0 0 1-.826.04 5.714 5.714 0 0 0-.372-.04h-.374a.137.137 0 0 0-.137.137v1.95c0 .075.061.136.137.136z"/><path fill="#dae4ea" style="fill:var(--color12,#dae4ea)" d="M23.249 15.209a.136.136 0 0 1-.137.136h-2.769a.137.137 0 0 1-.137-.136v-1.95c0-.075.061-.136.137-.136h2.769c.075 0 .137.061.137.136v1.95zm0-5.197a.136.136 0 0 0-.137-.136h-2.769a.137.137 0 0 0-.137.136v1.95c0 .075.061.136.137.136h2.769a.137.137 0 0 0 .137-.136v-1.95zm-.136 9.604h-2.769a.137.137 0 0 0-.137.137v1.95c0 .075.061.137.137.137h2.769a.137.137 0 0 0 .137-.137v-1.95a.137.137 0 0 0-.137-.137zm-14.98-7.517h2.783a.136.136 0 0 0 .136-.136v-1.95a.136.136 0 0 0-.136-.136H8.133a.136.136 0 0 0-.136.136v1.95c0 .075.061.136.136.136zm-.137 3.11c0 .075.061.136.136.136h2.783a.136.136 0 0 0 .136-.136v-1.95a.136.136 0 0 0-.136-.136H8.132a.136.136 0 0 0-.136.136v1.95zm15.253 1.297a.137.137 0 0 0-.137-.137h-2.769a.137.137 0 0 0-.137.137v1.95c0 .075.061.137.137.137h2.769a.137.137 0 0 0 .137-.137v-1.95zm-15.253 1.95c0 .075.061.137.136.137h2.783a.136.136 0 0 0 .136-.137v-1.95a.137.137 0 0 0-.136-.137H8.132a.136.136 0 0 0-.136.137v1.95zm19.183 1.16H24.41a.137.137 0 0 0-.137.137v1.95c0 .075.061.137.137.137h2.769a.137.137 0 0 0 .137-.137v-1.95a.137.137 0 0 0-.137-.137zm.136-3.11a.137.137 0 0 0-.137-.137h-2.769a.137.137 0 0 0-.137.137v1.95c0 .075.061.137.137.137h2.769a.137.137 0 0 0 .137-.137v-1.95zm0-3.247a.136.136 0 0 0-.137-.136h-2.769a.137.137 0 0 0-.137.136v1.95c0 .075.061.136.137.136h2.769a.137.137 0 0 0 .137-.136v-1.95zm0-3.247a.136.136 0 0 0-.137-.136h-2.769a.137.137 0 0 0-.137.136v1.95c0 .075.061.136.137.136h2.769a.137.137 0 0 0 .137-.136v-1.95zM7.996 24.947c0 .075.061.136.136.136h2.783a.136.136 0 0 0 .136-.136V23a.137.137 0 0 0-.136-.137H8.132a.136.136 0 0 0-.136.137v1.947zm8.145-3.244c0 .075.061.137.136.137h2.769a.136.136 0 0 0 .136-.137v-1.95a.137.137 0 0 0-.136-.137h-2.769a.136.136 0 0 0-.136.137v1.95zm.137-6.357h2.769a.137.137 0 0 0 .137-.136v-1.95a.136.136 0 0 0-.137-.136h-2.769a.137.137 0 0 0-.137.136v1.95c0 .075.061.136.137.136zm-.137 3.11c0 .075.061.137.136.137h2.769a.136.136 0 0 0 .136-.137v-1.95a.137.137 0 0 0-.136-.137h-2.769a.136.136 0 0 0-.136.137v1.95zm0 6.491c0 .075.061.136.136.136h2.769a.136.136 0 0 0 .136-.136V23a.137.137 0 0 0-.136-.137h-2.769a.136.136 0 0 0-.136.137v1.947zm2.906-15.071h-2.769a.136.136 0 0 0-.136.136v1.95c0 .075.061.136.136.136h2.769a.136.136 0 0 0 .136-.136v-1.95a.136.136 0 0 0-.136-.136zM7.996 21.703c0 .075.061.137.136.137h2.783a.136.136 0 0 0 .136-.137v-1.95a.137.137 0 0 0-.136-.137H8.132a.136.136 0 0 0-.136.137v1.95zm4.079 3.244c0 .075.061.136.136.136h2.769a.136.136 0 0 0 .136-.136V23a.137.137 0 0 0-.136-.137h-2.769a.136.136 0 0 0-.136.137v1.947zm0-9.738c0 .075.061.136.136.136h2.769a.136.136 0 0 0 .136-.136v-1.95a.136.136 0 0 0-.136-.136h-2.769a.136.136 0 0 0-.136.136v1.95zm.137-3.11h2.769a.136.136 0 0 0 .136-.136v-1.95a.136.136 0 0 0-.136-.136h-2.769a.136.136 0 0 0-.136.136v1.95c0 .075.061.136.136.136zm-.137 6.357c0 .075.061.137.136.137h2.769a.136.136 0 0 0 .136-.137v-1.95a.137.137 0 0 0-.136-.137h-2.769a.136.136 0 0 0-.136.137v1.95zm0 3.247c0 .075.061.137.136.137h2.769a.136.136 0 0 0 .136-.137v-1.95a.137.137 0 0 0-.136-.137h-2.769a.136.136 0 0 0-.136.137v1.95z"/><path fill="#c6d0da" style="fill:var(--color13,#c6d0da)" d="M24.273 21.703c0 .075.061.137.137.137h2.769a.137.137 0 0 0 .137-.137v-1.95a.106.106 0 0 0-.004-.031 5.49 5.49 0 0 0-3.039 1.834v.147z"/><path fill="#61a2f9" style="fill:var(--color14,#61a2f9)" d="M33.937 2.247H1.389a.687.687 0 0 0-.687.687v3.325h33.922V2.934a.687.687 0 0 0-.687-.687z"/><path fill="#da4a54" style="fill:var(--color10,#da4a54)" d="M3.943 15.209v-1.95c0-.075.061-.136.137-.136h2.756c.075 0 .136.061.136.136v1.95a.136.136 0 0 1-.136.136H4.08a.137.137 0 0 1-.137-.136zm0 3.247c0 .075.061.137.137.137h2.756a.136.136 0 0 0 .136-.137v-1.95a.137.137 0 0 0-.136-.137H4.08a.136.136 0 0 0-.136.137v1.95zm0 6.491c0 .075.061.137.137.137h2.756a.136.136 0 0 0 .136-.137V23a.137.137 0 0 0-.136-.137H4.08a.136.136 0 0 0-.136.137v1.947zm0-3.244c0 .075.061.136.137.136h2.756a.136.136 0 0 0 .136-.136v-1.95a.136.136 0 0 0-.136-.136H4.08a.136.136 0 0 0-.136.136v1.95z"/><path fill="#fff" style="fill:var(--color1,#fff)" d="M4.484 4.425H3.62a.684.684 0 0 1-.684-.684V1.437c0-.378.306-.684.684-.684h.864c.378 0 .684.306.684.684v2.304a.684.684 0 0 1-.684.684zM8.964 4.425h-.795a.684.684 0 0 1-.684-.684V1.437c0-.378.306-.684.684-.684h.795c.378 0 .684.306.684.684v2.304a.684.684 0 0 1-.684.684zM13.512 4.425h-.795a.684.684 0 0 1-.684-.684V1.437c0-.378.306-.684.684-.684h.795c.378 0 .684.306.684.684v2.304a.684.684 0 0 1-.684.684zM18.061 4.425h-.795a.684.684 0 0 1-.684-.684V1.437c0-.378.306-.684.684-.684h.795c.378 0 .684.306.684.684v2.304a.684.684 0 0 1-.684.684zM22.609 4.425h-.795a.684.684 0 0 1-.684-.684V1.437c0-.378.306-.684.684-.684h.795c.378 0 .684.306.684.684v2.304a.684.684 0 0 1-.684.684zM27.157 4.425h-.795a.684.684 0 0 1-.684-.684V1.437c0-.378.306-.684.684-.684h.795c.378 0 .684.306.684.684v2.304a.684.684 0 0 1-.684.684z"/><path fill="#5490f9" style="fill:var(--color15,#5490f9)" d="M33.937 2.247h-1.548l-.41 1.083c0 .374-.262 1.094-.262 1.094v1.834h2.906V2.933a.687.687 0 0 0-.687-.687z"/><path fill="#fff" style="fill:var(--color1,#fff)" d="M31.705 4.425h-.795a.684.684 0 0 1-.684-.684V1.437c0-.378.306-.684.684-.684h.795c.378 0 .684.306.684.684v2.304a.684.684 0 0 1-.684.684z"/><path fill="#80e29d" style="fill:var(--color16,#80e29d)" d="M31.355 31.973a5.459 5.459 0 1 0 0-10.918 5.459 5.459 0 0 0 0 10.918z"/><path fill="#78d090" style="fill:var(--color17,#78d090)" d="M32.233 21.125a5.459 5.459 0 0 1-4.659 9.325 5.459 5.459 0 1 0 4.66-9.325z"/><path fill="#f6f9f9" style="fill:var(--color8,#f6f9f9)" d="m34.454 25.341-1.032-1.032a.279.279 0 0 0-.393 0l-1.996 1.996a.279.279 0 0 1-.393 0l-.958-.958a.279.279 0 0 0-.393 0l-1.032 1.032a.278.278 0 0 0 0 .392l2.383 2.383a.279.279 0 0 0 .393 0l3.42-3.42a.279.279 0 0 0 0-.393z"/><path fill="#e7ecf1" style="fill:var(--color9,#e7ecf1)" d="M33.902 24.79a5.477 5.477 0 0 1-.174 1.671l.726-.726a.279.279 0 0 0 0-.393l-.552-.552z"/></symbol><symbol id="icon-client-1" viewBox="0 0 32 32"><path fill="#ff0c5d" style="fill:var(--color18,#ff0c5d)" d="m12.541 11.32 2.135 2.12a1.876 1.876 0 0 0 2.648 0l1.753-1.741.369-.391 10.259-10.26a.612.612 0 0 0-.433-1.047h-3.605a4.374 4.374 0 0 0-3.09 1.279l-6.578 6.581-2.173-2.174a4.278 4.278 0 0 0-3.023-1.254H5.68l6.873 6.874-.013.013z"/><path fill="#ffc005" style="fill:var(--color19,#ffc005)" d="M6.368 32a4.28 4.28 0 0 0 3.026-1.254L16 24.139l2.145 2.145a4.38 4.38 0 0 0 3.096 1.283h5.079l-6.873-6.874.013-.013-2.132-2.119a1.88 1.88 0 0 0-2.651 0l-1.753 1.741-.369.391L2.289 30.957a.612.612 0 0 0 .433 1.044z"/><path fill="#221eca" style="fill:var(--color20,#221eca)" d="M7.86 16.002 5.702 18.16a4.342 4.342 0 0 0-1.27 3.065v5.098l6.873-6.874.013.013 2.126-2.142a1.878 1.878 0 0 0-.006-2.654L1.037 2.283A.608.608 0 0 0 0 2.713v3.625c0 1.165.452 2.256 1.276 3.081l6.584 6.585zM30.74 22.599l-6.565-6.597 2.18-2.19a4.234 4.234 0 0 0 1.232-2.985V5.675l-6.845 6.877-.013-.013-2.094 2.12a1.883 1.883 0 0 0-.01 2.638l2.107 2.164.013-.013 10.24 10.289a.594.594 0 0 0 1.015-.42v-3.669a4.308 4.308 0 0 0-1.26-3.049z"/></symbol><symbol id="icon-client-2" viewBox="0 0 32 32"><path fill="#ffc005" style="fill:var(--color19,#ffc005)" d="M.497 14.844c-.004.003-.01.003-.014.003v.004c0 .004.004.004.004.004.115.024.231.049.346.07-.115-.028-.224-.056-.335-.08zm0 0c-.004.003-.01.003-.014.003v.004c0 .004.004.004.004.004.115.024.231.049.346.07-.115-.028-.224-.056-.335-.08zm0 0c-.004.003-.01.003-.014.003v.004c0 .004.004.004.004.004.115.024.231.049.346.07-.115-.028-.224-.056-.335-.08zm0 0c-.004.003-.01.003-.014.003v.004c0 .004.004.004.004.004.115.024.231.049.346.07-.115-.028-.224-.056-.335-.08zm0 0c-.004.003-.01.003-.014.003v.004c0 .004.004.004.004.004.115.024.231.049.346.07-.115-.028-.224-.056-.335-.08z"/><path fill="#ff733b" style="fill:var(--color7,#ff733b)" d="M15.325 4.986c0 1.548-.164 3.051-.475 4.48a20.062 20.062 0 0 1-1.335 4.046c-1.255.57-2.6 1.02-4.012 1.328a21.185 21.185 0 0 1-4.519.482 21.258 21.258 0 0 1-4.155-.408c-.112-.024-.22-.052-.332-.077.112-.024.22-.049.332-.077-.115.021-.231.045-.346.07.814-3.742 2.618-7.006 5.057-9.358 2.348-2.411 5.592-4.193 9.306-5v.004a21.25 21.25 0 0 1 .479 4.511z"/><path fill="#ffc005" style="fill:var(--color19,#ffc005)" d="M.827 14.921a10.596 10.596 0 0 1-.346-.07s-.004 0-.004-.004v-.004c.004 0 .01 0 .014-.003.115.028.224.056.335.08z"/><path fill="#7188ff" style="fill:var(--color21,#7188ff)" d="M14.845.479A21.304 21.304 0 0 0 10.344 0C7.255 0 4.347.657 1.813 1.81.66 4.343.003 7.251.003 10.34c0 1.555.168 3.065.479 4.501 0-.004.004-.004.004-.004.814-3.742 2.618-7.006 5.057-9.358 2.348-2.411 5.592-4.193 9.306-5h-.004z"/><path fill="#ffc005" style="fill:var(--color19,#ffc005)" d="M17.143.493c-.003-.004-.003-.01-.003-.014h-.003c-.003 0-.003.004-.003.004-.024.115-.049.231-.07.346.031-.112.056-.224.08-.335zm0 0c-.003-.004-.003-.01-.003-.014h-.003c-.003 0-.003.004-.003.004-.024.115-.049.231-.07.346.031-.112.056-.224.08-.335zm0 0c-.003-.004-.003-.01-.003-.014h-.003c-.003 0-.003.004-.003.004-.024.115-.049.231-.07.346.031-.112.056-.224.08-.335zm0 0c-.003-.004-.003-.01-.003-.014h-.003c-.003 0-.003.004-.003.004-.024.115-.049.231-.07.346.031-.112.056-.224.08-.335zm0 0c-.003-.004-.003-.01-.003-.014h-.003c-.003 0-.003.004-.003.004-.024.115-.049.231-.07.346.031-.112.056-.224.08-.335z"/><path fill="#ff733b" style="fill:var(--color7,#ff733b)" d="M27.006 15.326c-1.548 0-3.051-.164-4.484-.475a19.816 19.816 0 0 1-4.05-1.338c-.57-1.255-1.02-2.6-1.328-4.015a21.204 21.204 0 0 1-.482-4.518A21.243 21.243 0 0 1 17.07.825c.024-.112.052-.22.077-.332.024.112.049.22.077.332a10.596 10.596 0 0 0-.07-.346c3.746.814 7.01 2.621 9.362 5.056 2.411 2.352 4.194 5.591 5.001 9.309h-.003c-.007.004-.014.004-.021.004a20.894 20.894 0 0 1-4.487.479z"/><path fill="#ffc005" style="fill:var(--color19,#ffc005)" d="M17.07.825c.021-.115.045-.231.07-.346 0 0 0-.004.003-.004h.003c0 .004 0 .01.003.014a7.628 7.628 0 0 0-.08.335z"/><path fill="#7188ff" style="fill:var(--color21,#7188ff)" d="M31.521 14.848c.311-1.436.479-2.946.479-4.501 0-3.092-.657-6-1.814-8.533C27.649.657 24.745 0 21.652 0c-1.555 0-3.065.168-4.505.479.003 0 .003.004.003.004 3.746.814 7.01 2.621 9.362 5.056 2.411 2.352 4.194 5.591 5.001 9.309h.007s-.003 0 0 0z"/><path fill="#ffc005" style="fill:var(--color19,#ffc005)" d="M31.498 17.145c.003-.003.011-.003.014-.003v-.003c0-.003-.003-.003-.003-.003-.115-.024-.231-.049-.346-.07.115.031.227.056.335.08zm0 0c.003-.003.011-.003.014-.003v-.003c0-.003-.003-.003-.003-.003-.115-.024-.231-.049-.346-.07.115.031.227.056.335.08zm0 0c.003-.003.011-.003.014-.003v-.003c0-.003-.003-.003-.003-.003-.115-.024-.231-.049-.346-.07.115.031.227.056.335.08zm0 0c.003-.003.011-.003.014-.003v-.003c0-.003-.003-.003-.003-.003-.115-.024-.231-.049-.346-.07.115.031.227.056.335.08zm0 0c.003-.003.011-.003.014-.003v-.003c0-.003-.003-.003-.003-.003-.115-.024-.231-.049-.346-.07.115.031.227.056.335.08z"/><path fill="#ff733b" style="fill:var(--color7,#ff733b)" d="M16.67 27.003c0-1.548.164-3.051.475-4.48a20.062 20.062 0 0 1 1.335-4.046c1.255-.57 2.6-1.02 4.012-1.328a21.25 21.25 0 0 1 4.519-.482 21.258 21.258 0 0 1 4.155.408c.112.024.22.052.332.077-.112.024-.22.049-.332.077.115-.021.231-.045.346-.07-.814 3.742-2.618 7.006-5.057 9.358-2.348 2.411-5.592 4.193-9.306 5v-.003c-.003-.007-.003-.014-.003-.021a21.222 21.222 0 0 1-.475-4.49z"/><path fill="#ffc005" style="fill:var(--color19,#ffc005)" d="M31.167 17.072a10.596 10.596 0 0 1 .349.073v.003c-.003 0-.011 0-.014.003a6.014 6.014 0 0 0-.335-.08z"/><path fill="#7188ff" style="fill:var(--color21,#7188ff)" d="M17.152 31.514c1.436.311 2.946.479 4.501.479 3.089 0 5.997-.657 8.531-1.81 1.153-2.533 1.81-5.441 1.81-8.53 0-1.555-.168-3.065-.479-4.501 0 .003-.003.003-.003.003-.814 3.742-2.618 7.006-5.057 9.358-2.348 2.411-5.592 4.193-9.306 5h.003s0-.003 0 0z"/><path fill="#ffc005" style="fill:var(--color19,#ffc005)" d="M14.853 31.497c.004.003.004.01.004.014h.004c.004 0 .004-.003.004-.003.024-.115.049-.231.07-.346a7.628 7.628 0 0 0-.08.335zm0 0c.004.003.004.01.004.014h.004c.004 0 .004-.003.004-.003.024-.115.049-.231.07-.346a7.628 7.628 0 0 0-.08.335zm0 0c.004.003.004.01.004.014h.004c.004 0 .004-.003.004-.003.024-.115.049-.231.07-.346a7.628 7.628 0 0 0-.08.335zm0 0c.004.003.004.01.004.014h.004c.004 0 .004-.003.004-.003.024-.115.049-.231.07-.346a7.628 7.628 0 0 0-.08.335zm0 0c.004.003.004.01.004.014h.004c.004 0 .004-.003.004-.003.024-.115.049-.231.07-.346a7.628 7.628 0 0 0-.08.335z"/><path fill="#ff733b" style="fill:var(--color7,#ff733b)" d="M4.991 16.663c1.548 0 3.051.164 4.484.475 1.429.308 2.785.762 4.05 1.338.57 1.255 1.02 2.6 1.328 4.015.315 1.443.482 2.96.482 4.518 0 1.429-.14 2.816-.405 4.148 0 .003-.004.007-.004.007-.024.112-.052.22-.077.332a9.937 9.937 0 0 0-.077-.332c.021.115.045.231.07.346-3.746-.814-7.01-2.621-9.362-5.056-2.411-2.352-4.194-5.591-5.001-9.309h.004c.007-.003.014-.003.021-.003a20.978 20.978 0 0 1 4.487-.479z"/><path fill="#ffc005" style="fill:var(--color19,#ffc005)" d="M14.93 31.165c-.021.115-.045.231-.07.346 0 0 0 .003-.004.003h-.004c0-.003 0-.01-.004-.014.028-.112.052-.224.08-.335z"/><path fill="#7188ff" style="fill:var(--color21,#7188ff)" d="M.479 17.145A21.276 21.276 0 0 0 0 21.646c0 3.093.657 6 1.814 8.533 2.534 1.153 5.441 1.814 8.534 1.814 1.555 0 3.065-.168 4.505-.479-.004 0-.004-.003-.004-.003-3.746-.814-7.01-2.621-9.362-5.056-2.411-2.352-4.194-5.591-5.001-9.309H.479z"/></symbol><symbol id="icon-client-3" viewBox="0 0 32 32"><path d="M20.363 20.359a10.689 10.689 0 0 1-4.361 4.842c-1.574.92-3.4 1.442-5.354 1.442-1.553 0-3.03-.332-4.361-.934a10.636 10.636 0 0 1-6.284-9.4C0 16.205 0 16.105 0 16.001s0-.207.003-.308c.118-4.191 2.663-7.778 6.28-9.403a10.606 10.606 0 0 0-.93 4.358c0 1.95.526 3.78 1.442 5.354a10.663 10.663 0 0 0 4.842 4.357c1.332.598 2.805.93 4.361.93s3.033-.332 4.364-.93zM31.999 16.002c0 .104 0 .207-.003.308-.118 4.192-2.663 7.778-6.277 9.403.598-1.331.93-2.808.93-4.361 0-1.95-.526-3.78-1.442-5.354a10.678 10.678 0 0 0-4.842-4.361c-1.331-.598-2.805-.93-4.361-.93s-3.03.332-4.361.93A10.706 10.706 0 0 1 16 6.795c1.574-.92 3.4-1.442 5.354-1.442 1.556 0 3.033.332 4.364.934 3.614 1.625 6.159 5.212 6.277 9.403 0 .104.003.207.003.311z"/><path d="M25.716 6.287a10.623 10.623 0 0 0-4.364-.934c-1.951 0-3.78.526-5.354 1.442a10.67 10.67 0 0 0-4.357 4.842c-.598 1.331-.934 2.808-.934 4.361s.332 3.029.93 4.357a10.7 10.7 0 0 1-4.842-4.357 10.564 10.564 0 0 1-1.442-5.354c0-1.553.332-3.03.93-4.357A10.657 10.657 0 0 1 15.69.003C15.794 0 15.897 0 16.001 0s.207 0 .308.003a10.653 10.653 0 0 1 9.407 6.284zM15.691 31.993c-4.191-.118-7.781-2.663-9.407-6.28a10.61 10.61 0 0 0 4.361.934c1.95 0 3.78-.526 5.354-1.442a10.678 10.678 0 0 0 4.361-4.842c.598-1.331.93-2.805.93-4.358s-.332-3.033-.93-4.361a10.678 10.678 0 0 1 4.842 4.361c.92 1.574 1.442 3.4 1.442 5.354a10.62 10.62 0 0 1-.93 4.361c-1.625 3.617-5.215 6.163-9.407 6.28z"/></symbol><symbol id="icon-client-4" viewBox="0 0 37 32"><path fill="#7188ff" style="fill:var(--color21,#7188ff)" opacity=".9" d="M8.441 31.435c-1.817-.661-3.338-1.644-4.586-2.956-1.245-1.306-2.187-2.963-2.82-4.988-.636-2.028-.959-4.426-.959-7.192 0-2.783.323-5.198.956-7.243s1.575-3.718 2.82-5.041c1.252-1.33 2.773-2.325 4.59-2.993 1.639-.605 3.523-.939 5.656-.999-.35.124-.693.254-1.023.401a12.54 12.54 0 0 0-4.108 2.86C7.645 4.67 6.652 6.401 5.982 8.462c-.67 2.058-1.02 4.443-1.06 7.156-.003.17-.003.347-.003.531 0 .18.003.357.003.531v.003c.027 1.406.165 2.679.407 3.815.091.444.192.872.313 1.273.38 1.246.919 2.288 1.635 3.113.791.912 1.831 1.593 3.089 2.038a11.16 11.16 0 0 0 1.888.471c.05.007.101.017.148.023a16.505 16.505 0 0 0 2.332.167h1.595c.195 0 .39-.003.579-.01a14.328 14.328 0 0 0 1.659-.137h.003c1.12-.157 2.12-.444 2.995-.872a6.997 6.997 0 0 0 2.238-1.7c.804-.919 1.386-2.105 1.77-3.541s.572-3.127.572-5.071c0-1.941-.185-3.631-.565-5.071-.38-1.436-.956-2.629-1.743-3.561a6.898 6.898 0 0 0-2.234-1.714 1.456 1.456 0 0 1-.101-.043h.71c.781 0 1.504.053 2.17.147.017.003.037.003.057.007.044.007.091.017.135.023.111.017.215.037.323.057.064.013.125.023.188.037.017.003.034.01.054.013l.037.007c.034.007.064.013.091.023a10.097 10.097 0 0 1 .642.173l.087.027.299.1c1.11.404 1.985.999 2.658 1.787.639.752 1.154 1.757 1.514 3.013.081.281.155.581.219.889.172.872.283 1.844.323 2.923l.01.311v.003c.003.063.003.14.003.227 0 .09-.003.187-.003.347 0 .18.003.438.003.661v.043c0 .087 0 .167-.003.234v.003l-.01.317c-.077 2.509-.437 4.697-1.067 6.561s-1.528 3.404-2.692 4.643a11.608 11.608 0 0 1-3.789 2.666z"/><path fill="#6461da" style="fill:var(--color22,#6461da)" d="M23.879 32a12.629 12.629 0 0 0 4.109-2.896c1.275-1.35 2.244-3.027 2.907-5.004.67-1.978 1.036-4.259 1.121-6.842v-.003l.01-.321v-.003c.003-.093.003-.177.003-.251v-.053c0-.23-.003-.491-.003-.661 0-.15.003-.234.003-.341v-.013c0-.07 0-.154-.003-.247v-.006l-.01-.314v-.007c-.064-1.667-.283-3.12-.66-4.366s-.919-2.288-1.635-3.113c-.791-.912-1.831-1.59-3.089-2.038-1.255-.444-2.729-.658-4.418-.661h-1.595c-.777 0-1.511.05-2.194.147h-.003c-1.12.157-2.12.444-2.995.872s-1.629.999-2.238 1.7c-.801.919-1.386 2.105-1.77 3.541s-.572 3.127-.572 5.071c0 1.941.185 3.631.565 5.071.38 1.436.956 2.629 1.746 3.561a6.898 6.898 0 0 0 2.234 1.714c.034.013.067.027.101.043h-.754c-1.582 0-2.931-.21-4.041-.615s-1.985-.999-2.658-1.787c-.639-.752-1.158-1.757-1.518-3.013s-.569-2.766-.602-4.513c-.003-.174-.003-.344-.003-.514 0-.174.003-.347.003-.518.037-2.636.38-4.924 1.013-6.865s1.555-3.534 2.759-4.801c1.063-1.116 2.322-1.991 3.789-2.636S16.627.262 18.522.092c.673-.06 1.373-.09 2.1-.09h1.595c2.413 0 4.526.334 6.339.996 1.817.661 3.338 1.644 4.59 2.956.619.655 1.168 1.393 1.639 2.225s.868 1.75 1.184 2.763c.633 2.028.956 4.423.956 7.192 0 2.783-.323 5.198-.956 7.239-.633 2.044-1.575 3.718-2.82 5.041-1.252 1.33-2.773 2.325-4.59 2.993z"/></symbol><symbol id="icon-facebook" viewBox="0 0 16 32"><path fill="#18063c" style="fill:var(--color23,#18063c)" d="M13.756 15.422H9.448v15.42H3.023v-15.42H0V9.98h3.023V6.427c0-2.494 1.209-6.425 6.425-6.425h4.762v5.291h-3.401c-.529 0-1.361.302-1.361 1.512V9.98h4.838l-.529 5.442z"/></symbol><symbol id="icon-googleplay" viewBox="0 0 133 32"><path fill="#ff553e" style="fill:var(--color2,#ff553e)" d="M69.85 7.452c-1.03 0-1.899-.362-2.586-1.074a3.669 3.669 0 0 1-1.045-2.622c0-1.04.352-1.921 1.045-2.619.684-.713 1.552-1.074 2.583-1.074 1.019 0 1.887.362 2.586 1.074.693.721 1.045 1.602 1.045 2.619-.011 1.043-.363 1.924-1.045 2.619-.684.718-1.552 1.077-2.583 1.077zm-30.656 0a3.582 3.582 0 0 1-2.597-1.06c-.71-.701-1.07-1.587-1.07-2.633s.36-1.932 1.07-2.633c.701-.704 1.575-1.06 2.597-1.06.5 0 .985.1 1.45.302.457.197.829.465 1.104.792l.068.083-.769.758-.08-.094c-.434-.519-1.016-.772-1.785-.772-.687 0-1.286.245-1.78.73-.497.487-.749 1.126-.749 1.898s.253 1.411.749 1.898c.494.484 1.093.73 1.78.73.732 0 1.348-.245 1.828-.73.284-.285.46-.684.522-1.188h-2.466V3.407h3.525l.014.097c.026.18.051.365.051.536 0 .983-.295 1.778-.88 2.366-.664.695-1.533 1.049-2.583 1.049zm40.761-.151h-1.087l-3.329-5.349.028.963v4.383H74.48V.216h1.24l.034.054 3.131 5.039-.028-.96V.216h1.099v7.085zm-18.273 0h-1.101V1.282h-1.91V.216h4.919v1.066h-1.91v6.019h.003zm-3.909 0h-1.099V.216h1.099v7.085zm-6.173 0h-1.098V1.282h-1.91V.216h4.919v1.066h-1.91v6.019zm-3.704-.011h-4.212V.216h4.212v1.066h-3.111v1.944h2.807V4.28h-2.807v1.944h3.111V7.29zm20.175-1.645a2.426 2.426 0 0 0 1.78.741c.712 0 1.294-.242 1.78-.741.483-.484.727-1.12.727-1.887s-.244-1.405-.724-1.887a2.43 2.43 0 0 0-1.78-.741c-.712 0-1.294.242-1.777.741-.483.485-.727 1.12-.727 1.887s.241 1.405.721 1.887zM66.118 17.193c-2.682 0-4.856 2.043-4.856 4.862 0 2.793 2.188 4.862 4.856 4.862 2.682 0 4.856-2.058 4.856-4.862 0-2.819-2.174-4.862-4.856-4.862zm0 7.798c-1.467 0-2.73-1.22-2.73-2.947 0-1.753 1.266-2.947 2.73-2.947 1.467 0 2.731 1.194 2.731 2.947.003 1.738-1.263 2.947-2.731 2.947zm-10.596-7.798c-2.682 0-4.856 2.043-4.856 4.862 0 2.793 2.188 4.862 4.856 4.862 2.682 0 4.856-2.058 4.856-4.862 0-2.819-2.177-4.862-4.856-4.862zm0 7.798c-1.467 0-2.73-1.22-2.73-2.947 0-1.753 1.266-2.947 2.73-2.947 1.467 0 2.73 1.194 2.73 2.947 0 1.738-1.263 2.947-2.73 2.947zm-12.608-6.313v2.058h4.919c-.151 1.154-.531 2.006-1.113 2.591-.721.724-1.834 1.511-3.795 1.511-3.023 0-5.387-2.451-5.387-5.486s2.364-5.486 5.387-5.486c1.632 0 2.821.647 3.704 1.473l1.453-1.459c-1.226-1.18-2.858-2.083-5.146-2.083-4.147 0-7.627 3.392-7.627 7.544 0 4.164 3.477 7.544 7.627 7.544 2.239 0 3.92-.735 5.248-2.12 1.354-1.359 1.782-3.277 1.782-4.825 0-.482-.037-.915-.114-1.282h-6.943c.003-.003.003.023.003.023zm51.57 1.602c-.406-1.092-1.632-3.098-4.147-3.098-2.492 0-4.564 1.969-4.564 4.862 0 2.73 2.049 4.862 4.805 4.862 2.214 0 3.502-1.359 4.033-2.157l-1.643-1.106c-.545.812-1.303 1.345-2.379 1.345-1.087 0-1.848-.496-2.353-1.473l6.474-2.693c0 .003-.227-.542-.227-.542zm-6.602 1.624c-.051-1.878 1.453-2.833 2.529-2.833.849 0 1.555.419 1.797 1.029l-4.326 1.804zm-5.26 4.711h2.126V12.331h-2.126v14.284zm-3.491-8.342h-.077c-.48-.573-1.391-1.092-2.555-1.092-2.415 0-4.641 2.135-4.641 4.876 0 2.73 2.214 4.839 4.641 4.839 1.15 0 2.075-.522 2.555-1.106h.077v.698c0 1.855-.988 2.856-2.58 2.856-1.303 0-2.112-.94-2.441-1.727l-1.848.775c.531 1.282 1.947 2.87 4.286 2.87 2.492 0 4.604-1.474 4.604-5.067v-8.724h-2.01v.801h-.011zm-2.441 6.718c-1.467 0-2.694-1.231-2.694-2.933 0-1.716 1.226-2.958 2.694-2.958 1.453 0 2.58 1.257 2.58 2.958.014 1.701-1.124 2.933-2.58 2.933zm27.748-12.66h-5.084v14.284h2.126v-5.409h2.96c2.353 0 4.666-1.713 4.666-4.432s-2.305-4.443-4.669-4.443zm.062 6.88h-3.023v-4.902h3.023c1.592 0 2.492 1.32 2.492 2.451 0 1.12-.911 2.451-2.492 2.451zm13.127-2.044c-1.544 0-3.136.687-3.795 2.183l1.885.787c.406-.787 1.149-1.055 1.935-1.055 1.102 0 2.215.661 2.24 1.841v.151c-.381-.217-1.215-.547-2.214-.547-2.035 0-4.099 1.117-4.099 3.212 0 1.918 1.669 3.149 3.529 3.149 1.427 0 2.214-.647 2.704-1.397h.077v1.106h2.05v-5.472c0-2.548-1.886-3.959-4.312-3.959zm-.266 7.824c-.696 0-1.67-.342-1.67-1.22 0-1.106 1.215-1.525 2.251-1.525.936 0 1.379.202 1.936.482a2.564 2.564 0 0 1-2.518 2.263zm12.054-7.519-2.441 6.196h-.077l-2.529-6.196h-2.287l3.794 8.661-2.162 4.814h2.214l5.839-13.475h-2.351zm-19.136 9.143h2.126V12.331h-2.126v14.284zM18.92 19.891l-3.984-4.035 3.981-4.055a685.318 685.318 0 0 0 5.447 3.022c1.355.738.666 1.687 0 2.046-.144.073-1.347.742-3.131 1.734l-.002.001-.905.504-1.407.783zM18.195 20.294l-3.819-3.868L1.613 29.424c.154-.047.317-.118.491-.215l.915-.506.028-.015a8760.07 8760.07 0 0 0 15.148-8.394zM.571 29.345C.197 29.089 0 28.555 0 27.88V3.937c0-.746.26-1.206.62-1.441l13.194 13.361L.571 29.344zM1.597 2.348l12.777 12.94 3.805-3.875A9915.597 9915.597 0 0 0 2.105 2.548a1.633 1.633 0 0 0-.508-.199z"/></symbol><symbol id="icon-hourglass" viewBox="0 0 32 32"><path fill="#f6f9f9" style="fill:var(--color8,#f6f9f9)" d="M18.926 17.565c4.232 3.796 6.725 7.448 7.028 12.782H6.046c.303-5.334 2.796-8.986 7.028-12.782l1.746-1.566-1.746-1.563C8.842 10.64 6.349 6.988 6.046 1.654h19.908c-.303 5.335-2.796 8.986-7.028 12.782l-1.746 1.563 1.746 1.566z"/><path fill="#2f4859" style="fill:var(--color24,#2f4859)" d="M5.855 2.77h20.291c.683 0 1.236-.497 1.236-1.109S26.829.552 26.146.552H5.855c-.683 0-1.236.497-1.236 1.109S5.172 2.77 5.855 2.77z"/><path fill="#f7be56" style="fill:var(--color25,#f7be56)" d="M11.892 23.95c-2.544 1.318-4.111 3.754-4.111 6.389h16.438c0-2.636-1.567-5.071-4.111-6.389L16.7 22.184v-9.633l2.41-1.249c1.648-.854 2.755-2.328 3.039-3.986.076-.445-.302-.849-.804-.849H10.657c-.502 0-.88.404-.804.849.284 1.658 1.391 3.132 3.039 3.986l2.577 1.335v9.46l-3.576 1.853z"/><path fill="#2f4859" style="fill:var(--color24,#2f4859)" d="M26.146 29.23H5.855c-.683 0-1.236.496-1.236 1.109s.553 1.109 1.236 1.109h20.291c.683 0 1.236-.497 1.236-1.109s-.553-1.109-1.236-1.109z"/></symbol><symbol id="icon-instagram" viewBox="0 0 30 32"><path fill="#18063c" style="fill:var(--color23,#18063c)" d="M14.629 0c1.956.074 3.981.074 5.937.149 1.746.074 3.353.372 4.889 1.337 1.956 1.263 3.143 3.121 3.562 5.498.21 1.412.28 2.898.349 4.31.07 3.121 0 6.242 0 9.362 0 1.635-.07 3.269-.559 4.83-.978 3.046-3.003 4.904-5.937 5.499-1.327.297-2.724.297-4.051.372-2.934.074-5.797 0-8.731 0-1.537 0-3.073-.074-4.54-.594-2.864-1.04-4.61-3.195-5.169-6.316C.1 23.035.1 21.549.03 20.137c-.07-3.121 0-6.242 0-9.362 0-1.635.07-3.269.559-4.83.978-3.046 3.003-4.904 5.937-5.498C7.853.15 9.25.15 10.577.075s2.654-.074 4.051-.074zm12.084 15.381c-.07 0 0 0 0 0-.07-1.263-.07-2.452-.07-3.715 0-1.189-.07-2.378-.209-3.567-.279-2.675-1.746-4.458-4.191-4.978-1.257-.297-2.654-.297-3.912-.297a125.84 125.84 0 0 0-7.474 0c-1.257 0-2.515.074-3.702.297-2.095.372-3.562 1.635-4.191 3.864-.21.743-.279 1.486-.349 2.229-.07 2.824-.07 5.647-.07 8.471 0 1.783.07 3.641.21 5.424.21 2.675 1.746 4.533 4.261 4.978 1.257.223 2.584.297 3.912.297 2.445.074 4.889 0 7.404 0 1.118 0 2.235-.074 3.353-.223 1.048-.074 2.026-.446 2.864-1.189 1.397-1.189 1.886-2.749 1.956-4.533.14-2.229.14-4.607.209-7.059z"/><path fill="#18063c" style="fill:var(--color23,#18063c)" d="M22.176 15.679c0 4.458-3.353 8.025-7.544 8.025s-7.544-3.567-7.544-8.099c0-4.384 3.423-7.95 7.614-7.95 4.121 0 7.474 3.567 7.474 8.025zm-7.544 5.202c2.654 0 4.889-2.378 4.889-5.201s-2.235-5.201-4.889-5.201c-2.724 0-4.889 2.378-4.889 5.201-.07 2.824 2.165 5.201 4.889 5.201zM24.195 6.845c0 .978-.768 1.816-1.746 1.816s-1.816-.838-1.746-1.816c0-.978.768-1.746 1.746-1.746s1.746.768 1.746 1.746z"/></symbol><symbol id="icon-line" viewBox="0 0 20 32"><path fill="none" stroke="#ff553e" style="stroke:var(--color2,#ff553e)" stroke-width=".842" d="M.421.435C5.383.358 14.024.573 8.894 2.05 2.482 3.896-2.098 8.51 3.398 7.587c4.397-.738 10.534-1.538 13.053-1.846 2.519-.538 6.046-.646 0 3.23-7.557 4.845-11.908 8.997-8.931 9.228s4.58-1.384 3.435 2.538c-1.145 3.922-2.519 6.69 3.893 10.843"/></symbol><symbol id="icon-linkedin" viewBox="0 0 34 32"><path fill="#18063c" style="fill:var(--color23,#18063c)" d="M32.654 19.102V31.16h-7.041V19.894c0-2.817-.968-4.753-3.521-4.753-1.936 0-3.08 1.32-3.609 2.552-.176.44-.264 1.056-.264 1.672v11.794h-7.041s.088-19.099 0-21.036h7.041v2.993s0 .088-.088.088h.088v-.088c.968-1.408 2.552-3.521 6.337-3.521 4.577 0 8.097 3.081 8.097 9.506zM3.961.002C1.585.002 0 1.586 0 3.611S1.496 7.22 3.873 7.22h.088c2.464 0 3.961-1.584 3.961-3.609C7.834 1.587 6.338.002 3.961.002zM.352 31.16h6.953V10.124H.352V31.16z"/></symbol><symbol id="icon-list" viewBox="0 0 28 32"><path fill="#f6f9f9" style="fill:var(--color8,#f6f9f9)" d="m27.745 6.761-11.95-.973-15.306.973v23.886c0 .416.337.754.754.754h25.748a.755.755 0 0 0 .754-.754V6.761z"/><path fill="#e7ecf1" style="fill:var(--color9,#e7ecf1)" d="m27.745 6.761-2.479-1.24v18.893a5.747 5.747 0 0 1-5.747 5.747H.488v.486c0 .416.337.754.754.754H26.99a.755.755 0 0 0 .754-.754V6.761z"/><path fill="#61a2f9" style="fill:var(--color14,#61a2f9)" d="M26.992 2.357H1.244a.754.754 0 0 0-.754.754v3.65h27.256v-3.65a.754.754 0 0 0-.754-.754z"/><path fill="#5490f9" style="fill:var(--color15,#5490f9)" d="M26.992 2.357h-1.725v4.404h2.479v-3.65a.754.754 0 0 0-.754-.754z"/><path fill="#dae4ea" style="fill:var(--color12,#dae4ea)" d="M4.342 4.748h-.424a.75.75 0 0 1-.751-.751V1.35a.75.75 0 0 1 .751-.751h.424a.75.75 0 0 1 .751.751v2.647a.75.75 0 0 1-.751.751zM9.335 4.748h-.424a.75.75 0 0 1-.751-.751V1.35a.75.75 0 0 1 .751-.751h.424a.75.75 0 0 1 .751.751v2.647a.75.75 0 0 1-.751.751zM14.329 4.748h-.424a.75.75 0 0 1-.751-.751V1.35a.75.75 0 0 1 .751-.751h.424a.75.75 0 0 1 .751.751v2.647a.75.75 0 0 1-.751.751zM19.323 4.748h-.424a.75.75 0 0 1-.751-.751V1.35a.75.75 0 0 1 .751-.751h.424a.75.75 0 0 1 .751.751v2.647a.75.75 0 0 1-.751.751zM24.316 4.748h-.424a.75.75 0 0 1-.751-.751V1.35a.75.75 0 0 1 .751-.751h.424a.75.75 0 0 1 .751.751v2.647a.75.75 0 0 1-.751.751zM8.84 12.743v-1.09c0-.134.109-.243.243-.243h13.77c.134 0 .243.109.243.243v1.09a.243.243 0 0 1-.243.243H9.083a.243.243 0 0 1-.243-.243zM8.84 15.897v-1.09c0-.134.109-.243.243-.243h13.77c.134 0 .243.109.243.243v1.09a.243.243 0 0 1-.243.243H9.083a.243.243 0 0 1-.243-.243zM8.84 19.052v-1.09c0-.134.109-.243.243-.243h13.77c.134 0 .243.109.243.243v1.09a.243.243 0 0 1-.243.243H9.083a.243.243 0 0 1-.243-.243zM8.84 22.206v-1.09c0-.134.109-.243.243-.243h13.77c.134 0 .243.109.243.243v1.09a.243.243 0 0 1-.243.243H9.083a.243.243 0 0 1-.243-.243zM8.84 25.36v-1.09c0-.134.109-.243.243-.243h13.77c.134 0 .243.109.243.243v1.09a.243.243 0 0 1-.243.243H9.083a.243.243 0 0 1-.243-.243zM5.137 12.743v-1.09c0-.134.109-.243.243-.243h1.357c.134 0 .243.109.243.243v1.09a.243.243 0 0 1-.243.243H5.38a.243.243 0 0 1-.243-.243zM5.137 15.897v-1.09c0-.134.109-.243.243-.243h1.357c.134 0 .243.109.243.243v1.09a.243.243 0 0 1-.243.243H5.38a.243.243 0 0 1-.243-.243zM5.137 19.052v-1.09c0-.134.109-.243.243-.243h1.357c.134 0 .243.109.243.243v1.09a.243.243 0 0 1-.243.243H5.38a.243.243 0 0 1-.243-.243zM5.137 22.206v-1.09c0-.134.109-.243.243-.243h1.357c.134 0 .243.109.243.243v1.09a.243.243 0 0 1-.243.243H5.38a.243.243 0 0 1-.243-.243zM5.137 25.36v-1.09c0-.134.109-.243.243-.243h1.357c.134 0 .243.109.243.243v1.09a.243.243 0 0 1-.243.243H5.38a.243.243 0 0 1-.243-.243z"/></symbol><symbol id="icon-logo" viewBox="0 0 32 32"><path fill="#ff553e" style="fill:var(--color2,#ff553e)" d="M17.477 28.88H8.824a6.554 6.554 0 0 1-6.554-6.554V8.889a6.554 6.554 0 0 1 6.554-6.554h10.544a14.116 14.116 0 0 0-3.406.759c-1.552.56-2.814 1.402-3.786 2.524s-1.458 2.467-1.458 4.038c0 1.682.412 3.048 1.235 4.092.821 1.047 1.813 1.832 2.973 2.354 1.157.525 2.653 1.047 4.485 1.571 1.496.449 2.664.842 3.506 1.178.84.336 1.542.805 2.104 1.402.56.597.839 1.364.839 2.298 0 1.383-.495 2.459-1.485 3.223-.99.767-2.365 1.149-4.122 1.149-1.945 0-3.43-.328-4.458-.982s-1.542-1.542-1.542-2.664c0-.821.215-1.458.646-1.907s.646-.692.646-.729c0-.186-.234-.449-.702-.786s-1.001-.506-1.598-.506c-1.047 0-1.897.336-2.551 1.009s-.982 1.553-.982 2.637c0 1.907.934 3.385 2.803 4.429 1.356.767 3.013 1.246 4.961 1.455z"/><path fill="#ff553e" style="fill:var(--color2,#ff553e)" d="M22.506 0h-13.8C3.906 0-.001 3.907-.001 8.707v13.8c0 4.803 3.907 8.706 8.707 8.706h13.8c4.803 0 8.709-3.907 8.709-8.706v-13.8c0-4.8-3.907-8.707-8.709-8.707zm7.964 22.506a7.962 7.962 0 0 1-7.961 7.961H8.707a7.962 7.962 0 0 1-7.961-7.961v-13.8A7.962 7.962 0 0 1 8.707.745h13.8c1.875 0 3.597.654 4.959 1.743 1.55 1.496 2.572 4.003 1.415 6.514-.153.422-.382.81-.686 1.16-.616.71-1.431 1.065-2.44 1.065-.6 0-1.13-.169-1.598-.506s-.702-.597-.702-.786c0-.038.151-.186.449-.449.299-.261.57-.57.815-.926.242-.355.366-.775.366-1.262-.075-1.009-.581-1.795-1.515-2.354-.936-.56-2.039-.842-3.309-.842-1.421 0-2.664.328-3.729.982s-1.598 1.561-1.598 2.72c0 1.047.223 1.878.673 2.494s1.122 1.114 2.018 1.485c.896.374 2.317.88 4.262 1.515 1.98.635 3.533 1.224 4.655 1.768a7.007 7.007 0 0 1 2.341 1.792l.024.03c1.044 1.256 1.566 2.863 1.566 4.496v1.122z"/></symbol><symbol id="icon-mob-line" viewBox="0 0 23 32"><path fill="#d26d60" style="fill:var(--color26,#d26d60)" d="M14.779 15.994c2.494 5.123 5.292 9.735 7.113 12.422l.835-.566c-1.796-2.651-4.57-7.221-7.041-12.298C13.21 10.466 11.062 4.917 10.481.297L9.48.423c.602 4.788 2.81 10.456 5.299 15.57zM.434 28.632c8.353-1.183 15.288 1.485 17.667 2.934l.525-.862c-2.552-1.554-9.721-4.29-18.334-3.071l.141.999z"/></symbol><symbol id="icon-mob-nav" viewBox="0 0 135 32"><path fill="#fff" style="fill:var(--color1,#fff)" d="M.633 10.393C.633 4.674 5.269.037 10.989.037h112.789c5.72 0 10.355 4.636 10.355 10.356v10.701c0 5.719-4.636 10.356-10.355 10.356H10.989C5.27 31.45.633 26.814.633 21.094V10.393z"/><path fill="#ff553e" style="fill:var(--color2,#ff553e)" d="M8.486 12.378a4.487 4.487 0 0 1 4.487-4.487h6.731a4.487 4.487 0 0 1 4.487 4.487v6.731a4.487 4.487 0 0 1-4.487 4.487h-6.731a4.487 4.487 0 0 1-4.487-4.487v-6.731z"/><path fill="#fff" style="fill:var(--color1,#fff)" d="M17.648 17.379v-.327h-.982v-.982h.982v.654h.654v.654h-.327v.654h-.654v.654h-.654v-.982h.654v-.327h.327zm1.636 1.309h-1.309v-.654h.654v-.654h.654v1.309zm-5.889-5.89h2.618v2.618h-2.618v-2.618zm.654.655v1.309h1.309v-1.309h-1.309zm2.618-.655h2.618v2.618h-2.618v-2.618zm.654.655v1.309h1.309v-1.309h-1.309zm-3.926 2.617h2.618v2.618h-2.618V16.07zm.654.655v1.309h1.309v-1.309h-1.309zm4.254-.655h.982v.654h-.982v-.654zm-3.927-2.29h.654v.654h-.654v-.654zm0 3.272h.654v.654h-.654v-.654zm3.272-3.272h.654v.654h-.654v-.654z"/><path fill="#ff553e" style="fill:var(--color2,#ff553e)" opacity=".05" d="M42.253 12.378a4.487 4.487 0 0 1 4.487-4.487h6.731a4.487 4.487 0 0 1 4.487 4.487v6.731a4.487 4.487 0 0 1-4.487 4.487H46.74a4.487 4.487 0 0 1-4.487-4.487v-6.731z"/><path fill="#ff553e" style="fill:var(--color2,#ff553e)" d="M47.49 17.379v1.636h-.654v-6.217h6.262a.164.164 0 0 1 .143.246l-1.169 2.046 1.169 2.046c.014.025.022.053.021.082s-.008.057-.022.082a.164.164 0 0 1-.142.082H47.49zm0-3.926v3.272h4.762l-.935-1.636.935-1.636H47.49z"/><path fill="#ff553e" style="fill:var(--color2,#ff553e)" opacity=".05" d="M76.022 12.378a4.487 4.487 0 0 1 4.487-4.487h6.731a4.488 4.488 0 0 1 4.488 4.487v6.731a4.487 4.487 0 0 1-4.488 4.487h-6.731a4.487 4.487 0 0 1-4.487-4.487v-6.731z"/><path fill="#ff553e" style="fill:var(--color2,#ff553e)" d="M85.511 12.798h1.309c.087 0 .17.035.232.096s.096.145.096.231v5.235a.327.327 0 0 1-.328.327h-5.89a.327.327 0 0 1-.327-.327v-5.235a.327.327 0 0 1 .327-.327h1.309v-.654h.654v.654h1.964v-.654h.654v.654zm-.655.655h-1.964v.654h-.654v-.654h-.982v1.309h5.235v-1.309h-.981v.654h-.654v-.654zm1.636 1.963h-5.235v2.618h5.235v-2.618z"/><path fill="#ff553e" style="fill:var(--color2,#ff553e)" opacity=".05" d="M109.789 12.378a4.486 4.486 0 0 1 4.487-4.487h6.732a4.487 4.487 0 0 1 4.487 4.487v6.731a4.486 4.486 0 0 1-4.487 4.487h-6.732a4.487 4.487 0 0 1-4.487-4.487v-6.731z"/><path fill="#ff553e" style="fill:var(--color2,#ff553e)" d="M115.024 19.015a2.618 2.618 0 0 1 5.235 0h-.654a1.964 1.964 0 0 0-3.926 0h-.655zm2.618-2.945a1.963 1.963 0 1 1 0-3.925 1.963 1.963 0 0 1 0 3.925zm0-.654a1.309 1.309 0 1 0 0-2.618 1.309 1.309 0 0 0 0 2.618z"/></symbol><symbol id="icon-mob-stat" viewBox="0 0 49 32"><path fill="#fff" style="fill:var(--color1,#fff)" d="M.236 2.809A2.651 2.651 0 0 1 2.887.158h43.447a2.651 2.651 0 0 1 2.651 2.651v26.513a2.651 2.651 0 0 1-2.651 2.651H2.887a2.651 2.651 0 0 1-2.651-2.651V2.809z"/><path fill="#d26d60" style="fill:var(--color26,#d26d60)" opacity=".3" d="M7.163 9.651v16.165h-.279V9.651h.279zM12.552 9.651v16.165h-.279V9.651h.279zM17.939 9.651v16.165h-.279V9.651h.279zM24.611 9.651v16.165h-.279V9.651h.279zM31.025 9.651v16.165h-.279V9.651h.279zM37.696 9.651v16.165h-.279V9.651h.279z"/><path fill="#ffc6be" style="fill:var(--color27,#ffc6be)" opacity=".2" d="M45.394 25.923H3.828v-4.468s.154-1.131 1.75-1.131 1.674-.191 2.394-.753 2.072.251 3.198 0 1.037-1.699 3.023-1.556 1.829-1.659 4.151-2.063c2.323-.404 5.677.204 6.969-.724s2.101-1.71 5.502-1.71 3.374-.447 6.043-1.77 3.677.036 5.418.681 3.118-1 3.118-1v14.493z"/><path style="fill:var(--color28,#000)" opacity=".6" d="M4.433 5.438a.649.649 0 0 1-.258-.049c-.076-.033-.135-.079-.18-.141s-.067-.133-.068-.217h.293a.19.19 0 0 0 .059.133.213.213 0 0 0 .149.049.228.228 0 0 0 .15-.045.15.15 0 0 0 .055-.121c0-.04-.012-.074-.037-.1s-.056-.046-.094-.061a1.15 1.15 0 0 0-.152-.051 1.752 1.752 0 0 1-.217-.076.402.402 0 0 1-.143-.115.337.337 0 0 1-.059-.207.364.364 0 0 1 .231-.348.6.6 0 0 1 .25-.049c.141 0 .255.035.342.104a.379.379 0 0 1 .147.285H4.6a.153.153 0 0 0-.061-.115.22.22 0 0 0-.147-.047.197.197 0 0 0-.129.041c-.031.027-.047.067-.047.119 0 .036.012.067.035.092a.342.342 0 0 0 .09.059c.036.014.087.031.152.051.089.026.161.052.217.078s.104.065.145.117c.04.052.061.12.061.205 0 .073-.019.141-.057.203s-.093.113-.166.15a.57.57 0 0 1-.26.055zM6.159 4.86a.683.683 0 0 1-.008.106H5.36c.006.078.034.139.082.184s.107.066.178.066a.224.224 0 0 0 .217-.131h.295a.497.497 0 0 1-.18.258.531.531 0 0 1-.326.1.581.581 0 0 1-.281-.068.5.5 0 0 1-.193-.197.604.604 0 0 1-.068-.293c0-.112.023-.21.068-.295s.109-.15.191-.195a.567.567 0 0 1 .283-.068c.103 0 .195.022.275.066a.453.453 0 0 1 .189.189.555.555 0 0 1 .068.279zm-.283-.078a.215.215 0 0 0-.076-.168.268.268 0 0 0-.182-.064.248.248 0 0 0-.172.063.264.264 0 0 0-.084.17h.514zM6.773 5.442a.58.58 0 0 1-.238-.047.444.444 0 0 1-.168-.131.329.329 0 0 1-.066-.182h.275a.15.15 0 0 0 .061.104.221.221 0 0 0 .135.041c.052 0 .092-.01.121-.031a.095.095 0 0 0 .045-.08c0-.035-.018-.061-.055-.078a.932.932 0 0 0-.17-.059 1.514 1.514 0 0 1-.199-.061.357.357 0 0 1-.133-.096.258.258 0 0 1-.055-.174c0-.06.017-.115.051-.164a.357.357 0 0 1 .148-.117.557.557 0 0 1 .229-.043c.129 0 .232.033.309.098.077.064.119.15.127.26h-.262a.138.138 0 0 0-.055-.102.193.193 0 0 0-.127-.039.206.206 0 0 0-.115.027.088.088 0 0 0-.039.076c0 .036.018.064.055.084a.967.967 0 0 0 .17.057c.078.02.143.04.193.061s.094.053.131.098a.26.26 0 0 1 .059.172.282.282 0 0 1-.053.168.338.338 0 0 1-.148.117.576.576 0 0 1-.225.041zM7.837 5.442a.58.58 0 0 1-.238-.047.444.444 0 0 1-.168-.131.329.329 0 0 1-.066-.182h.275a.15.15 0 0 0 .061.104.219.219 0 0 0 .135.041c.052 0 .092-.01.121-.031a.095.095 0 0 0 .045-.08c0-.035-.018-.061-.055-.078a.932.932 0 0 0-.17-.059 1.514 1.514 0 0 1-.199-.061.357.357 0 0 1-.133-.096.263.263 0 0 1-.055-.174c0-.06.017-.115.051-.164a.353.353 0 0 1 .149-.117.557.557 0 0 1 .229-.043c.129 0 .232.033.309.098.077.064.119.15.127.26h-.262a.138.138 0 0 0-.055-.102.193.193 0 0 0-.127-.039.206.206 0 0 0-.115.027.088.088 0 0 0-.039.076c0 .036.018.064.055.084a.938.938 0 0 0 .17.057c.078.02.143.04.193.061s.094.053.131.098a.26.26 0 0 1 .059.172.282.282 0 0 1-.053.168.336.336 0 0 1-.149.117.576.576 0 0 1-.225.041zM8.626 4.213a.171.171 0 0 1-.121-.045c-.031-.031-.047-.07-.047-.115s.016-.083.047-.113c.033-.031.073-.047.121-.047s.088.016.119.047c.033.03.049.068.049.113s-.016.084-.049.115a.165.165 0 0 1-.119.045zm.135.129v1.082h-.274V4.342h.274zM9.512 5.442a.518.518 0 0 1-.478-.265c-.047-.085-.07-.182-.07-.293s.024-.208.072-.293a.509.509 0 0 1 .201-.195c.085-.047.179-.07.283-.07s.199.023.283.07a.498.498 0 0 1 .199.195c.05.085.074.182.074.293s-.025.208-.076.293a.513.513 0 0 1-.203.197.588.588 0 0 1-.285.068zm0-.238a.27.27 0 0 0 .244-.144.366.366 0 0 0 .039-.176c0-.103-.027-.182-.082-.236-.053-.056-.119-.084-.197-.084s-.144.028-.197.084c-.052.055-.078.133-.078.236s.025.182.076.238a.257.257 0 0 0 .195.082zM10.877 4.327c.129 0 .233.041.313.123a.466.466 0 0 1 .119.34v.635h-.274v-.598c0-.086-.021-.152-.064-.197a.227.227 0 0 0-.176-.07.236.236 0 0 0-.18.07c-.043.046-.064.111-.064.197v.598h-.274V4.343h.274v.135a.366.366 0 0 1 .139-.109.435.435 0 0 1 .188-.041zM12.515 5.442a.518.518 0 0 1-.478-.265c-.047-.085-.07-.182-.07-.293s.024-.208.072-.293a.509.509 0 0 1 .201-.195c.085-.047.179-.07.283-.07s.199.023.283.07a.498.498 0 0 1 .199.195c.05.085.074.182.074.293s-.025.208-.076.293a.52.52 0 0 1-.203.197.588.588 0 0 1-.285.068zm0-.238a.27.27 0 0 0 .244-.144.366.366 0 0 0 .039-.176c0-.103-.027-.182-.082-.236-.053-.056-.119-.084-.197-.084s-.144.028-.197.084c-.052.055-.078.133-.078.236s.025.182.076.238a.257.257 0 0 0 .195.082zM13.731 5.173l.274-.83h.291l-.4 1.082h-.332l-.399-1.082h.293l.274.83zM15.456 4.86a.683.683 0 0 1-.008.106h-.791c.007.078.034.139.082.184s.107.066.178.066a.224.224 0 0 0 .217-.131h.295a.497.497 0 0 1-.18.258.531.531 0 0 1-.326.1.581.581 0 0 1-.281-.068.5.5 0 0 1-.193-.197.604.604 0 0 1-.068-.293c0-.112.023-.21.068-.295s.109-.15.191-.195a.567.567 0 0 1 .283-.068c.103 0 .195.022.275.066a.461.461 0 0 1 .19.189.555.555 0 0 1 .068.279zm-.284-.078a.215.215 0 0 0-.076-.168.268.268 0 0 0-.182-.064.248.248 0 0 0-.172.063.264.264 0 0 0-.084.17h.514zM15.929 4.51a.393.393 0 0 1 .137-.135.382.382 0 0 1 .195-.049v.287h-.072c-.086 0-.151.02-.195.061-.043.04-.064.111-.064.211v.539h-.274V4.342h.274v.168zM16.896 5.173l.274-.83h.291l-.4 1.082h-.332l-.399-1.082h.293l.273.83zM17.753 4.213a.171.171 0 0 1-.121-.045c-.031-.031-.047-.07-.047-.115s.016-.083.047-.113c.033-.031.073-.047.121-.047s.088.016.119.047c.033.03.049.068.049.113s-.016.084-.049.115a.165.165 0 0 1-.119.045zm.135.129v1.082h-.273V4.342h.273zM19.165 4.86a.683.683 0 0 1-.008.106h-.791c.006.078.034.139.082.184s.107.066.178.066a.224.224 0 0 0 .217-.131h.295a.497.497 0 0 1-.18.258.531.531 0 0 1-.326.1.581.581 0 0 1-.281-.068.5.5 0 0 1-.193-.197.604.604 0 0 1-.068-.293c0-.112.023-.21.068-.295s.109-.15.191-.195a.567.567 0 0 1 .283-.068c.103 0 .195.022.275.066a.453.453 0 0 1 .189.189.555.555 0 0 1 .068.279zm-.284-.078a.215.215 0 0 0-.076-.168.266.266 0 0 0-.182-.064.248.248 0 0 0-.172.063.264.264 0 0 0-.084.17h.514zM20.865 4.342l-.317 1.082h-.295l-.197-.756-.197.756h-.297l-.318-1.082h.277l.191.824.207-.824h.289l.203.822.191-.822h.262z"/><path style="fill:var(--color28,#000)" opacity=".7" d="M38.644 4.63v.13h-.258v.84h-.159v-.84h-.259v-.13h.677zM39.139 5.613c-.073 0-.138-.016-.197-.049s-.105-.08-.138-.14c-.034-.06-.05-.13-.05-.209s.017-.147.052-.208c.034-.061.081-.107.141-.14s.126-.049.2-.049.14.016.2.049.107.079.141.14.052.13.052.208c0 .078-.018.147-.053.208s-.084.107-.145.141a.415.415 0 0 1-.201.049zm0-.139a.232.232 0 0 0 .202-.117c.022-.039.033-.087.033-.142s-.011-.103-.032-.141a.219.219 0 0 0-.199-.117.212.212 0 0 0-.196.117.303.303 0 0 0-.031.141c0 .083.021.147.063.193a.212.212 0 0 0 .161.067zM39.642 5.212c0-.077.016-.146.047-.205a.356.356 0 0 1 .582-.067v-.371h.16v1.033h-.16v-.116a.293.293 0 0 1-.109.092.335.335 0 0 1-.158.036.355.355 0 0 1-.184-.05.367.367 0 0 1-.131-.142.455.455 0 0 1-.047-.208zm.629.003a.267.267 0 0 0-.034-.138.221.221 0 0 0-.199-.12c-.041 0-.079.01-.114.031s-.064.049-.086.088c-.021.038-.032.084-.032.137s.011.1.032.14a.24.24 0 0 0 .086.092c.036.02.075.031.114.031a.228.228 0 0 0 .199-.12.287.287 0 0 0 .034-.14zM40.588 5.212c0-.077.016-.146.048-.205a.349.349 0 0 1 .315-.188.33.33 0 0 1 .267.124v-.112h.16V5.6h-.16v-.114c-.027.036-.064.067-.11.091s-.099.036-.159.036a.342.342 0 0 1-.312-.192.443.443 0 0 1-.048-.208zm.629.003a.267.267 0 0 0-.034-.138.221.221 0 0 0-.199-.12c-.041 0-.079.01-.114.031s-.064.049-.086.088c-.021.038-.032.084-.032.137s.011.1.032.14a.24.24 0 0 0 .086.092c.036.02.075.031.114.031a.228.228 0 0 0 .199-.12.287.287 0 0 0 .034-.14zM42.278 4.831l-.471 1.13h-.165l.156-.374-.303-.756h.177l.217.586.224-.586h.165z"/><path fill="#d26d60" style="fill:var(--color26,#d26d60)" d="m43.634 5.11.288-.288.082.082-.37.37-.37-.37.082-.082.288.288z"/><path style="fill:var(--color28,#000)" opacity=".56" d="M3.881 27.439v-.116h.262v1.009h-.128v-.893h-.134zM4.361 27.817c0-.16.026-.285.078-.374s.143-.135.274-.135c.129 0 .22.045.272.135s.078.214.078.374c0 .163-.026.289-.078.38s-.143.135-.272.135c-.13 0-.221-.045-.274-.135s-.078-.217-.078-.38zm.576 0c0-.081-.006-.149-.017-.205s-.032-.102-.066-.137c-.033-.034-.08-.052-.142-.052s-.112.017-.145.052c-.033.034-.054.08-.066.137s-.015.124-.015.205c0 .084.005.154.015.211s.033.102.066.137c.034.034.082.052.145.052s.11-.017.142-.052c.033-.034.055-.08.066-.137s.017-.127.017-.211zM5.299 28.34c-.024 0-.045-.008-.061-.025s-.025-.037-.025-.061.008-.045.025-.061.037-.025.061-.025c.023 0 .043.008.059.025s.025.037.025.061-.008.045-.025.061-.035.025-.059.025zm0-.597c-.024 0-.045-.008-.061-.025s-.025-.037-.025-.061.008-.045.025-.061.037-.025.061-.025c.023 0 .043.008.059.025s.025.037.025.061-.008.045-.025.061-.035.025-.059.025zM5.534 27.817c0-.16.026-.285.078-.374s.143-.135.274-.135c.129 0 .22.045.272.135s.078.214.078.374c0 .163-.026.289-.078.38s-.143.135-.272.135c-.13 0-.221-.045-.274-.135s-.078-.217-.078-.38zm.577 0c0-.081-.006-.149-.017-.205s-.032-.102-.066-.137c-.033-.034-.08-.052-.142-.052s-.112.017-.145.052c-.033.034-.054.08-.066.137s-.015.124-.015.205c0 .084.005.154.015.211s.033.102.066.137c.034.034.082.052.145.052s.11-.017.142-.052c.034-.034.055-.08.066-.137s.017-.127.017-.211zM6.411 27.817c0-.16.026-.285.078-.374s.143-.135.274-.135c.129 0 .22.045.272.135s.078.214.078.374c0 .163-.026.289-.078.38s-.143.135-.272.135c-.13 0-.221-.045-.274-.135s-.078-.217-.078-.38zm.576 0c0-.081-.006-.149-.017-.205s-.032-.102-.066-.137c-.033-.034-.08-.052-.142-.052s-.112.017-.145.052c-.033.034-.054.08-.066.137s-.015.124-.015.205c0 .084.005.154.015.211s.033.102.066.137c.033.034.082.052.145.052s.11-.017.142-.052c.034-.034.055-.08.066-.137s.017-.127.017-.211zM10.295 27.439v-.116h.262v1.009h-.128v-.893h-.134zM10.776 27.817c0-.16.026-.285.078-.374s.143-.135.274-.135c.129 0 .22.045.272.135s.078.214.078.374c0 .163-.026.289-.078.38s-.143.135-.272.135c-.13 0-.221-.045-.274-.135s-.078-.217-.078-.38zm.576 0c0-.081-.006-.149-.017-.205s-.032-.102-.066-.137c-.033-.034-.08-.052-.142-.052s-.112.017-.145.052c-.033.034-.054.08-.066.137s-.015.124-.015.205c0 .084.005.154.015.211s.033.102.066.137c.034.034.082.052.145.052s.11-.017.142-.052c.034-.034.055-.08.066-.137s.017-.127.017-.211zM11.714 28.34c-.024 0-.045-.008-.061-.025s-.025-.037-.025-.061.008-.045.025-.061.037-.025.061-.025c.023 0 .043.008.059.025s.025.037.025.061-.008.045-.025.061-.035.025-.059.025zm0-.597c-.024 0-.045-.008-.061-.025s-.025-.037-.025-.061.008-.045.025-.061.037-.025.061-.025c.023 0 .043.008.059.025s.025.037.025.061-.008.045-.025.061-.035.025-.059.025zM11.949 27.817c0-.16.026-.285.078-.374s.143-.135.274-.135c.129 0 .22.045.272.135s.078.214.078.374c0 .163-.026.289-.078.38s-.143.135-.272.135c-.13 0-.221-.045-.274-.135s-.078-.217-.078-.38zm.576 0c0-.081-.006-.149-.017-.205s-.032-.102-.066-.137c-.033-.034-.08-.052-.142-.052s-.112.017-.145.052c-.033.034-.054.08-.066.137s-.015.124-.015.205c0 .084.005.154.015.211s.033.102.066.137c.034.034.082.052.145.052s.11-.017.142-.052c.034-.034.055-.08.066-.137s.017-.127.017-.211zM12.825 27.817c0-.16.026-.285.078-.374s.143-.135.274-.135c.129 0 .22.045.272.135s.078.214.078.374c0 .163-.026.289-.078.38s-.143.135-.272.135c-.13 0-.221-.045-.274-.135s-.078-.217-.078-.38zm.577 0c0-.081-.006-.149-.017-.205s-.032-.102-.066-.137c-.033-.034-.08-.052-.142-.052s-.112.017-.145.052c-.033.034-.054.08-.066.137s-.015.124-.015.205c0 .084.005.154.015.211s.033.102.066.137c.034.034.082.052.145.052s.11-.017.142-.052c.033-.034.055-.08.066-.137s.017-.127.017-.211zM16.709 27.439v-.116h.262v1.009h-.128v-.893h-.134zM17.19 27.817c0-.16.026-.285.078-.374s.143-.135.274-.135c.129 0 .22.045.272.135s.078.214.078.374c0 .163-.026.289-.078.38s-.143.135-.272.135c-.13 0-.221-.045-.274-.135s-.078-.217-.078-.38zm.576 0c0-.081-.006-.149-.017-.205s-.032-.102-.066-.137c-.033-.034-.08-.052-.142-.052s-.112.017-.145.052c-.033.034-.054.08-.066.137s-.015.124-.015.205c0 .084.005.154.015.211s.033.102.066.137c.033.034.082.052.145.052s.11-.017.142-.052c.033-.034.055-.08.066-.137s.017-.127.017-.211zM18.128 28.34c-.024 0-.045-.008-.061-.025s-.025-.037-.025-.061.008-.045.025-.061.037-.025.061-.025c.023 0 .043.008.059.025s.025.037.025.061-.008.045-.025.061-.035.025-.059.025zm0-.597c-.024 0-.045-.008-.061-.025s-.025-.037-.025-.061.008-.045.025-.061.037-.025.061-.025c.023 0 .043.008.059.025s.025.037.025.061-.008.045-.025.061-.035.025-.059.025zM18.363 27.817c0-.16.026-.285.078-.374s.143-.135.273-.135c.129 0 .22.045.272.135s.078.214.078.374c0 .163-.026.289-.078.38s-.143.135-.272.135c-.13 0-.221-.045-.273-.135s-.078-.217-.078-.38zm.577 0c0-.081-.006-.149-.017-.205s-.032-.102-.066-.137c-.033-.034-.08-.052-.142-.052s-.112.017-.145.052c-.033.034-.054.08-.066.137s-.015.124-.015.205c0 .084.005.154.015.211s.033.102.066.137c.034.034.082.052.145.052s.11-.017.142-.052c.033-.034.055-.08.066-.137s.017-.127.017-.211zM19.24 27.817c0-.16.026-.285.078-.374s.143-.135.273-.135c.129 0 .22.045.272.135s.078.214.078.374c0 .163-.026.289-.078.38s-.143.135-.272.135c-.13 0-.221-.045-.273-.135s-.078-.217-.078-.38zm.576 0c0-.081-.006-.149-.017-.205s-.032-.102-.066-.137c-.033-.034-.08-.052-.142-.052s-.112.017-.145.052c-.033.034-.054.08-.066.137s-.015.124-.015.205c0 .084.005.154.015.211s.033.102.066.137c.034.034.082.052.145.052s.11-.017.142-.052c.034-.034.055-.08.066-.137s.017-.127.017-.211zM23.124 27.439v-.116h.262v1.009h-.128v-.893h-.134zM23.605 27.817c0-.16.026-.285.078-.374s.143-.135.273-.135c.129 0 .22.045.272.135s.078.214.078.374c0 .163-.026.289-.078.38s-.143.135-.272.135c-.13 0-.221-.045-.273-.135s-.078-.217-.078-.38zm.576 0c0-.081-.006-.149-.017-.205s-.032-.102-.066-.137c-.033-.034-.08-.052-.142-.052s-.112.017-.145.052c-.033.034-.054.08-.066.137s-.015.124-.015.205c0 .084.005.154.015.211s.033.102.066.137c.034.034.082.052.145.052s.11-.017.142-.052c.033-.034.055-.08.066-.137s.017-.127.017-.211zM24.542 28.34c-.024 0-.045-.008-.061-.025s-.025-.037-.025-.061.008-.045.025-.061.037-.025.061-.025c.023 0 .043.008.059.025s.025.037.025.061-.008.045-.025.061-.035.025-.059.025zm0-.597c-.024 0-.045-.008-.061-.025s-.025-.037-.025-.061.008-.045.025-.061.037-.025.061-.025c.023 0 .043.008.059.025s.025.037.025.061-.008.045-.025.061-.035.025-.059.025zM24.778 27.817c0-.16.026-.285.078-.374s.143-.135.273-.135c.129 0 .22.045.272.135s.078.214.078.374c0 .163-.026.289-.078.38s-.143.135-.272.135c-.13 0-.221-.045-.273-.135s-.078-.217-.078-.38zm.576 0c0-.081-.006-.149-.017-.205s-.032-.102-.066-.137c-.033-.034-.08-.052-.142-.052s-.112.017-.145.052c-.033.034-.054.08-.066.137s-.015.124-.015.205c0 .084.005.154.015.211s.033.102.066.137c.034.034.082.052.145.052s.11-.017.142-.052c.034-.034.055-.08.066-.137s.017-.127.017-.211zM25.654 27.817c0-.16.026-.285.078-.374s.143-.135.274-.135c.129 0 .22.045.272.135s.078.214.078.374c0 .163-.026.289-.078.38s-.143.135-.272.135c-.13 0-.221-.045-.274-.135s-.078-.217-.078-.38zm.577 0c0-.081-.006-.149-.017-.205s-.032-.102-.066-.137c-.033-.034-.08-.052-.142-.052s-.112.017-.145.052c-.033.034-.054.08-.066.137s-.015.124-.015.205c0 .084.005.154.015.211s.033.102.066.137c.033.034.082.052.145.052s.11-.017.142-.052c.034-.034.055-.08.066-.137s.017-.127.017-.211zM29.539 27.439v-.116h.262v1.009h-.128v-.893h-.134zM30.02 27.817c0-.16.026-.285.078-.374s.143-.135.273-.135c.129 0 .22.045.272.135s.078.214.078.374c0 .163-.026.289-.078.38s-.143.135-.272.135c-.13 0-.221-.045-.273-.135s-.078-.217-.078-.38zm.576 0c0-.081-.006-.149-.017-.205s-.032-.102-.066-.137c-.033-.034-.08-.052-.142-.052s-.112.017-.145.052c-.033.034-.054.08-.066.137s-.015.124-.015.205c0 .084.005.154.015.211s.033.102.066.137c.034.034.082.052.145.052s.11-.017.142-.052c.034-.034.055-.08.066-.137s.017-.127.017-.211zM30.957 28.34c-.024 0-.045-.008-.061-.025s-.025-.037-.025-.061.008-.045.025-.061.037-.025.061-.025c.023 0 .043.008.059.025s.025.037.025.061-.008.045-.025.061-.035.025-.059.025zm0-.597c-.024 0-.045-.008-.061-.025s-.025-.037-.025-.061.008-.045.025-.061.037-.025.061-.025c.023 0 .043.008.059.025s.025.037.025.061-.008.045-.025.061-.035.025-.059.025zM31.193 27.817c0-.16.026-.285.078-.374s.143-.135.273-.135c.129 0 .22.045.272.135s.078.214.078.374c0 .163-.026.289-.078.38s-.143.135-.272.135c-.13 0-.221-.045-.273-.135s-.078-.217-.078-.38zm.576 0c0-.081-.006-.149-.017-.205s-.032-.102-.066-.137c-.033-.034-.08-.052-.142-.052s-.112.017-.145.052c-.033.034-.054.08-.066.137s-.015.124-.015.205c0 .084.005.154.015.211s.033.102.066.137c.034.034.082.052.145.052s.11-.017.142-.052c.034-.034.055-.08.066-.137s.017-.127.017-.211zM32.069 27.817c0-.16.026-.285.078-.374s.143-.135.274-.135c.129 0 .22.045.272.135s.078.214.078.374c0 .163-.026.289-.078.38s-.143.135-.272.135c-.13 0-.221-.045-.274-.135s-.078-.217-.078-.38zm.576 0c0-.081-.006-.149-.017-.205s-.032-.102-.066-.137c-.033-.034-.08-.052-.142-.052s-.112.017-.145.052c-.033.034-.054.08-.066.137s-.015.124-.015.205c0 .084.005.154.015.211s.033.102.066.137c.033.034.082.052.145.052s.11-.017.142-.052c.033-.034.055-.08.066-.137s.017-.127.017-.211zM35.953 27.439v-.116h.262v1.009h-.128v-.893h-.134zM36.434 27.817c0-.16.026-.285.078-.374s.143-.135.274-.135c.129 0 .22.045.272.135s.078.214.078.374c0 .163-.026.289-.078.38s-.143.135-.272.135c-.13 0-.222-.045-.274-.135s-.078-.217-.078-.38zm.576 0c0-.081-.006-.149-.017-.205-.01-.057-.032-.102-.065-.137s-.08-.052-.142-.052c-.063 0-.112.017-.145.052-.032.034-.054.08-.065.137s-.015.124-.015.205c0 .084.005.154.015.211s.033.102.065.137a.196.196 0 0 0 .145.052c.062 0 .11-.017.142-.052s.055-.08.065-.137a1.13 1.13 0 0 0 .017-.211zM37.371 28.34c-.024 0-.045-.008-.061-.025s-.025-.037-.025-.061.008-.045.025-.061.037-.025.061-.025c.023 0 .043.008.059.025.017.017.025.037.025.061s-.008.045-.025.061a.076.076 0 0 1-.059.025zm0-.597c-.024 0-.045-.008-.061-.025s-.025-.037-.025-.061.008-.045.025-.061.037-.025.061-.025c.023 0 .043.008.059.025.017.017.025.037.025.061s-.008.045-.025.061a.076.076 0 0 1-.059.025zM37.607 27.817c0-.16.026-.285.078-.374s.143-.135.273-.135c.129 0 .22.045.272.135s.078.214.078.374c0 .163-.026.289-.078.38s-.143.135-.272.135c-.13 0-.221-.045-.273-.135s-.078-.217-.078-.38zm.576 0a1 1 0 0 0-.017-.205.253.253 0 0 0-.066-.137c-.032-.034-.08-.052-.142-.052s-.112.017-.145.052a.271.271 0 0 0-.066.137c-.01.056-.015.124-.015.205 0 .084.005.154.015.211s.033.102.066.137c.033.034.082.052.145.052.062 0 .11-.017.142-.052a.25.25 0 0 0 .066-.137 1.13 1.13 0 0 0 .017-.211zM38.483 27.817c0-.16.026-.285.078-.374s.143-.135.273-.135c.129 0 .22.045.272.135s.078.214.078.374c0 .163-.026.289-.078.38s-.143.135-.272.135c-.13 0-.221-.045-.273-.135s-.078-.217-.078-.38zm.576 0a1 1 0 0 0-.017-.205.253.253 0 0 0-.066-.137c-.032-.034-.08-.052-.142-.052s-.112.017-.145.052a.271.271 0 0 0-.066.137c-.01.056-.015.124-.015.205 0 .084.005.154.015.211s.033.102.066.137c.033.034.082.052.145.052.062 0 .11-.017.142-.052a.25.25 0 0 0 .066-.137 1.13 1.13 0 0 0 .017-.211zM42.368 27.439v-.116h.262v1.009h-.128v-.893h-.134zM42.848 27.817c0-.16.026-.285.078-.374s.143-.135.273-.135c.129 0 .22.045.272.135s.078.214.078.374c0 .163-.026.289-.078.38s-.143.135-.272.135c-.13 0-.221-.045-.273-.135s-.078-.217-.078-.38zm.577 0a1 1 0 0 0-.017-.205.253.253 0 0 0-.066-.137c-.032-.034-.08-.052-.142-.052s-.112.017-.145.052a.271.271 0 0 0-.066.137c-.01.056-.015.124-.015.205 0 .084.005.154.015.211s.033.102.066.137c.033.034.082.052.145.052.062 0 .11-.017.142-.052a.25.25 0 0 0 .066-.137 1.13 1.13 0 0 0 .017-.211zM43.786 28.34c-.024 0-.045-.008-.061-.025s-.025-.037-.025-.061.008-.045.025-.061.037-.025.061-.025c.023 0 .043.008.059.025s.025.037.025.061-.008.045-.025.061-.035.025-.059.025zm0-.597c-.024 0-.045-.008-.061-.025s-.025-.037-.025-.061.008-.045.025-.061.037-.025.061-.025c.023 0 .043.008.059.025s.025.037.025.061-.008.045-.025.061-.035.025-.059.025zM44.022 27.817c0-.16.026-.285.078-.374s.143-.135.274-.135c.129 0 .22.045.272.135s.078.214.078.374c0 .163-.026.289-.078.38s-.143.135-.272.135c-.13 0-.222-.045-.274-.135s-.078-.217-.078-.38zm.576 0c0-.081-.006-.149-.017-.205-.01-.057-.032-.102-.065-.137s-.08-.052-.142-.052c-.063 0-.112.017-.145.052a.27.27 0 0 0-.065.137c-.01.056-.015.124-.015.205 0 .084.005.154.015.211s.033.102.065.137a.196.196 0 0 0 .145.052c.062 0 .11-.017.142-.052s.055-.08.065-.137a1.13 1.13 0 0 0 .017-.211zM44.898 27.817c0-.16.026-.285.078-.374s.143-.135.274-.135c.129 0 .22.045.272.135s.078.214.078.374c0 .163-.026.289-.078.38s-.143.135-.272.135c-.13 0-.222-.045-.274-.135s-.078-.217-.078-.38zm.576 0c0-.081-.006-.149-.017-.205-.01-.057-.032-.102-.065-.137s-.08-.052-.142-.052c-.063 0-.112.017-.145.052-.032.034-.054.08-.065.137s-.015.124-.015.205c0 .084.005.154.015.211s.033.102.065.137a.196.196 0 0 0 .145.052c.062 0 .11-.017.142-.052s.055-.08.065-.137a1.13 1.13 0 0 0 .017-.211z"/></symbol><symbol id="icon-mob-user" viewBox="0 0 27 32"><path fill="#fff" style="fill:var(--color1,#fff)" d="M.127 2.866A2.45 2.45 0 0 1 2.576.417h21.512a2.448 2.448 0 0 1 2.448 2.449v26.409a2.448 2.448 0 0 1-2.448 2.448H2.576a2.449 2.449 0 0 1-2.449-2.448V2.866z"/><path fill="#62ca76" style="fill:var(--color29,#62ca76)" d="m16.917 8.658-.649.649-.186-.185.835-.835.835.835-.185.185-.649-.649z"/><path fill="#ff553e" style="fill:var(--color2,#ff553e)" opacity=".15" d="M4.149 6.363c0-1.063.861-1.924 1.924-1.924h4.897c1.063 0 1.924.861 1.924 1.924v4.897a1.923 1.923 0 0 1-1.924 1.924H6.073a1.923 1.923 0 0 1-1.924-1.924V6.363z"/><path fill="#ff553e" style="fill:var(--color2,#ff553e)" d="M6.656 9.57a1.162 1.162 0 0 1 1.989-.825c.218.218.341.515.341.825h-.291a.873.873 0 1 0-1.748 0h-.292zm1.166-1.312a.874.874 0 1 1 .874-.875.875.875 0 0 1-.875.875zm0-.291a.583.583 0 1 0 0-1.166.583.583 0 0 0 0 1.166z"/><path style="fill:var(--color28,#000)" opacity=".8" d="M4.38 18.975c.014-.28.112-.495.294-.646.185-.154.427-.231.726-.231.204 0 .379.036.525.109.146.07.255.166.327.29.076.12.113.257.113.411a.729.729 0 0 1-.138.449.664.664 0 0 1-.323.243v.017c.162.05.288.14.378.269a.832.832 0 0 1 .138.495.862.862 0 0 1-.117.449.786.786 0 0 1-.34.311 1.204 1.204 0 0 1-.537.109c-.316 0-.574-.08-.772-.239s-.304-.395-.315-.705h.571a.47.47 0 0 0 .139.332c.09.081.211.122.365.122.143 0 .252-.039.327-.118a.431.431 0 0 0 .118-.311c0-.168-.053-.288-.16-.361s-.271-.109-.495-.109h-.122v-.483h.122c.397 0 .596-.133.596-.399a.362.362 0 0 0-.109-.281c-.07-.067-.172-.101-.306-.101-.131 0-.234.036-.306.109a.43.43 0 0 0-.122.269h-.575zM8.471 18.933a.475.475 0 0 0-.147-.264c-.067-.059-.165-.088-.294-.088a.462.462 0 0 0-.428.235c-.09.154-.136.406-.139.756a.662.662 0 0 1 .294-.26.932.932 0 0 1 .42-.096c.182 0 .343.039.483.117s.249.193.327.344c.078.148.117.327.117.537 0 .199-.041.376-.122.533-.078.154-.194.274-.348.361s-.337.13-.55.13c-.291 0-.521-.064-.688-.193a1.023 1.023 0 0 1-.348-.537 3.266 3.266 0 0 1-.097-.856c0-.512.088-.898.264-1.159.176-.263.455-.395.835-.395.294 0 .522.08.684.239s.256.358.281.596h-.546zm-.428.764c-.148 0-.273.043-.374.13s-.151.213-.151.378.046.295.139.39c.095.095.228.143.399.143.151 0 .27-.046.357-.139a.512.512 0 0 0 .134-.374.55.55 0 0 0-.13-.386c-.084-.095-.208-.143-.374-.143zM9.897 21.259a.373.373 0 0 1-.264-.097c-.067-.067-.101-.15-.101-.248s.034-.179.101-.243a.367.367 0 0 1 .264-.101.347.347 0 0 1 .256.592.356.356 0 0 1-.256.097zM10.589 18.711v-.541h1.012v3.06h-.604v-2.518h-.407zM13.625 21.229l-.789-.991v.991h-.588v-3.106h.588v1.767l.781-.986h.764l-1.024 1.167 1.033 1.159h-.764z"/><path style="fill:var(--color28,#000)" opacity=".4" d="M5.211 24.489v.155h-.399v1.308h-.191v-1.308H4.22v-.155h.991zM5.948 25.97a.594.594 0 0 1-.294-.073.535.535 0 0 1-.206-.208.654.654 0 0 1-.073-.315c0-.118.025-.221.076-.311a.532.532 0 0 1 .21-.208c.088-.049.187-.073.296-.073s.208.024.296.073a.522.522 0 0 1 .208.206c.052.09.078.194.078.313s-.027.224-.08.315c-.052.09-.122.159-.212.208s-.189.073-.298.073zm0-.167c.069 0 .133-.016.193-.048s.108-.08.145-.145c.038-.064.057-.143.057-.235s-.018-.171-.055-.235a.351.351 0 0 0-.143-.143.392.392 0 0 0-.191-.048.397.397 0 0 0-.193.048c-.057.031-.104.078-.138.143s-.052.143-.052.235c0 .094.017.173.05.237a.358.358 0 0 0 .138.145c.057.031.12.046.189.046zM7.022 24.959v.678c0 .056.012.096.036.12.024.022.065.034.124.034h.141v.162h-.172c-.106 0-.186-.024-.239-.073s-.08-.129-.08-.241v-.678h-.149v-.157h.149v-.29h.191v.29h.3v.157h-.3zM7.482 25.372c0-.117.024-.22.071-.308a.523.523 0 0 1 .474-.281c.101 0 .188.022.262.065s.129.098.166.164v-.21h.193v1.15h-.193v-.214a.457.457 0 0 1-.17.168.51.51 0 0 1-.26.065.517.517 0 0 1-.472-.288.654.654 0 0 1-.071-.311zm.974.002c0-.087-.018-.162-.052-.227s-.083-.113-.143-.147a.393.393 0 0 0-.39-.002c-.059.034-.106.083-.141.147s-.052.14-.052.227c0 .088.018.165.052.231a.382.382 0 0 0 .141.149c.059.034.124.05.195.05s.136-.017.195-.05a.38.38 0 0 0 .143-.149.48.48 0 0 0 .052-.229zM9.163 24.399v1.553h-.191v-1.553h.191zM10.281 24.959v.678c0 .056.012.096.036.12.024.022.065.034.124.034h.141v.162h-.172c-.106 0-.186-.024-.239-.073s-.08-.129-.08-.241v-.678h-.149v-.157h.149v-.29h.191v.29h.3v.157h-.3zM10.741 25.372c0-.117.024-.22.071-.308a.523.523 0 0 1 .474-.281c.101 0 .188.022.262.065s.129.098.166.164v-.21h.193v1.15h-.193v-.214a.457.457 0 0 1-.17.168.51.51 0 0 1-.26.065.517.517 0 0 1-.472-.288.654.654 0 0 1-.071-.311zm.974.002c0-.087-.018-.162-.052-.227s-.083-.113-.143-.147a.393.393 0 0 0-.39-.002.364.364 0 0 0-.141.147.467.467 0 0 0-.052.227c0 .088.018.165.052.231a.382.382 0 0 0 .141.149c.059.034.124.05.195.05s.136-.017.195-.05a.38.38 0 0 0 .143-.149.48.48 0 0 0 .052-.229zM12.873 25.952l-.451-.508v.508h-.191v-1.553h.191v.913l.443-.51h.267l-.541.573.544.577h-.26zM14.36 25.332c0 .036-.002.075-.006.115h-.919a.38.38 0 0 0 .115.267.375.375 0 0 0 .258.094.353.353 0 0 0 .206-.057.306.306 0 0 0 .117-.155h.206a.5.5 0 0 1-.185.271.558.558 0 0 1-.344.103.588.588 0 0 1-.294-.073.516.516 0 0 1-.201-.208c-.049-.091-.073-.196-.073-.315s.024-.223.071-.313a.5.5 0 0 1 .199-.206.596.596 0 0 1 .298-.073c.109 0 .206.024.29.071s.148.113.193.197a.568.568 0 0 1 .069.281zm-.197-.039a.35.35 0 0 0-.048-.187.306.306 0 0 0-.132-.12.395.395 0 0 0-.183-.042.36.36 0 0 0-.248.092.376.376 0 0 0-.115.256h.726zM15.172 24.78c.14 0 .253.043.34.128.087.084.13.206.13.365v.678h-.189V25.3c0-.115-.029-.202-.086-.262a.304.304 0 0 0-.235-.092.32.32 0 0 0-.241.094c-.059.063-.088.155-.088.275v.636h-.191v-1.15h.191v.164a.38.38 0 0 1 .153-.136.488.488 0 0 1 .216-.048zM16.921 25.97a.614.614 0 0 1-.237-.044.419.419 0 0 1-.166-.126.337.337 0 0 1-.067-.187h.197a.197.197 0 0 0 .08.141.316.316 0 0 0 .191.055c.073 0 .13-.016.172-.048s.063-.073.063-.122a.118.118 0 0 0-.067-.111.876.876 0 0 0-.208-.073 1.761 1.761 0 0 1-.21-.067.41.41 0 0 1-.139-.103.274.274 0 0 1-.057-.181c0-.059.017-.113.052-.162s.085-.087.149-.115a.53.53 0 0 1 .22-.044c.127 0 .23.032.309.097s.12.152.126.264h-.191a.2.2 0 0 0-.073-.145.267.267 0 0 0-.176-.055c-.069 0-.123.015-.164.044s-.061.068-.061.115a.13.13 0 0 0 .036.094.316.316 0 0 0 .092.059c.038.014.09.03.155.048.083.022.15.045.201.067a.325.325 0 0 1 .132.097.26.26 0 0 1 .059.17c0 .063-.017.12-.052.17s-.085.09-.149.12a.533.533 0 0 1-.218.042zM18.66 25.332c0 .036-.002.075-.006.115h-.919a.38.38 0 0 0 .115.267.375.375 0 0 0 .258.094.353.353 0 0 0 .206-.057.313.313 0 0 0 .118-.155h.206a.5.5 0 0 1-.185.271.558.558 0 0 1-.344.103.588.588 0 0 1-.294-.073.523.523 0 0 1-.201-.208c-.049-.091-.073-.196-.073-.315s.024-.223.071-.313a.5.5 0 0 1 .199-.206.596.596 0 0 1 .298-.073c.109 0 .206.024.29.071s.148.113.193.197a.568.568 0 0 1 .069.281zm-.197-.039a.35.35 0 0 0-.048-.187.306.306 0 0 0-.132-.12.395.395 0 0 0-.183-.042.36.36 0 0 0-.248.092.376.376 0 0 0-.115.256h.726zM18.841 25.372c0-.117.024-.22.071-.308a.523.523 0 0 1 .474-.281c.101 0 .188.022.262.065s.129.098.166.164v-.21h.193v1.15h-.193v-.214a.457.457 0 0 1-.17.168.51.51 0 0 1-.26.065.517.517 0 0 1-.472-.288.654.654 0 0 1-.071-.311zm.973.002c0-.087-.017-.162-.052-.227s-.083-.113-.143-.147a.393.393 0 0 0-.39-.002c-.059.034-.106.083-.141.147s-.052.14-.052.227c0 .088.017.165.052.231a.382.382 0 0 0 .141.149c.059.034.124.05.195.05s.136-.017.195-.05a.38.38 0 0 0 .143-.149.48.48 0 0 0 .052-.229zM20.563 24.959v.678c0 .056.012.096.036.12.024.022.065.034.124.034h.141v.162h-.172c-.106 0-.186-.024-.239-.073s-.08-.129-.08-.241v-.678h-.149v-.157h.149v-.29h.191v.29h.3v.157h-.3z"/><path style="fill:var(--color28,#000)" opacity=".5" d="M19.27 8.168v-.174h.395v1.517h-.193V8.168h-.201zM19.992 8.737c0-.241.039-.428.117-.562.078-.136.215-.204.411-.204.195 0 .331.068.409.204.078.134.118.322.118.562 0 .245-.039.435-.118.571s-.215.204-.409.204c-.196 0-.333-.068-.411-.204s-.117-.326-.117-.571zm.867 0c0-.122-.008-.225-.025-.309a.38.38 0 0 0-.099-.206c-.049-.052-.12-.078-.214-.078-.095 0-.168.026-.218.078a.407.407 0 0 0-.099.206 1.79 1.79 0 0 0-.023.309c0 .126.008.232.023.317a.41.41 0 0 0 .099.206c.05.052.123.078.218.078.094 0 .165-.026.214-.078a.391.391 0 0 0 .099-.206 1.66 1.66 0 0 0 .025-.317zM21.268 8.336c0-.095.029-.171.086-.227.057-.057.131-.086.22-.086s.163.029.22.086a.305.305 0 0 1 .086.227.314.314 0 0 1-.086.231c-.057.056-.131.084-.22.084s-.163-.028-.22-.084a.312.312 0 0 1-.086-.231zm1.226-.289-.85 1.465h-.189l.85-1.465h.189zm-.919.094a.14.14 0 0 0-.113.05c-.027.032-.04.08-.04.145s.013.113.04.147c.028.034.066.05.113.05s.085-.017.113-.05a.23.23 0 0 0 .042-.147c0-.064-.014-.113-.042-.145a.138.138 0 0 0-.113-.05zm.497 1.081c0-.097.029-.173.086-.229.057-.057.131-.086.22-.086a.293.293 0 0 1 .304.315.293.293 0 0 1-.304.315.302.302 0 0 1-.22-.084.312.312 0 0 1-.086-.231zm.304-.195a.14.14 0 0 0-.113.05c-.028.032-.042.08-.042.145 0 .063.014.111.042.145.028.032.066.048.113.048s.085-.016.113-.048a.222.222 0 0 0 .042-.145c0-.064-.014-.113-.042-.145a.138.138 0 0 0-.113-.05z"/></symbol><symbol id="icon-square" viewBox="0 0 27 32"><path fill="none" stroke="#ff553e" style="stroke:var(--color2,#ff553e)" stroke-width=".941" d="M.941 23.124C5.387 16.61 6.035 5.935 5.804 1.411c6.113 5.971 15.978 11.083 20.146 12.892-5.557 4.885-6.021 12.892-5.557 16.285-7.78-5.971-16.209-7.464-19.451-7.464z"/></symbol><symbol id="icon-timer" viewBox="0 0 32 32"><path fill="#b9c1cb" style="fill:var(--color30,#b9c1cb)" d="m11.003 9.854-.989-1.713-.99-.074-.365.856.99 1.714c.711.13 1.239-.145 1.355-.784zM20.997 9.854l.989-1.713.99-.074.365.856-.99 1.714c-.711.13-1.239-.145-1.354-.784z"/><path fill="#dae4ea" style="fill:var(--color12,#dae4ea)" d="M16.804 7.182a2.925 2.925 0 0 0 2.108-2.8c0-1.606-1.306-2.912-2.912-2.912s-2.912 1.306-2.912 2.912c0 1.293.867 2.444 2.108 2.8l.126.971a3.844 3.844 0 0 1-3.153-3.771C12.169 2.27 13.888.551 16 .551s3.831 1.718 3.831 3.831a3.842 3.842 0 0 1-3.145 3.769l.118-.97z"/><path fill="#b9c1cb" style="fill:var(--color30,#b9c1cb)" d="M16 8.951c.313 0 .624.015.93.043V5.17h-1.861v3.824c.307-.029.617-.043.93-.043z"/><path fill="#dae4ea" style="fill:var(--color12,#dae4ea)" d="M16 31.448c6.282 0 11.374-5.092 11.374-11.374S22.282 8.7 16 8.7c-6.282 0-11.374 5.092-11.374 11.374S9.718 31.448 16 31.448zM17.379 3.337h-2.757a.248.248 0 0 0-.248.248V5.18c0 .137.111.248.248.248h2.757a.248.248 0 0 0 .248-.248V3.585a.248.248 0 0 0-.248-.248zM10.155 8.059l-1.637.945a.129.129 0 0 1-.176-.047L7.119 6.838a.129.129 0 0 1 .047-.176l1.637-.945a.129.129 0 0 1 .176.047l1.223 2.119a.129.129 0 0 1-.047.176zM21.845 8.059l1.637.945c.062.036.14.014.176-.047l1.223-2.119a.128.128 0 0 0-.047-.176l-1.637-.945a.129.129 0 0 0-.176.047l-1.223 2.119a.128.128 0 0 0 .047.176z"/><path fill="#f6f9f9" style="fill:var(--color8,#f6f9f9)" d="M16 29.381a9.306 9.306 0 1 0 0-18.612 9.306 9.306 0 0 0 0 18.612z"/><path fill="#ffc954" style="fill:var(--color31,#ffc954)" d="M23.775 20.074c0-4.265-3.452-7.739-7.709-7.775a.066.066 0 0 0-.066.066v7.709H8.291a.065.065 0 0 0-.065.066c.036 4.257 3.51 7.709 7.775 7.709h.052c4.263-.028 7.723-3.505 7.723-7.775z"/><path fill="#e1a729" style="fill:var(--color32,#e1a729)" d="M18.188 12.613a7.768 7.768 0 0 1 3.137 6.237c0 4.27-3.46 7.747-7.723 7.775h-.052a7.75 7.75 0 0 1-2.188-.313A7.735 7.735 0 0 0 16 27.85h.052c4.263-.028 7.723-3.505 7.723-7.775 0-3.528-2.362-6.514-5.587-7.462z"/></symbol><symbol id="icon-twitter" viewBox="0 0 38 32"><path fill="#18063c" style="fill:var(--color23,#18063c)" d="M37.008 4.503c-1.393.61-2.787 1.045-4.354 1.219 1.567-.958 2.787-2.438 3.309-4.18-1.48.871-3.135 1.48-4.789 1.829-1.393-1.48-3.396-2.438-5.573-2.438a7.581 7.581 0 0 0-7.576 7.576c0 .61.087 1.219.174 1.742-6.357-.348-11.93-3.309-15.674-7.924C1.828 3.459 1.48 4.765 1.48 6.158a7.615 7.615 0 0 0 3.396 6.357 6.976 6.976 0 0 1-3.483-.958v.087c0 3.657 2.612 6.792 6.095 7.489a7.43 7.43 0 0 1-2.003.261c-.522 0-.958-.087-1.393-.174.958 3.048 3.744 5.224 7.14 5.312-2.612 2.003-5.834 3.222-9.404 3.222-.61 0-1.219 0-1.829-.087 3.396 2.177 7.314 3.396 11.668 3.396 14.019 0 21.595-11.581 21.595-21.595V8.51c1.48-1.132 2.786-2.525 3.744-4.005z"/></symbol><symbol id="icon-wallet" viewBox="0 0 36 32"><path fill="#fa855c" style="fill:var(--color33,#fa855c)" d="M32.359 9.306h-1.094V6.023c0-.606-.49-1.094-1.094-1.094H3.909A3.287 3.287 0 0 0 .626 8.212v19.697a3.287 3.287 0 0 0 3.283 3.283H32.36c.604 0 1.094-.49 1.094-1.094V10.401c0-.606-.49-1.094-1.094-1.094z"/><path fill="#ffd6c8" style="fill:var(--color34,#ffd6c8)" d="M34.547 22.437h-6.566a3.283 3.283 0 0 1 0-6.566h6.566c.604 0 1.094.49 1.094 1.094v4.377c0 .604-.49 1.094-1.094 1.094z"/><path fill="#f8fefe" style="fill:var(--color35,#f8fefe)" d="m28.658 9.306-4.075-8.15a1.097 1.097 0 0 0-1.468-.49L5.839 9.306h22.82z"/><path fill="#e6eae8" style="fill:var(--color36,#e6eae8)" d="M2.815 9.306h21.467l-4.075-8.15a1.095 1.095 0 0 0-1.468-.488L2.815 8.63v.676z"/></symbol></defs></svg>