<svg aria-hidden="true" style="position: absolute; width: 0; height: 0; overflow: hidden;" version="1.1" xmlns="http://www.w3.org/2000/svg" xmlns:xlink="http://www.w3.org/1999/xlink">
<defs>
<symbol id="icon-appstore" viewBox="0 0 123 32">
<path d="M18.212 14.601c0.013-1.027 0.286-2.035 0.793-2.928s1.232-1.644 2.107-2.182c-0.556-0.794-1.289-1.447-2.142-1.909s-1.801-0.717-2.77-0.747c-2.067-0.217-4.070 1.237-5.124 1.237-1.074 0-2.695-1.215-4.441-1.179-1.129 0.037-2.23 0.365-3.195 0.953s-1.761 1.417-2.31 2.404c-2.38 4.121-0.605 10.178 1.675 13.509 1.141 1.631 2.474 3.453 4.219 3.389 1.707-0.071 2.345-1.089 4.405-1.089 2.042 0 2.64 1.089 4.42 1.047 1.832-0.030 2.986-1.639 4.087-3.285 0.82-1.162 1.45-2.447 1.869-3.806-1.064-0.45-1.973-1.204-2.611-2.166s-0.98-2.092-0.982-3.248v0z"></path>
<path d="M14.849 4.645c0.999-1.199 1.491-2.74 1.372-4.296-1.526 0.16-2.936 0.89-3.948 2.043-0.495 0.563-0.874 1.219-1.116 1.928s-0.341 1.46-0.292 2.209c0.763 0.008 1.518-0.158 2.208-0.484s1.297-0.805 1.775-1.4z"></path>
<path d="M39.791 23.019h-5.826l-1.399 4.131h-2.468l5.518-15.284h2.564l5.518 15.284h-2.51l-1.398-4.131zM34.569 21.112h4.618l-2.276-6.704h-0.064l-2.278 6.704z"></path>
<path d="M55.614 21.579c0 3.463-1.853 5.688-4.65 5.688-0.708 0.037-1.413-0.126-2.033-0.471s-1.13-0.857-1.473-1.479h-0.053v5.519h-2.287v-14.829h2.214v1.853h0.042c0.358-0.618 0.877-1.128 1.502-1.475s1.332-0.518 2.046-0.495c2.828 0 4.692 2.236 4.692 5.689zM53.263 21.579c0-2.256-1.166-3.739-2.945-3.739-1.748 0-2.923 1.514-2.923 3.739 0 2.245 1.175 3.749 2.923 3.749 1.779 0 2.945-1.472 2.945-3.749z"></path>
<path d="M67.879 21.579c0 3.463-1.853 5.688-4.65 5.688-0.709 0.037-1.413-0.126-2.033-0.471s-1.13-0.857-1.473-1.479h-0.053v5.519h-2.287v-14.829h2.214v1.853h0.042c0.358-0.618 0.877-1.128 1.502-1.475s1.332-0.518 2.046-0.495c2.828 0 4.692 2.236 4.692 5.689zM65.528 21.579c0-2.256-1.166-3.739-2.945-3.739-1.748 0-2.923 1.514-2.923 3.739 0 2.245 1.175 3.749 2.923 3.749 1.779 0 2.945-1.472 2.945-3.749v0z"></path>
<path d="M75.986 22.891c0.169 1.516 1.642 2.511 3.654 2.511 1.928 0 3.315-0.995 3.315-2.362 0-1.186-0.837-1.897-2.817-2.383l-1.981-0.477c-2.807-0.678-4.109-1.99-4.109-4.12 0-2.637 2.298-4.448 5.561-4.448 3.23 0 5.443 1.811 5.518 4.448h-2.309c-0.138-1.525-1.399-2.446-3.242-2.446s-3.103 0.932-3.103 2.287c0 1.081 0.805 1.716 2.775 2.203l1.684 0.414c3.136 0.742 4.439 2.001 4.439 4.237 0 2.859-2.278 4.65-5.9 4.65-3.389 0-5.678-1.749-5.826-4.513l2.341 0z"></path>
<path d="M90.308 13.37v2.637h2.119v1.811h-2.119v6.143c0 0.954 0.424 1.399 1.356 1.399 0.251-0.004 0.503-0.022 0.752-0.053v1.8c-0.419 0.078-0.844 0.114-1.27 0.106-2.256 0-3.136-0.847-3.136-3.008v-6.387h-1.62v-1.811h1.62v-2.637h2.298z"></path>
<path d="M93.654 21.579c0-3.506 2.065-5.709 5.285-5.709 3.231 0 5.286 2.203 5.286 5.709 0 3.516-2.044 5.709-5.286 5.709-3.24 0-5.285-2.193-5.285-5.709zM101.894 21.579c0-2.405-1.102-3.825-2.956-3.825s-2.954 1.43-2.954 3.825c0 2.415 1.101 3.823 2.954 3.823s2.955-1.409 2.955-3.823h0z"></path>
<path d="M106.108 16.007h2.182v1.897h0.053c0.148-0.592 0.495-1.116 0.983-1.482s1.088-0.554 1.698-0.531c0.264-0.001 0.526 0.028 0.784 0.085v2.139c-0.333-0.102-0.68-0.148-1.028-0.138-0.332-0.014-0.663 0.045-0.971 0.172s-0.584 0.318-0.81 0.562-0.397 0.533-0.501 0.849c-0.104 0.316-0.138 0.651-0.101 0.981v6.609h-2.287v-11.143z"></path>
<path d="M122.355 23.877c-0.308 2.023-2.278 3.411-4.798 3.411-3.241 0-5.254-2.172-5.254-5.656 0-3.495 2.023-5.762 5.157-5.762 3.083 0 5.022 2.118 5.022 5.496v0.784h-7.87v0.138c-0.036 0.41 0.015 0.823 0.151 1.212s0.352 0.744 0.636 1.043c0.284 0.298 0.627 0.533 1.008 0.689s0.791 0.228 1.203 0.213c0.541 0.051 1.083-0.074 1.547-0.357s0.824-0.707 1.027-1.21h2.172zM114.623 20.551h5.571c0.021-0.369-0.035-0.738-0.164-1.084s-0.328-0.662-0.585-0.927c-0.257-0.265-0.565-0.475-0.907-0.616s-0.708-0.209-1.078-0.201c-0.372-0.002-0.742 0.069-1.086 0.211s-0.658 0.349-0.922 0.612c-0.264 0.263-0.473 0.576-0.615 0.92s-0.215 0.713-0.214 1.086v0z"></path>
<path d="M34.282 0.362c0.48-0.034 0.961 0.038 1.409 0.212s0.852 0.445 1.183 0.794c0.33 0.349 0.579 0.767 0.729 1.224s0.196 0.941 0.135 1.418c0 2.346-1.268 3.695-3.456 3.695h-2.653v-7.344h2.653zM32.77 6.667h1.385c0.343 0.020 0.686-0.036 1.004-0.164s0.604-0.327 0.836-0.58 0.405-0.555 0.505-0.883c0.101-0.328 0.127-0.675 0.077-1.014 0.046-0.338 0.017-0.683-0.085-1.008s-0.275-0.625-0.507-0.876c-0.231-0.251-0.516-0.448-0.832-0.576s-0.657-0.185-0.998-0.166h-1.385v5.267z"></path>
<path d="M39.027 4.932c-0.035-0.364 0.007-0.732 0.122-1.079s0.302-0.666 0.548-0.937c0.246-0.271 0.546-0.487 0.881-0.635s0.696-0.224 1.062-0.224 0.728 0.076 1.062 0.224c0.335 0.148 0.635 0.364 0.881 0.635s0.433 0.59 0.548 0.937c0.115 0.347 0.157 0.715 0.122 1.079 0.036 0.365-0.006 0.733-0.121 1.080s-0.302 0.668-0.548 0.939c-0.246 0.271-0.546 0.488-0.881 0.636s-0.697 0.225-1.063 0.225c-0.366 0-0.729-0.077-1.063-0.225s-0.635-0.365-0.881-0.636c-0.246-0.271-0.433-0.591-0.548-0.939s-0.156-0.716-0.121-1.080zM43.129 4.932c0-1.201-0.54-1.904-1.487-1.904-0.951 0-1.486 0.703-1.486 1.904 0 1.211 0.535 1.908 1.486 1.908 0.947 0 1.487-0.702 1.487-1.908v0z"></path>
<path d="M51.202 7.706h-1.135l-1.145-4.082h-0.087l-1.141 4.082h-1.124l-1.528-5.542h1.109l0.993 4.229h0.082l1.139-4.229h1.049l1.139 4.229h0.087l0.988-4.229h1.094l-1.522 5.542z"></path>
<path d="M54.007 2.164h1.053v0.88h0.082c0.139-0.316 0.373-0.581 0.669-0.758s0.641-0.257 0.985-0.229c0.27-0.020 0.54 0.020 0.792 0.119s0.478 0.253 0.662 0.45c0.184 0.198 0.322 0.435 0.402 0.693s0.101 0.531 0.062 0.799v3.588h-1.094v-3.313c0-0.891-0.387-1.334-1.196-1.334-0.183-0.009-0.366 0.023-0.536 0.091s-0.323 0.173-0.449 0.307-0.221 0.292-0.28 0.466c-0.058 0.174-0.079 0.358-0.059 0.54v3.242h-1.094v-5.542z"></path>
<path d="M60.457 0h1.094v7.706h-1.094v-7.706z"></path>
<path d="M63.072 4.932c-0.035-0.364 0.007-0.732 0.122-1.079s0.302-0.666 0.548-0.937c0.246-0.271 0.546-0.487 0.881-0.635s0.696-0.224 1.062-0.224 0.728 0.076 1.062 0.224c0.335 0.148 0.635 0.364 0.881 0.635s0.433 0.59 0.548 0.937c0.115 0.347 0.157 0.715 0.122 1.079 0.035 0.365-0.006 0.733-0.121 1.080s-0.302 0.668-0.548 0.939c-0.246 0.271-0.546 0.488-0.881 0.636s-0.697 0.225-1.064 0.225c-0.366 0-0.728-0.077-1.064-0.225s-0.635-0.365-0.881-0.636-0.433-0.591-0.548-0.939c-0.115-0.348-0.156-0.716-0.121-1.080zM67.175 4.932c0-1.201-0.54-1.904-1.487-1.904-0.951 0-1.485 0.703-1.485 1.904 0 1.211 0.535 1.908 1.485 1.908 0.947 0 1.487-0.702 1.487-1.908h-0z"></path>
<path d="M69.452 6.138c0-0.998 0.743-1.573 2.061-1.654l1.501-0.087v-0.478c0-0.585-0.387-0.916-1.135-0.916-0.61 0-1.034 0.224-1.155 0.616h-1.059c0.112-0.952 1.007-1.563 2.264-1.563 1.389 0 2.173 0.692 2.173 1.862v3.787h-1.053v-0.779h-0.087c-0.176 0.279-0.422 0.507-0.715 0.66s-0.62 0.225-0.95 0.21c-0.233 0.024-0.468-0.001-0.69-0.073s-0.427-0.19-0.601-0.347-0.313-0.347-0.409-0.561c-0.096-0.213-0.146-0.445-0.147-0.678zM73.014 5.665v-0.463l-1.353 0.087c-0.763 0.051-1.109 0.311-1.109 0.799 0 0.499 0.433 0.789 1.028 0.789 0.174 0.018 0.351 0 0.518-0.052s0.323-0.137 0.457-0.25c0.134-0.113 0.244-0.252 0.323-0.408s0.126-0.327 0.138-0.502z"></path>
<path d="M75.541 4.932c0-1.751 0.9-2.861 2.3-2.861 0.346-0.016 0.69 0.067 0.991 0.239s0.547 0.426 0.709 0.733h0.082v-3.044h1.094v7.706h-1.048v-0.876h-0.087c-0.174 0.305-0.429 0.556-0.735 0.726s-0.654 0.254-1.005 0.241c-1.41 0-2.3-1.109-2.3-2.865zM76.671 4.932c0 1.175 0.554 1.883 1.481 1.883 0.922 0 1.492-0.718 1.492-1.878 0-1.155-0.576-1.883-1.492-1.883-0.921 0-1.481 0.712-1.481 1.878h0z"></path>
<path d="M85.241 4.932c-0.035-0.364 0.007-0.732 0.122-1.079s0.302-0.666 0.548-0.937c0.246-0.271 0.546-0.487 0.881-0.635s0.697-0.224 1.062-0.224c0.366 0 0.728 0.076 1.062 0.224s0.635 0.364 0.881 0.635c0.246 0.271 0.433 0.59 0.548 0.937s0.157 0.715 0.122 1.079c0.035 0.365-0.006 0.733-0.121 1.080s-0.302 0.668-0.548 0.939c-0.246 0.271-0.546 0.488-0.881 0.636s-0.697 0.225-1.064 0.225c-0.366 0-0.728-0.077-1.064-0.225s-0.635-0.365-0.881-0.636-0.433-0.591-0.548-0.939c-0.115-0.348-0.156-0.716-0.121-1.080zM89.343 4.932c0-1.201-0.54-1.904-1.487-1.904-0.951 0-1.486 0.703-1.486 1.904 0 1.211 0.535 1.908 1.486 1.908 0.947 0 1.487-0.702 1.487-1.908z"></path>
<path d="M91.935 2.164h1.053v0.88h0.082c0.139-0.316 0.373-0.581 0.669-0.758s0.641-0.257 0.985-0.229c0.27-0.020 0.54 0.020 0.792 0.119s0.478 0.253 0.662 0.45c0.184 0.198 0.322 0.435 0.402 0.693s0.101 0.531 0.062 0.799v3.588h-1.094v-3.313c0-0.891-0.387-1.334-1.196-1.334-0.183-0.009-0.366 0.023-0.536 0.091s-0.323 0.173-0.449 0.307-0.221 0.292-0.279 0.466c-0.059 0.174-0.079 0.358-0.059 0.54v3.242h-1.094v-5.542z"></path>
<path d="M102.823 0.784v1.405h1.201v0.921h-1.201v2.85c0 0.581 0.239 0.835 0.784 0.835 0.139-0 0.279-0.009 0.417-0.025v0.911c-0.196 0.035-0.395 0.054-0.595 0.056-1.216 0-1.701-0.428-1.701-1.496v-3.13h-0.88v-0.921h0.88v-1.405h1.095z"></path>
<path d="M105.517 0h1.084v3.054h0.087c0.145-0.319 0.386-0.586 0.688-0.763s0.652-0.258 1.002-0.229c0.268-0.015 0.536 0.030 0.785 0.131s0.473 0.256 0.655 0.453c0.182 0.197 0.319 0.432 0.4 0.689s0.104 0.527 0.069 0.793v3.578h-1.095v-3.308c0-0.885-0.412-1.334-1.185-1.334-0.188-0.015-0.377 0.010-0.554 0.076s-0.338 0.168-0.47 0.302c-0.133 0.134-0.235 0.295-0.299 0.473s-0.089 0.367-0.072 0.555v3.237h-1.094l-0-7.705z"></path>
<path d="M116.663 6.209c-0.149 0.506-0.471 0.945-0.91 1.238s-0.967 0.423-1.492 0.366c-0.365 0.010-0.728-0.060-1.063-0.205s-0.635-0.361-0.879-0.633c-0.244-0.272-0.425-0.594-0.532-0.943s-0.136-0.718-0.086-1.080c-0.049-0.363-0.019-0.732 0.088-1.082s0.287-0.674 0.529-0.948c0.242-0.275 0.541-0.494 0.875-0.643s0.697-0.225 1.063-0.222c1.542 0 2.472 1.054 2.472 2.794v0.382h-3.913v0.061c-0.017 0.203 0.008 0.408 0.075 0.601s0.173 0.37 0.312 0.519c0.139 0.149 0.308 0.268 0.495 0.349s0.39 0.121 0.594 0.119c0.262 0.031 0.527-0.016 0.761-0.135s0.429-0.306 0.557-0.537l1.053 0zM112.816 4.423h2.799c0.014-0.186-0.011-0.373-0.074-0.548s-0.161-0.336-0.29-0.471c-0.129-0.135-0.284-0.242-0.456-0.314s-0.358-0.106-0.544-0.102c-0.189-0.002-0.377 0.033-0.552 0.104s-0.334 0.177-0.468 0.311c-0.134 0.134-0.239 0.293-0.311 0.468s-0.107 0.363-0.104 0.552h-0z"></path>
</symbol>
<symbol id="icon-bell" viewBox="0 0 32 32">
<path fill="#ffdd27" style="fill: var(--color2, #ffdd27)" d="M17.573 24.869h-3.146l-0.174 1.009c-0.187 1.084 0.648 2.074 1.747 2.074s1.934-0.991 1.747-2.074l-0.174-1.009z"></path>
<path fill="#f9c91a" style="fill: var(--color3, #f9c91a)" d="M17.772 26.108c-0.003-0.076-0.011-0.153-0.025-0.23l-0.174-1.009-2.468-0.569-0.678 0.569-0.174 1.009c-0.013 0.077-0.021 0.154-0.025 0.23h3.544z"></path>
<path fill="#ffdd27" style="fill: var(--color2, #ffdd27)" d="M23.701 19.944c-0.202-0.35-0.309-0.747-0.309-1.152v-4.037c0-3.276-2.131-6.054-5.083-7.024-0.090-0.029-0.128-0.123-0.088-0.209 0.173-0.374 0.255-0.799 0.216-1.245-0.085-0.979-0.922-2.229-2.435-2.229-1.359 0-2.451 1.103-2.451 2.447 0 0.36 0.078 0.702 0.218 1.010 0.043 0.095-0.004 0.2-0.103 0.233-2.94 0.976-5.060 3.749-5.060 7.017l0 4.037c0 0.404-0.106 0.802-0.309 1.152l7.865 1.575 7.537-1.576zM15.132 6.495c0-0.479 0.388-0.868 0.868-0.868s0.868 0.388 0.868 0.868c0 0.479-0.389 0.868-0.868 0.868s-0.868-0.388-0.868-0.868z"></path>
<path fill="#f9c91a" style="fill: var(--color3, #f9c91a)" d="M20.913 13.205v4.037c0 0.404 0.106 0.802 0.309 1.152l0.895 1.549 1.193 0.48 0.391-0.48c-0.202-0.35-0.309-0.747-0.309-1.152v-4.037c0-3.169-1.994-5.872-4.795-6.923 1.426 1.348 2.316 3.257 2.316 5.374z"></path>
<path fill="#ffdd27" style="fill: var(--color2, #ffdd27)" d="M31.401 15.405c0 2.45-0.885 4.692-2.352 6.425-0.291 0.343-0.815 0.36-1.133 0.042l-0.004-0.004c-0.286-0.286-0.3-0.742-0.039-1.052 1.234-1.462 1.979-3.351 1.979-5.411s-0.745-3.948-1.979-5.411c-0.261-0.309-0.247-0.765 0.039-1.052l0.005-0.005c0.318-0.318 0.843-0.302 1.133 0.042 1.467 1.734 2.352 3.976 2.352 6.425z"></path>
<path fill="#ffdd27" style="fill: var(--color2, #ffdd27)" d="M28.302 15.405c0 1.575-0.534 3.027-1.431 4.186-0.286 0.369-0.831 0.406-1.161 0.076l-0.001-0.001c-0.276-0.276-0.301-0.713-0.063-1.023 0.693-0.896 1.106-2.020 1.106-3.238s-0.413-2.342-1.106-3.238c-0.239-0.309-0.214-0.746 0.063-1.023l0.001-0.001c0.33-0.33 0.875-0.294 1.161 0.076 0.897 1.159 1.431 2.611 1.431 4.186z"></path>
<path fill="#ffdd27" style="fill: var(--color2, #ffdd27)" d="M0.599 15.405c0 2.45 0.885 4.692 2.352 6.425 0.291 0.343 0.815 0.36 1.133 0.042l0.004-0.004c0.286-0.286 0.3-0.742 0.039-1.052-1.234-1.462-1.979-3.351-1.979-5.411s0.745-3.948 1.979-5.411c0.261-0.309 0.247-0.765-0.039-1.052l-0.005-0.005c-0.318-0.318-0.843-0.302-1.133 0.042-1.467 1.734-2.352 3.976-2.352 6.425v0z"></path>
<path fill="#ffdd27" style="fill: var(--color2, #ffdd27)" d="M3.698 15.405c0 1.575 0.534 3.027 1.431 4.186 0.286 0.369 0.83 0.406 1.161 0.076l0.001-0.001c0.276-0.276 0.301-0.713 0.063-1.023-0.693-0.896-1.106-2.020-1.106-3.238s0.413-2.342 1.106-3.238c0.239-0.309 0.214-0.746-0.063-1.023l-0.001-0.001c-0.33-0.33-0.875-0.294-1.161 0.076-0.897 1.159-1.431 2.611-1.431 4.186z"></path>
<path fill="#f9c91a" style="fill: var(--color3, #f9c91a)" d="M16 9.407c-0.449 0-0.88-0.1-1.281-0.296-0.23-0.113-0.326-0.392-0.213-0.622s0.392-0.326 0.622-0.213c0.272 0.134 0.566 0.201 0.872 0.201 0.303 0 0.594-0.067 0.865-0.198 0.231-0.112 0.509-0.016 0.621 0.215s0.016 0.509-0.215 0.621c-0.398 0.193-0.826 0.291-1.271 0.291z"></path>
<path fill="#f6e266" style="fill: var(--color4, #f6e266)" d="M23.701 19.944h-15.401l-2.616 4.531c-0.101 0.175 0.025 0.395 0.228 0.395h20.178c0.202 0 0.329-0.219 0.228-0.395l-2.616-4.531z"></path>
<path fill="#f4d820" style="fill: var(--color5, #f4d820)" d="M26.317 24.474l-2.616-4.531h-1.585l0.361 0.625c0.706 1.222-0.176 2.75-1.588 2.75h-14.539l-0.667 1.155c-0.101 0.175 0.025 0.394 0.228 0.394h20.178c0.203 0 0.329-0.219 0.228-0.394z"></path>
</symbol>
<symbol id="icon-calendar" viewBox="0 0 38 32">
<path fill="#f6f9f9" style="fill: var(--color6, #f6f9f9)" d="M34.623 6.258l-19.506-1.104-14.416 1.104v21.756c0 0.379 0.307 0.686 0.687 0.686h32.549c0.379 0 0.686-0.307 0.686-0.686v-21.756z"></path>
<path fill="#e7ecf1" style="fill: var(--color7, #e7ecf1)" d="M1.388 28.701h32.549c0.379 0 0.686-0.307 0.686-0.686v-21.756l-2.906-0.148v11.378c0 1.331-1.177 2.355-2.495 2.168-0.278-0.039-0.562-0.058-0.851-0.054-2.939 0.041-5.341 2.446-5.38 5.385-0 0.021-0 0.041-0.001 0.062-0.002 1.213-0.977 2.198-2.189 2.198h-20.099v0.767c0 0.379 0.307 0.686 0.687 0.686z"></path>
<path fill="#da4a54" style="fill: var(--color8, #da4a54)" d="M31.381 19.753v1.95c0 0.075-0.061 0.137-0.137 0.137h-2.769c-0.075 0-0.137-0.061-0.137-0.137v-1.95c0-0.075 0.061-0.137 0.137-0.137h2.769c0.075 0 0.137 0.061 0.137 0.137zM31.381 16.506c0-0.075-0.061-0.137-0.137-0.137h-2.769c-0.075 0-0.137 0.061-0.137 0.137v1.95c0 0.075 0.061 0.137 0.137 0.137h2.769c0.075 0 0.137-0.061 0.137-0.137v-1.95zM31.381 13.259c0-0.075-0.061-0.136-0.137-0.136h-2.769c-0.075 0-0.137 0.061-0.137 0.136v1.95c0 0.075 0.061 0.136 0.137 0.136h2.769c0.075 0 0.137-0.061 0.137-0.136v-1.95zM31.381 10.012c0-0.075-0.061-0.136-0.137-0.136h-2.769c-0.075 0-0.137 0.061-0.137 0.136v1.95c0 0.075 0.061 0.136 0.137 0.136h2.769c0.075 0 0.137-0.061 0.137-0.136v-1.95z"></path>
<path fill="#d82e3d" style="fill: var(--color9, #d82e3d)" d="M28.475 21.839h2.769c0.075 0 0.137-0.061 0.137-0.136v-1.95c0-0.075-0.061-0.137-0.137-0.137h-1.198c-0.262 0.064-0.54 0.080-0.826 0.040-0.123-0.017-0.247-0.031-0.372-0.040h-0.374c-0.075 0-0.137 0.061-0.137 0.137v1.95c0 0.075 0.061 0.136 0.137 0.136z"></path>
<path fill="#dae4ea" style="fill: var(--color10, #dae4ea)" d="M23.249 15.209c0 0.075-0.061 0.136-0.137 0.136h-2.769c-0.075 0-0.137-0.061-0.137-0.136v-1.95c0-0.075 0.061-0.136 0.137-0.136h2.769c0.075 0 0.137 0.061 0.137 0.136v1.95zM23.249 10.012c0-0.075-0.061-0.136-0.137-0.136h-2.769c-0.075 0-0.137 0.061-0.137 0.136v1.95c0 0.075 0.061 0.136 0.137 0.136h2.769c0.075 0 0.137-0.061 0.137-0.136v-1.95zM23.113 19.616h-2.769c-0.075 0-0.137 0.061-0.137 0.137v1.95c0 0.075 0.061 0.137 0.137 0.137h2.769c0.075 0 0.137-0.061 0.137-0.137v-1.95c-0-0.075-0.061-0.137-0.137-0.137zM8.133 12.099h2.783c0.075 0 0.136-0.061 0.136-0.136v-1.95c0-0.075-0.061-0.136-0.136-0.136h-2.783c-0.075 0-0.136 0.061-0.136 0.136v1.95c0 0.075 0.061 0.136 0.136 0.136zM7.996 15.209c0 0.075 0.061 0.136 0.136 0.136h2.783c0.075 0 0.136-0.061 0.136-0.136v-1.95c0-0.075-0.061-0.136-0.136-0.136h-2.783c-0.075 0-0.136 0.061-0.136 0.136v1.95zM23.249 16.506c0-0.075-0.061-0.137-0.137-0.137h-2.769c-0.075 0-0.137 0.061-0.137 0.137v1.95c0 0.075 0.061 0.137 0.137 0.137h2.769c0.075 0 0.137-0.061 0.137-0.137v-1.95zM7.996 18.456c0 0.075 0.061 0.137 0.136 0.137h2.783c0.075 0 0.136-0.061 0.136-0.137v-1.95c0-0.075-0.061-0.137-0.136-0.137h-2.783c-0.075 0-0.136 0.061-0.136 0.137v1.95zM27.179 19.616h-2.769c-0.075 0-0.137 0.061-0.137 0.137v1.95c0 0.075 0.061 0.137 0.137 0.137h2.769c0.075 0 0.137-0.061 0.137-0.137v-1.95c0-0.075-0.061-0.137-0.137-0.137zM27.315 16.506c0-0.075-0.061-0.137-0.137-0.137h-2.769c-0.075 0-0.137 0.061-0.137 0.137v1.95c0 0.075 0.061 0.137 0.137 0.137h2.769c0.075 0 0.137-0.061 0.137-0.137v-1.95zM27.315 13.259c0-0.075-0.061-0.136-0.137-0.136h-2.769c-0.075 0-0.137 0.061-0.137 0.136v1.95c0 0.075 0.061 0.136 0.137 0.136h2.769c0.075 0 0.137-0.061 0.137-0.136v-1.95zM27.315 10.012c0-0.075-0.061-0.136-0.137-0.136h-2.769c-0.075 0-0.137 0.061-0.137 0.136v1.95c0 0.075 0.061 0.136 0.137 0.136h2.769c0.075 0 0.137-0.061 0.137-0.136v-1.95zM7.996 24.947c0 0.075 0.061 0.136 0.136 0.136h2.783c0.075 0 0.136-0.061 0.136-0.136v-1.947c0-0.075-0.061-0.137-0.136-0.137h-2.783c-0.075 0-0.136 0.061-0.136 0.137v1.947zM16.141 21.703c0 0.075 0.061 0.137 0.136 0.137h2.769c0.075 0 0.136-0.061 0.136-0.137v-1.95c0-0.075-0.061-0.137-0.136-0.137h-2.769c-0.075 0-0.136 0.061-0.136 0.137v1.95zM16.278 15.346h2.769c0.075 0 0.137-0.061 0.137-0.136v-1.95c0-0.075-0.061-0.136-0.137-0.136h-2.769c-0.075 0-0.137 0.061-0.137 0.136v1.95c0 0.075 0.061 0.136 0.137 0.136zM16.141 18.456c0 0.075 0.061 0.137 0.136 0.137h2.769c0.075 0 0.136-0.061 0.136-0.137v-1.95c0-0.075-0.061-0.137-0.136-0.137h-2.769c-0.075 0-0.136 0.061-0.136 0.137v1.95zM16.141 24.947c0 0.075 0.061 0.136 0.136 0.136h2.769c0.075 0 0.136-0.061 0.136-0.136v-1.947c0-0.075-0.061-0.137-0.136-0.137h-2.769c-0.075 0-0.136 0.061-0.136 0.137v1.947zM19.047 9.876h-2.769c-0.075 0-0.136 0.061-0.136 0.136v1.95c0 0.075 0.061 0.136 0.136 0.136h2.769c0.075 0 0.136-0.061 0.136-0.136v-1.95c0-0.075-0.061-0.136-0.136-0.136zM7.996 21.703c0 0.075 0.061 0.137 0.136 0.137h2.783c0.075 0 0.136-0.061 0.136-0.137v-1.95c0-0.075-0.061-0.137-0.136-0.137h-2.783c-0.075 0-0.136 0.061-0.136 0.137v1.95zM12.075 24.947c0 0.075 0.061 0.136 0.136 0.136h2.769c0.075 0 0.136-0.061 0.136-0.136v-1.947c0-0.075-0.061-0.137-0.136-0.137h-2.769c-0.075 0-0.136 0.061-0.136 0.137v1.947zM12.075 15.209c0 0.075 0.061 0.136 0.136 0.136h2.769c0.075 0 0.136-0.061 0.136-0.136v-1.95c0-0.075-0.061-0.136-0.136-0.136h-2.769c-0.075 0-0.136 0.061-0.136 0.136v1.95zM12.212 12.099h2.769c0.075 0 0.136-0.061 0.136-0.136v-1.95c0-0.075-0.061-0.136-0.136-0.136h-2.769c-0.075 0-0.136 0.061-0.136 0.136v1.95c0 0.075 0.061 0.136 0.136 0.136zM12.075 18.456c0 0.075 0.061 0.137 0.136 0.137h2.769c0.075 0 0.136-0.061 0.136-0.137v-1.95c0-0.075-0.061-0.137-0.136-0.137h-2.769c-0.075 0-0.136 0.061-0.136 0.137v1.95zM12.075 21.703c0 0.075 0.061 0.137 0.136 0.137h2.769c0.075 0 0.136-0.061 0.136-0.137v-1.95c0-0.075-0.061-0.137-0.136-0.137h-2.769c-0.075 0-0.136 0.061-0.136 0.137v1.95z"></path>
<path fill="#c6d0da" style="fill: var(--color11, #c6d0da)" d="M24.273 21.703c0 0.075 0.061 0.137 0.137 0.137h2.769c0.075 0 0.137-0.061 0.137-0.137v-1.95c0-0.011-0.001-0.021-0.004-0.031-1.206 0.259-2.269 0.92-3.039 1.834v0.147z"></path>
<path fill="#61a2f9" style="fill: var(--color12, #61a2f9)" d="M33.937 2.247h-32.548c-0.379 0-0.687 0.307-0.687 0.687v3.325h33.922v-3.325c0-0.379-0.307-0.687-0.687-0.687z"></path>
<path fill="#da4a54" style="fill: var(--color8, #da4a54)" d="M3.943 15.209v-1.95c0-0.075 0.061-0.136 0.137-0.136h2.756c0.075 0 0.136 0.061 0.136 0.136v1.95c0 0.075-0.061 0.136-0.136 0.136h-2.756c-0.075 0-0.137-0.061-0.137-0.136zM3.943 18.456c0 0.075 0.061 0.137 0.137 0.137h2.756c0.075 0 0.136-0.061 0.136-0.137v-1.95c0-0.075-0.061-0.137-0.136-0.137h-2.756c-0.075 0-0.136 0.061-0.136 0.137v1.95h-0zM3.943 24.947c0 0.075 0.061 0.137 0.137 0.137h2.756c0.075 0 0.136-0.061 0.136-0.137v-1.947c0-0.075-0.061-0.137-0.136-0.137h-2.756c-0.075 0-0.136 0.061-0.136 0.137v1.947h-0zM3.943 21.703c0 0.075 0.061 0.136 0.137 0.136h2.756c0.075 0 0.136-0.061 0.136-0.136v-1.95c0-0.075-0.061-0.136-0.136-0.136h-2.756c-0.075 0-0.136 0.061-0.136 0.136v1.95h-0z"></path>
<path fill="#fff" style="fill: var(--color1, #fff)" d="M4.484 4.425h-0.864c-0.378 0-0.684-0.306-0.684-0.684v-2.304c0-0.378 0.306-0.684 0.684-0.684h0.864c0.378 0 0.684 0.306 0.684 0.684v2.304c0 0.378-0.306 0.684-0.684 0.684z"></path>
<path fill="#fff" style="fill: var(--color1, #fff)" d="M8.964 4.425h-0.795c-0.378 0-0.684-0.306-0.684-0.684v-2.304c0-0.378 0.306-0.684 0.684-0.684h0.795c0.378 0 0.684 0.306 0.684 0.684v2.304c0 0.378-0.306 0.684-0.684 0.684z"></path>
<path fill="#fff" style="fill: var(--color1, #fff)" d="M13.512 4.425h-0.795c-0.378 0-0.684-0.306-0.684-0.684v-2.304c0-0.378 0.306-0.684 0.684-0.684h0.795c0.378 0 0.684 0.306 0.684 0.684v2.304c0 0.378-0.306 0.684-0.684 0.684z"></path>
<path fill="#fff" style="fill: var(--color1, #fff)" d="M18.061 4.425h-0.795c-0.378 0-0.684-0.306-0.684-0.684v-2.304c0-0.378 0.306-0.684 0.684-0.684h0.795c0.378 0 0.684 0.306 0.684 0.684v2.304c0 0.378-0.306 0.684-0.684 0.684z"></path>
<path fill="#fff" style="fill: var(--color1, #fff)" d="M22.609 4.425h-0.795c-0.378 0-0.684-0.306-0.684-0.684v-2.304c0-0.378 0.306-0.684 0.684-0.684h0.795c0.378 0 0.684 0.306 0.684 0.684v2.304c0 0.378-0.306 0.684-0.684 0.684z"></path>
<path fill="#fff" style="fill: var(--color1, #fff)" d="M27.157 4.425h-0.795c-0.378 0-0.684-0.306-0.684-0.684v-2.304c0-0.378 0.306-0.684 0.684-0.684h0.795c0.378 0 0.684 0.306 0.684 0.684v2.304c0 0.378-0.306 0.684-0.684 0.684z"></path>
<path fill="#5490f9" style="fill: var(--color13, #5490f9)" d="M33.937 2.247h-1.548l-0.41 1.083c0 0.374-0.262 1.094-0.262 1.094v1.834h2.906v-3.325c0-0.379-0.307-0.687-0.687-0.687z"></path>
<path fill="#fff" style="fill: var(--color1, #fff)" d="M31.705 4.425h-0.795c-0.378 0-0.684-0.306-0.684-0.684v-2.304c0-0.378 0.306-0.684 0.684-0.684h0.795c0.378 0 0.684 0.306 0.684 0.684v2.304c0 0.378-0.306 0.684-0.684 0.684z"></path>
<path fill="#80e29d" style="fill: var(--color14, #80e29d)" d="M31.355 31.973c3.015 0 5.459-2.444 5.459-5.459s-2.444-5.459-5.459-5.459c-3.015 0-5.459 2.444-5.459 5.459s2.444 5.459 5.459 5.459z"></path>
<path fill="#78d090" style="fill: var(--color15, #78d090)" d="M32.233 21.125c1.033 0.993 1.676 2.389 1.676 3.936 0 3.015-2.444 5.459-5.459 5.459-0.298 0-0.591-0.024-0.876-0.070 0.981 0.943 2.314 1.523 3.783 1.523 3.015 0 5.459-2.444 5.459-5.459 0-2.716-1.984-4.97-4.582-5.389z"></path>
<path fill="#f6f9f9" style="fill: var(--color6, #f6f9f9)" d="M34.454 25.341l-1.032-1.032c-0.108-0.108-0.284-0.108-0.393 0l-1.996 1.996c-0.108 0.108-0.284 0.108-0.393 0l-0.958-0.958c-0.108-0.108-0.284-0.108-0.393 0l-1.032 1.032c-0.108 0.108-0.108 0.284 0 0.392l2.383 2.383c0.108 0.108 0.284 0.108 0.393 0l3.42-3.42c0.108-0.108 0.108-0.284 0-0.393z"></path>
<path fill="#e7ecf1" style="fill: var(--color7, #e7ecf1)" d="M33.902 24.79c0.004 0.090 0.007 0.18 0.007 0.271 0 0.484-0.063 0.953-0.181 1.4l0.726-0.726c0.108-0.108 0.108-0.284 0-0.393l-0.552-0.552z"></path>
</symbol>
<symbol id="icon-client-1" viewBox="0 0 32 32">
<path fill="#ff0c5d" style="fill: var(--color16, #ff0c5d)" d="M12.541 11.32l2.135 2.12c0.732 0.729 1.916 0.729 2.648 0l1.753-1.741 0.369-0.391 10.259-10.26c0.388-0.388 0.115-1.047-0.433-1.047h-3.605c-1.158 0-2.272 0.461-3.090 1.279l-6.578 6.581-2.173-2.174c-0.802-0.802-1.89-1.254-3.023-1.254h-5.123l6.873 6.874-0.013 0.013z"></path>
<path fill="#ffc005" style="fill: var(--color17, #ffc005)" d="M6.368 32c1.136 0 2.224-0.452 3.026-1.254l6.606-6.607 2.145 2.145c0.821 0.821 1.935 1.283 3.096 1.283h5.079l-6.873-6.874 0.013-0.013-2.132-2.119c-0.735-0.729-1.919-0.729-2.651 0l-1.753 1.741-0.369 0.391-10.266 10.264c-0.385 0.385-0.111 1.044 0.433 1.044z"></path>
<path fill="#221eca" style="fill: var(--color18, #221eca)" d="M7.86 16.002l-2.158 2.158c-0.811 0.812-1.27 1.916-1.27 3.065v5.098l6.873-6.874 0.013 0.013 2.126-2.142c0.729-0.735 0.729-1.922-0.006-2.654l-12.401-12.383c-0.385-0.382-1.037-0.111-1.037 0.43v3.625c0 1.165 0.452 2.256 1.276 3.081l6.584 6.585z"></path>
<path fill="#221eca" style="fill: var(--color18, #221eca)" d="M30.74 22.599l-6.565-6.597 2.18-2.19c0.789-0.792 1.232-1.868 1.232-2.985v-5.152l-6.845 6.877-0.013-0.013-2.094 2.12c-0.722 0.729-0.726 1.903-0.010 2.638l2.107 2.164 0.013-0.013 10.24 10.289c0.375 0.376 1.015 0.111 1.015-0.42v-3.669c-0.003-1.152-0.449-2.234-1.26-3.049z"></path>
</symbol>
<symbol id="icon-client-2" viewBox="0 0 32 32">
<path fill="#ffc005" style="fill: var(--color17, #ffc005)" d="M0.497 14.844c-0.004 0.003-0.010 0.003-0.014 0.003v0.004c0 0.004 0.004 0.004 0.004 0.004 0.115 0.024 0.231 0.049 0.346 0.070-0.115-0.028-0.224-0.056-0.335-0.080zM0.497 14.844c-0.004 0.003-0.010 0.003-0.014 0.003v0.004c0 0.004 0.004 0.004 0.004 0.004 0.115 0.024 0.231 0.049 0.346 0.070-0.115-0.028-0.224-0.056-0.335-0.080zM0.497 14.844c-0.004 0.003-0.010 0.003-0.014 0.003v0.004c0 0.004 0.004 0.004 0.004 0.004 0.115 0.024 0.231 0.049 0.346 0.070-0.115-0.028-0.224-0.056-0.335-0.080zM0.497 14.844c-0.004 0.003-0.010 0.003-0.014 0.003v0.004c0 0.004 0.004 0.004 0.004 0.004 0.115 0.024 0.231 0.049 0.346 0.070-0.115-0.028-0.224-0.056-0.335-0.080zM0.497 14.844c-0.004 0.003-0.010 0.003-0.014 0.003v0.004c0 0.004 0.004 0.004 0.004 0.004 0.115 0.024 0.231 0.049 0.346 0.070-0.115-0.028-0.224-0.056-0.335-0.080z"></path>
<path fill="#ff733b" style="fill: var(--color19, #ff733b)" d="M15.325 4.986c0 1.548-0.164 3.051-0.475 4.48-0.308 1.426-0.762 2.782-1.335 4.046-1.255 0.57-2.6 1.020-4.012 1.328-1.443 0.315-2.957 0.482-4.519 0.482-1.426 0-2.817-0.14-4.148-0.405-0.003 0-0.007-0.003-0.007-0.003-0.112-0.024-0.22-0.052-0.332-0.077 0.112-0.024 0.22-0.049 0.332-0.077-0.115 0.021-0.231 0.045-0.346 0.070 0.814-3.742 2.618-7.006 5.057-9.358 2.348-2.411 5.592-4.193 9.306-5v0.004c0.004 0.007 0.004 0.014 0.004 0.021 0.311 1.44 0.475 2.942 0.475 4.49z"></path>
<path fill="#ffc005" style="fill: var(--color17, #ffc005)" d="M0.827 14.921c-0.115-0.021-0.231-0.045-0.346-0.070 0 0-0.004 0-0.004-0.004v-0.004c0.004 0 0.010 0 0.014-0.003 0.115 0.028 0.224 0.056 0.335 0.080z"></path>
<path fill="#7188ff" style="fill: var(--color20, #7188ff)" d="M14.845 0.479c-1.44-0.311-2.946-0.479-4.501-0.479-3.089 0-5.997 0.657-8.531 1.81-1.153 2.533-1.81 5.441-1.81 8.53 0 1.555 0.168 3.065 0.479 4.501 0-0.004 0.004-0.004 0.004-0.004 0.814-3.742 2.618-7.006 5.057-9.358 2.348-2.411 5.592-4.193 9.306-5h-0.004z"></path>
<path fill="#ffc005" style="fill: var(--color17, #ffc005)" d="M17.143 0.493c-0.003-0.004-0.003-0.010-0.003-0.014h-0.003c-0.003 0-0.003 0.004-0.003 0.004-0.024 0.115-0.049 0.231-0.070 0.346 0.031-0.112 0.056-0.224 0.080-0.335zM17.143 0.493c-0.003-0.004-0.003-0.010-0.003-0.014h-0.003c-0.003 0-0.003 0.004-0.003 0.004-0.024 0.115-0.049 0.231-0.070 0.346 0.031-0.112 0.056-0.224 0.080-0.335zM17.143 0.493c-0.003-0.004-0.003-0.010-0.003-0.014h-0.003c-0.003 0-0.003 0.004-0.003 0.004-0.024 0.115-0.049 0.231-0.070 0.346 0.031-0.112 0.056-0.224 0.080-0.335zM17.143 0.493c-0.003-0.004-0.003-0.010-0.003-0.014h-0.003c-0.003 0-0.003 0.004-0.003 0.004-0.024 0.115-0.049 0.231-0.070 0.346 0.031-0.112 0.056-0.224 0.080-0.335zM17.143 0.493c-0.003-0.004-0.003-0.010-0.003-0.014h-0.003c-0.003 0-0.003 0.004-0.003 0.004-0.024 0.115-0.049 0.231-0.070 0.346 0.031-0.112 0.056-0.224 0.080-0.335z"></path>
<path fill="#ff733b" style="fill: var(--color19, #ff733b)" d="M27.006 15.326c-1.548 0-3.051-0.164-4.484-0.475-1.429-0.307-2.785-0.762-4.050-1.338-0.57-1.255-1.020-2.6-1.328-4.015-0.315-1.443-0.482-2.96-0.482-4.518 0-1.429 0.14-2.816 0.405-4.148 0-0.003 0.003-0.007 0.003-0.007 0.024-0.112 0.052-0.22 0.077-0.332 0.024 0.112 0.049 0.22 0.077 0.332-0.021-0.115-0.045-0.231-0.070-0.346 3.746 0.814 7.010 2.621 9.362 5.056 2.411 2.352 4.194 5.591 5.001 9.309h-0.003c-0.007 0.004-0.014 0.004-0.021 0.004-1.433 0.315-2.936 0.479-4.487 0.479z"></path>
<path fill="#ffc005" style="fill: var(--color17, #ffc005)" d="M17.070 0.825c0.021-0.115 0.045-0.231 0.070-0.346 0 0 0-0.004 0.003-0.004h0.003c0 0.004 0 0.010 0.003 0.014-0.031 0.115-0.056 0.227-0.080 0.335z"></path>
<path fill="#7188ff" style="fill: var(--color20, #7188ff)" d="M31.521 14.848c0.311-1.436 0.479-2.946 0.479-4.501 0-3.092-0.657-6-1.814-8.533-2.537-1.157-5.441-1.814-8.534-1.814-1.555 0-3.065 0.168-4.505 0.479 0.003 0 0.003 0.004 0.003 0.004 3.746 0.814 7.010 2.621 9.362 5.056 2.411 2.352 4.194 5.591 5.001 9.309h0.007c0 0-0.003 0 0 0z"></path>
<path fill="#ffc005" style="fill: var(--color17, #ffc005)" d="M31.498 17.145c0.003-0.003 0.011-0.003 0.014-0.003v-0.003c0-0.003-0.003-0.003-0.003-0.003-0.115-0.024-0.231-0.049-0.346-0.070 0.115 0.031 0.227 0.056 0.335 0.080zM31.498 17.145c0.003-0.003 0.011-0.003 0.014-0.003v-0.003c0-0.003-0.003-0.003-0.003-0.003-0.115-0.024-0.231-0.049-0.346-0.070 0.115 0.031 0.227 0.056 0.335 0.080zM31.498 17.145c0.003-0.003 0.011-0.003 0.014-0.003v-0.003c0-0.003-0.003-0.003-0.003-0.003-0.115-0.024-0.231-0.049-0.346-0.070 0.115 0.031 0.227 0.056 0.335 0.080zM31.498 17.145c0.003-0.003 0.011-0.003 0.014-0.003v-0.003c0-0.003-0.003-0.003-0.003-0.003-0.115-0.024-0.231-0.049-0.346-0.070 0.115 0.031 0.227 0.056 0.335 0.080zM31.498 17.145c0.003-0.003 0.011-0.003 0.014-0.003v-0.003c0-0.003-0.003-0.003-0.003-0.003-0.115-0.024-0.231-0.049-0.346-0.070 0.115 0.031 0.227 0.056 0.335 0.080z"></path>
<path fill="#ff733b" style="fill: var(--color19, #ff733b)" d="M16.67 27.003c0-1.548 0.164-3.051 0.475-4.48 0.308-1.426 0.762-2.782 1.335-4.046 1.255-0.57 2.6-1.020 4.012-1.328 1.443-0.314 2.957-0.482 4.519-0.482 1.426 0 2.817 0.14 4.148 0.405 0.003 0 0.007 0.003 0.007 0.003 0.112 0.024 0.22 0.052 0.332 0.077-0.112 0.024-0.22 0.049-0.332 0.077 0.115-0.021 0.231-0.045 0.346-0.070-0.814 3.742-2.618 7.006-5.057 9.358-2.348 2.411-5.592 4.193-9.306 5v-0.003c-0.003-0.007-0.003-0.014-0.003-0.021-0.311-1.436-0.475-2.942-0.475-4.49z"></path>
<path fill="#ffc005" style="fill: var(--color17, #ffc005)" d="M31.167 17.072c0.115 0.021 0.231 0.045 0.346 0.070 0 0 0.003 0 0.003 0.003v0.003c-0.003 0-0.011 0-0.014 0.003-0.112-0.031-0.224-0.056-0.335-0.080z"></path>
<path fill="#7188ff" style="fill: var(--color20, #7188ff)" d="M17.152 31.514c1.436 0.311 2.946 0.479 4.501 0.479 3.089 0 5.997-0.657 8.531-1.81 1.153-2.533 1.81-5.441 1.81-8.53 0-1.555-0.168-3.065-0.479-4.501 0 0.003-0.003 0.003-0.003 0.003-0.814 3.742-2.618 7.006-5.057 9.358-2.348 2.411-5.592 4.193-9.306 5h0.003c0 0 0-0.003 0 0z"></path>
<path fill="#ffc005" style="fill: var(--color17, #ffc005)" d="M14.853 31.497c0.004 0.003 0.004 0.010 0.004 0.014h0.004c0.004 0 0.004-0.003 0.004-0.003 0.024-0.115 0.049-0.231 0.070-0.346-0.031 0.115-0.056 0.227-0.080 0.335zM14.853 31.497c0.004 0.003 0.004 0.010 0.004 0.014h0.004c0.004 0 0.004-0.003 0.004-0.003 0.024-0.115 0.049-0.231 0.070-0.346-0.031 0.115-0.056 0.227-0.080 0.335zM14.853 31.497c0.004 0.003 0.004 0.010 0.004 0.014h0.004c0.004 0 0.004-0.003 0.004-0.003 0.024-0.115 0.049-0.231 0.070-0.346-0.031 0.115-0.056 0.227-0.080 0.335zM14.853 31.497c0.004 0.003 0.004 0.010 0.004 0.014h0.004c0.004 0 0.004-0.003 0.004-0.003 0.024-0.115 0.049-0.231 0.070-0.346-0.031 0.115-0.056 0.227-0.080 0.335zM14.853 31.497c0.004 0.003 0.004 0.010 0.004 0.014h0.004c0.004 0 0.004-0.003 0.004-0.003 0.024-0.115 0.049-0.231 0.070-0.346-0.031 0.115-0.056 0.227-0.080 0.335z"></path>
<path fill="#ff733b" style="fill: var(--color19, #ff733b)" d="M4.991 16.663c1.548 0 3.051 0.164 4.484 0.475 1.429 0.308 2.785 0.762 4.050 1.338 0.57 1.255 1.020 2.6 1.328 4.015 0.315 1.443 0.482 2.96 0.482 4.518 0 1.429-0.14 2.816-0.405 4.148 0 0.003-0.004 0.007-0.004 0.007-0.024 0.112-0.052 0.22-0.077 0.332-0.024-0.112-0.049-0.22-0.077-0.332 0.021 0.115 0.045 0.231 0.070 0.346-3.746-0.814-7.010-2.621-9.362-5.056-2.411-2.352-4.194-5.591-5.001-9.309h0.004c0.007-0.003 0.014-0.003 0.021-0.003 1.433-0.314 2.939-0.479 4.487-0.479z"></path>
<path fill="#ffc005" style="fill: var(--color17, #ffc005)" d="M14.93 31.165c-0.021 0.115-0.045 0.231-0.070 0.346 0 0 0 0.003-0.004 0.003h-0.004c0-0.003 0-0.010-0.004-0.014 0.028-0.112 0.052-0.224 0.080-0.335z"></path>
<path fill="#7188ff" style="fill: var(--color20, #7188ff)" d="M0.479 17.145c-0.311 1.436-0.479 2.946-0.479 4.501 0 3.093 0.657 6 1.814 8.533 2.534 1.153 5.441 1.814 8.534 1.814 1.555 0 3.065-0.168 4.505-0.479-0.004 0-0.004-0.003-0.004-0.003-3.746-0.814-7.010-2.621-9.362-5.056-2.411-2.352-4.194-5.591-5.001-9.309h-0.007z"></path>
</symbol>
<symbol id="icon-client-3" viewBox="0 0 32 32">
<path fill="#93d8de" style="fill: var(--color1, #93d8de)" d="M20.363 20.359c-0.916 2.034-2.448 3.728-4.361 4.842-1.574 0.92-3.4 1.442-5.354 1.442-1.553 0-3.030-0.332-4.361-0.934-3.621-1.622-6.163-5.208-6.284-9.4-0.003-0.104-0.003-0.204-0.003-0.308s0-0.207 0.003-0.308c0.118-4.191 2.663-7.778 6.28-9.403-0.598 1.332-0.93 2.805-0.93 4.358 0 1.95 0.526 3.78 1.442 5.354 1.114 1.912 2.808 3.445 4.842 4.357 1.332 0.598 2.805 0.93 4.361 0.93s3.033-0.332 4.364-0.93z"></path>
<path fill="#93d8de" style="fill: var(--color1, #93d8de)" d="M31.999 16.002c0 0.104 0 0.207-0.003 0.308-0.118 4.192-2.663 7.778-6.277 9.403 0.598-1.331 0.93-2.808 0.93-4.361 0-1.95-0.526-3.78-1.442-5.354-1.114-1.912-2.808-3.448-4.842-4.361-1.331-0.598-2.805-0.93-4.361-0.93s-3.030 0.332-4.361 0.93c0.913-2.034 2.449-3.725 4.357-4.842 1.574-0.92 3.4-1.442 5.354-1.442 1.556 0 3.033 0.332 4.364 0.934 3.614 1.625 6.159 5.212 6.277 9.403 0 0.104 0.003 0.207 0.003 0.311z"></path>
<path fill="#221eca" style="fill: var(--color2, #221eca)" d="M25.716 6.287c-1.331-0.598-2.808-0.934-4.364-0.934-1.951 0-3.78 0.526-5.354 1.442-1.912 1.114-3.444 2.808-4.357 4.842-0.598 1.331-0.934 2.808-0.934 4.361s0.332 3.029 0.93 4.357c-2.034-0.913-3.725-2.448-4.842-4.357-0.92-1.574-1.442-3.4-1.442-5.354 0-1.553 0.332-3.030 0.93-4.357 1.625-3.617 5.215-6.163 9.407-6.284 0.104-0.003 0.207-0.003 0.311-0.003s0.207 0 0.308 0.003c4.195 0.121 7.781 2.666 9.407 6.284z"></path>
<path fill="#221eca" style="fill: var(--color2, #221eca)" d="M15.691 31.993c-4.191-0.118-7.781-2.663-9.407-6.28 1.331 0.598 2.805 0.934 4.361 0.934 1.95 0 3.78-0.526 5.354-1.442 1.912-1.114 3.448-2.808 4.361-4.842 0.598-1.331 0.93-2.805 0.93-4.358s-0.332-3.033-0.93-4.361c2.034 0.913 3.728 2.449 4.842 4.361 0.92 1.574 1.442 3.4 1.442 5.354 0 1.553-0.332 3.029-0.93 4.361-1.625 3.617-5.215 6.163-9.407 6.28z"></path>
</symbol>
<symbol id="icon-client-4" viewBox="0 0 37 32">
<path fill="#7188ff" style="fill: var(--color20, #7188ff)" opacity="0.9" d="M8.441 31.435c-1.817-0.661-3.338-1.644-4.586-2.956-1.245-1.306-2.187-2.963-2.82-4.988-0.636-2.028-0.959-4.426-0.959-7.192 0-2.783 0.323-5.198 0.956-7.243s1.575-3.718 2.82-5.041c1.252-1.33 2.773-2.325 4.59-2.993 1.639-0.605 3.523-0.939 5.656-0.999-0.35 0.124-0.693 0.254-1.023 0.401-1.582 0.691-2.958 1.65-4.108 2.86-1.322 1.386-2.315 3.117-2.985 5.178-0.67 2.058-1.020 4.443-1.060 7.156-0.003 0.17-0.003 0.347-0.003 0.531 0 0.18 0.003 0.357 0.003 0.531v0.003c0.027 1.406 0.165 2.679 0.407 3.815 0.091 0.444 0.192 0.872 0.313 1.273 0.38 1.246 0.919 2.288 1.635 3.113 0.791 0.912 1.831 1.593 3.089 2.038 0.582 0.204 1.215 0.361 1.888 0.471 0.050 0.007 0.101 0.017 0.148 0.023 0.030 0.003 0.061 0.007 0.088 0.013 0.703 0.1 1.447 0.15 2.244 0.154h1.595c0.195 0 0.39-0.003 0.579-0.010 0.582-0.013 1.134-0.064 1.659-0.137h0.003c1.12-0.157 2.12-0.444 2.995-0.872 0.878-0.428 1.629-0.999 2.238-1.7 0.804-0.919 1.386-2.105 1.77-3.541s0.572-3.127 0.572-5.071c0-1.941-0.185-3.631-0.565-5.071-0.38-1.436-0.956-2.629-1.743-3.561-0.606-0.708-1.353-1.283-2.234-1.714-0.034-0.013-0.067-0.027-0.101-0.043h0.71c0.781 0 1.504 0.053 2.17 0.147 0.017 0.003 0.037 0.003 0.057 0.007 0.044 0.007 0.091 0.017 0.135 0.023 0.111 0.017 0.215 0.037 0.323 0.057 0.064 0.013 0.125 0.023 0.188 0.037 0.017 0.003 0.034 0.010 0.054 0.013l0.037 0.007c0.034 0.007 0.064 0.013 0.091 0.023 0.061 0.013 0.121 0.027 0.178 0.043 0.158 0.040 0.313 0.084 0.464 0.13 0.030 0.010 0.057 0.017 0.087 0.027 0.101 0.033 0.202 0.067 0.299 0.1 1.11 0.404 1.985 0.999 2.658 1.787 0.639 0.752 1.154 1.757 1.514 3.013 0.081 0.281 0.155 0.581 0.219 0.889 0.172 0.872 0.283 1.844 0.323 2.923 0.003 0.11 0.007 0.214 0.010 0.311v0.003c0.003 0.063 0.003 0.14 0.003 0.227 0 0.090-0.003 0.187-0.003 0.347 0 0.18 0.003 0.438 0.003 0.661v0.043c0 0.087 0 0.167-0.003 0.234v0.003c-0.003 0.1-0.007 0.204-0.010 0.317-0.077 2.509-0.437 4.697-1.067 6.561s-1.528 3.404-2.692 4.643c-1.063 1.129-2.322 2.014-3.789 2.666z"></path>
<path fill="#6461da" style="fill: var(--color21, #6461da)" d="M23.879 32c1.581-0.702 2.954-1.67 4.109-2.896 1.275-1.35 2.244-3.027 2.907-5.004 0.67-1.978 1.036-4.259 1.121-6.842v-0.003c0.003-0.097 0.007-0.204 0.010-0.321 0-0.003 0-0.003 0-0.003 0.003-0.093 0.003-0.177 0.003-0.251v-0.053c0-0.23-0.003-0.491-0.003-0.661 0-0.15 0.003-0.234 0.003-0.341v-0.013c0-0.070 0-0.154-0.003-0.247v-0.003c0 0 0 0 0-0.003-0.003-0.114-0.007-0.217-0.010-0.314v-0.007c-0.064-1.667-0.283-3.12-0.66-4.366s-0.919-2.288-1.635-3.113c-0.791-0.912-1.831-1.59-3.089-2.038-1.255-0.444-2.729-0.658-4.418-0.661h-1.595c-0.777 0-1.511 0.050-2.194 0.147h-0.003c-1.12 0.157-2.12 0.444-2.995 0.872s-1.629 0.999-2.238 1.7c-0.801 0.919-1.386 2.105-1.77 3.541s-0.572 3.127-0.572 5.071c0 1.941 0.185 3.631 0.565 5.071 0.38 1.436 0.956 2.629 1.746 3.561 0.606 0.708 1.353 1.283 2.234 1.714 0.034 0.013 0.067 0.027 0.101 0.043h-0.754c-1.582 0-2.931-0.21-4.041-0.615s-1.985-0.999-2.658-1.787c-0.639-0.752-1.158-1.757-1.518-3.013s-0.569-2.766-0.602-4.513c-0.003-0.174-0.003-0.344-0.003-0.514 0-0.174 0.003-0.347 0.003-0.518 0.037-2.636 0.38-4.924 1.013-6.865s1.555-3.534 2.759-4.801c1.063-1.116 2.322-1.991 3.789-2.636s3.146-1.056 5.041-1.226c0.673-0.060 1.373-0.090 2.1-0.090h1.595c2.413 0 4.526 0.334 6.339 0.996 1.817 0.661 3.338 1.644 4.59 2.956 0.619 0.655 1.168 1.393 1.639 2.225s0.868 1.75 1.184 2.763c0.633 2.028 0.956 4.423 0.956 7.192 0 2.783-0.323 5.198-0.956 7.239-0.633 2.044-1.575 3.718-2.82 5.041-1.252 1.33-2.773 2.325-4.59 2.993z"></path>
</symbol>
<symbol id="icon-dashboard" viewBox="0 0 37 32">
<path fill="#f6f9f9" style="fill: var(--color6, #f6f9f9)" d="M32.871 4.931l-14.048-0.928-17.992 0.928v22.799c0 0.397 0.397 0.72 0.886 0.72h30.267c0.489 0 0.887-0.322 0.887-0.72v-22.799z"></path>
<path fill="#e7ecf1" style="fill: var(--color7, #e7ecf1)" d="M32.871 4.931l-2.369-1.183v18.034c0 3.030-2.459 5.485-5.492 5.485h-24.166v0.464c0 0.397 0.323 0.72 0.72 0.72h30.586c0.398 0 0.72-0.322 0.72-0.72v-22.8z"></path>
<path fill="#61a2f9" style="fill: var(--color12, #61a2f9)" d="M32.151 0.727h-30.586c-0.398 0-0.72 0.322-0.72 0.72l-0.013 3.484h32.040v-3.484c0-0.397-0.322-0.72-0.72-0.72z"></path>
<path fill="#5490f9" style="fill: var(--color13, #5490f9)" d="M32.151 0.727h-1.649v4.203h2.369v-3.484c0-0.397-0.322-0.72-0.72-0.72z"></path>
<path fill="#dae4ea" style="fill: var(--color10, #dae4ea)" d="M3.447 19.698v-1.040c0-0.128 0.173-0.233 0.386-0.233h21.854c0.213 0 0.386 0.104 0.386 0.233v1.040c0 0.129-0.173 0.233-0.386 0.233h-21.854c-0.213 0-0.386-0.104-0.386-0.233z"></path>
<path fill="#dae4ea" style="fill: var(--color10, #dae4ea)" d="M3.447 22.708v-1.040c0-0.129 0.139-0.233 0.31-0.233h17.529c0.171 0 0.31 0.104 0.31 0.233v1.040c0 0.128-0.139 0.233-0.31 0.233h-17.529c-0.171 0-0.31-0.104-0.31-0.233z"></path>
<path fill="#dae4ea" style="fill: var(--color10, #dae4ea)" d="M3.447 14.962v-5.722c0-0.706 0.622-1.278 1.39-1.278h7.747c0.767 0 1.39 0.572 1.39 1.278v5.722c0 0.706-0.622 1.278-1.39 1.278h-7.747c-0.768 0-1.39-0.572-1.39-1.278z"></path>
<path fill="#dae4ea" style="fill: var(--color10, #dae4ea)" d="M15.547 14.962v-5.722c0-0.706 0.622-1.278 1.39-1.278h7.747c0.767 0 1.39 0.572 1.39 1.278v5.722c0 0.706-0.622 1.278-1.39 1.278h-7.747c-0.768 0-1.39-0.572-1.39-1.278z"></path>
<path fill="#c8d2d8" style="fill: var(--color22, #c8d2d8)" d="M35.447 24.063l-0.955-0.207c-0.083-0.254-0.186-0.502-0.308-0.74l0.529-0.821c0.094-0.147 0.074-0.339-0.050-0.463l-1.488-1.486c-0.124-0.123-0.316-0.144-0.463-0.050l-0.822 0.528c-0.239-0.121-0.487-0.224-0.741-0.307l-0.208-0.954c-0.037-0.171-0.188-0.292-0.363-0.292h-2.104c-0.175 0-0.326 0.122-0.363 0.292l-0.208 0.954c-0.254 0.083-0.503 0.186-0.741 0.307l-0.822-0.528c-0.147-0.094-0.34-0.073-0.463 0.050l-1.488 1.486c-0.124 0.124-0.144 0.316-0.050 0.463l0.529 0.821c-0.121 0.239-0.224 0.486-0.308 0.74l-0.955 0.207c-0.171 0.037-0.292 0.188-0.292 0.362v2.101c0 0.174 0.122 0.325 0.292 0.362l0.955 0.207c0.083 0.254 0.186 0.502 0.308 0.74l-0.529 0.821c-0.094 0.147-0.074 0.339 0.050 0.463l1.488 1.486c0.124 0.123 0.316 0.144 0.463 0.050l0.822-0.528c0.239 0.121 0.487 0.224 0.741 0.307l0.208 0.954c0.037 0.171 0.188 0.292 0.363 0.292h2.104c0.175 0 0.326-0.122 0.363-0.292l0.208-0.954c0.254-0.083 0.503-0.186 0.741-0.307l0.822 0.528c0.147 0.094 0.34 0.073 0.463-0.050l1.488-1.486c0.124-0.124 0.144-0.316 0.050-0.463l-0.529-0.821c0.121-0.239 0.224-0.486 0.308-0.74l0.955-0.207c0.171-0.037 0.293-0.188 0.293-0.362v-2.101c0-0.174-0.122-0.325-0.293-0.362zM31.755 25.476c0 1.227-0.999 2.225-2.228 2.225s-2.228-0.998-2.228-2.225 0.999-2.225 2.228-2.225c1.228 0.001 2.228 0.999 2.228 2.225z"></path>
</symbol>
<symbol id="icon-facebook" viewBox="0 0 16 32">
<path d="M13.756 15.422h-4.308v15.42h-6.425v-15.42h-3.023v-5.442h3.023v-3.553c0-2.494 1.209-6.425 6.425-6.425h4.762v5.291h-3.401c-0.529 0-1.361 0.302-1.361 1.512v3.175h4.838l-0.529 5.442z"></path>
</symbol>
<symbol id="icon-googleplay" viewBox="0 0 133 32">
<path d="M69.85 7.452c-1.030 0-1.899-0.362-2.586-1.074-0.681-0.693-1.062-1.647-1.045-2.622 0-1.040 0.352-1.921 1.045-2.619 0.684-0.713 1.552-1.074 2.583-1.074 1.019 0 1.887 0.362 2.586 1.074 0.693 0.721 1.045 1.602 1.045 2.619-0.011 1.043-0.363 1.924-1.045 2.619-0.684 0.718-1.552 1.077-2.583 1.077zM39.194 7.452c-1.008 0-1.882-0.356-2.597-1.060-0.71-0.701-1.070-1.587-1.070-2.633s0.36-1.932 1.070-2.633c0.701-0.704 1.575-1.060 2.597-1.060 0.5 0 0.985 0.1 1.45 0.302 0.457 0.197 0.829 0.465 1.104 0.792l0.068 0.083-0.769 0.758-0.080-0.094c-0.434-0.519-1.016-0.772-1.785-0.772-0.687 0-1.286 0.245-1.78 0.73-0.497 0.487-0.749 1.126-0.749 1.898s0.253 1.411 0.749 1.898c0.494 0.484 1.093 0.73 1.78 0.73 0.732 0 1.348-0.245 1.828-0.73 0.284-0.285 0.46-0.684 0.522-1.188h-2.466v-1.066h3.525l0.014 0.097c0.026 0.18 0.051 0.365 0.051 0.536 0 0.983-0.295 1.778-0.88 2.366-0.664 0.695-1.533 1.049-2.583 1.049zM79.955 7.301h-1.087l-3.329-5.349 0.028 0.963v4.383h-1.087v-7.082h1.24l0.034 0.054 3.131 5.039-0.028-0.96v-4.133h1.099v7.085zM61.682 7.301h-1.101v-6.019h-1.91v-1.066h4.919v1.066h-1.91v6.019h0.003zM57.773 7.301h-1.099v-7.085h1.099v7.085zM51.6 7.301h-1.098v-6.019h-1.91v-1.066h4.919v1.066h-1.91v6.019zM47.896 7.29h-4.212v-7.074h4.212v1.066h-3.111v1.944h2.807v1.054h-2.807v1.944h3.111v1.066zM68.071 5.645c0.491 0.493 1.087 0.741 1.78 0.741 0.712 0 1.294-0.242 1.78-0.741 0.483-0.484 0.727-1.12 0.727-1.887s-0.244-1.405-0.724-1.887c-0.491-0.493-1.090-0.741-1.78-0.741-0.712 0-1.294 0.242-1.777 0.741-0.483 0.485-0.727 1.12-0.727 1.887s0.241 1.405 0.721 1.887z"></path>
<path d="M66.118 17.193c-2.682 0-4.856 2.043-4.856 4.862 0 2.793 2.188 4.862 4.856 4.862 2.682 0 4.856-2.058 4.856-4.862 0-2.819-2.174-4.862-4.856-4.862zM66.118 24.991c-1.467 0-2.73-1.22-2.73-2.947 0-1.753 1.266-2.947 2.73-2.947 1.467 0 2.731 1.194 2.731 2.947 0.003 1.738-1.263 2.947-2.731 2.947zM55.522 17.193c-2.682 0-4.856 2.043-4.856 4.862 0 2.793 2.188 4.862 4.856 4.862 2.682 0 4.856-2.058 4.856-4.862 0-2.819-2.177-4.862-4.856-4.862zM55.522 24.991c-1.467 0-2.73-1.22-2.73-2.947 0-1.753 1.266-2.947 2.73-2.947 1.467 0 2.73 1.194 2.73 2.947 0 1.738-1.263 2.947-2.73 2.947zM42.914 18.678v2.058h4.919c-0.151 1.154-0.531 2.006-1.113 2.591-0.721 0.724-1.834 1.511-3.795 1.511-3.023 0-5.387-2.451-5.387-5.486s2.364-5.486 5.387-5.486c1.632 0 2.821 0.647 3.704 1.473l1.453-1.459c-1.226-1.18-2.858-2.083-5.146-2.083-4.147 0-7.627 3.392-7.627 7.544 0 4.164 3.477 7.544 7.627 7.544 2.239 0 3.92-0.735 5.248-2.12 1.354-1.359 1.782-3.277 1.782-4.825 0-0.482-0.037-0.915-0.114-1.282h-6.943c0.003-0.003 0.003 0.023 0.003 0.023zM94.484 20.28c-0.406-1.092-1.632-3.098-4.147-3.098-2.492 0-4.564 1.969-4.564 4.862 0 2.73 2.049 4.862 4.805 4.862 2.214 0 3.502-1.359 4.033-2.157l-1.643-1.106c-0.545 0.812-1.303 1.345-2.379 1.345-1.087 0-1.848-0.496-2.353-1.473l6.474-2.693c0 0.003-0.227-0.542-0.227-0.542zM87.882 21.904c-0.051-1.878 1.453-2.833 2.529-2.833 0.849 0 1.555 0.419 1.797 1.029l-4.326 1.804zM82.622 26.615h2.126v-14.284h-2.126v14.284zM79.131 18.273h-0.077c-0.48-0.573-1.391-1.092-2.555-1.092-2.415 0-4.641 2.135-4.641 4.876 0 2.73 2.214 4.839 4.641 4.839 1.15 0 2.075-0.522 2.555-1.106h0.077v0.698c0 1.855-0.988 2.856-2.58 2.856-1.303 0-2.112-0.94-2.441-1.727l-1.848 0.775c0.531 1.282 1.947 2.87 4.286 2.87 2.492 0 4.604-1.474 4.604-5.067v-8.724h-2.010v0.801c0.003 0-0.011 0-0.011 0zM76.69 24.991c-1.467 0-2.694-1.231-2.694-2.933 0-1.716 1.226-2.958 2.694-2.958 1.453 0 2.58 1.257 2.58 2.958 0.014 1.701-1.124 2.933-2.58 2.933zM104.438 12.331h-5.084v14.284h2.126v-5.409h2.96c2.353 0 4.666-1.713 4.666-4.432s-2.305-4.443-4.669-4.443zM104.5 19.211h-3.023v-4.902h3.023c1.592 0 2.492 1.32 2.492 2.451 0 1.12-0.911 2.451-2.492 2.451zM117.627 17.167c-1.544 0-3.136 0.687-3.795 2.183l1.885 0.787c0.406-0.787 1.149-1.055 1.935-1.055 1.102 0 2.215 0.661 2.24 1.841v0.151c-0.381-0.217-1.215-0.547-2.214-0.547-2.035 0-4.099 1.117-4.099 3.212 0 1.918 1.669 3.149 3.529 3.149 1.427 0 2.214-0.647 2.704-1.397h0.077v1.106h2.050v-5.472c0-2.548-1.886-3.959-4.312-3.959zM117.361 24.991c-0.696 0-1.67-0.342-1.67-1.22 0-1.106 1.215-1.525 2.251-1.525 0.936 0 1.379 0.202 1.936 0.482-0.154 1.282-1.232 2.252-2.518 2.263zM129.415 17.472l-2.441 6.196h-0.077l-2.529-6.196h-2.287l3.794 8.661-2.162 4.814h2.214l5.839-13.475h-2.351zM110.279 26.615h2.126v-14.284h-2.126v14.284z"></path>
<path d="M18.92 19.891l-3.984-4.035 3.981-4.055c2.844 1.587 5.027 2.799 5.447 3.022 1.355 0.738 0.666 1.687 0 2.046-0.144 0.073-1.347 0.742-3.131 1.734l-0.002 0.001c-0.287 0.16-0.589 0.328-0.905 0.504-0.445 0.248-0.916 0.51-1.407 0.783z"></path>
<path d="M18.195 20.294l-3.819-3.868-12.763 12.998c0.154-0.047 0.317-0.118 0.491-0.215 0.131-0.072 0.448-0.248 0.915-0.506l0.028-0.015c2.627-1.453 9.839-5.442 15.148-8.394z"></path>
<path d="M0.571 29.345c-0.374-0.256-0.571-0.79-0.571-1.465v-23.943c0-0.746 0.26-1.206 0.62-1.441l13.194 13.361-13.243 13.487z"></path>
<path d="M1.597 2.348l12.777 12.94 3.805-3.875c-2.359-1.303-15.222-8.406-16.074-8.865-0.162-0.097-0.334-0.163-0.508-0.199z"></path>
</symbol>
<symbol id="icon-hourglass" viewBox="0 0 32 32">
<path fill="#f6f9f9" style="fill: var(--color6, #f6f9f9)" d="M18.926 17.565c4.232 3.796 6.725 7.448 7.028 12.782h-19.908c0.303-5.334 2.796-8.986 7.028-12.782l1.746-1.566-1.746-1.563c-4.232-3.796-6.725-7.448-7.028-12.782h19.908c-0.303 5.335-2.796 8.986-7.028 12.782l-1.746 1.563 1.746 1.566z"></path>
<path fill="#2f4859" style="fill: var(--color25, #2f4859)" d="M5.855 2.77h20.291c0.683 0 1.236-0.497 1.236-1.109s-0.553-1.109-1.236-1.109h-20.291c-0.683 0-1.236 0.497-1.236 1.109s0.553 1.109 1.236 1.109z"></path>
<path fill="#f7be56" style="fill: var(--color26, #f7be56)" d="M11.892 23.95c-2.544 1.318-4.111 3.754-4.111 6.389h16.438c0-2.636-1.567-5.071-4.111-6.389l-3.408-1.766c0-4.281 0-5.352 0-9.633l2.41-1.249c1.648-0.854 2.755-2.328 3.039-3.986 0.076-0.445-0.302-0.849-0.804-0.849h-10.688c-0.502 0-0.88 0.404-0.804 0.849 0.284 1.658 1.391 3.132 3.039 3.986l2.577 1.335c0 4.204 0 5.256 0 9.46l-3.576 1.853z"></path>
<path fill="#2f4859" style="fill: var(--color25, #2f4859)" d="M26.146 29.23h-20.291c-0.683 0-1.236 0.496-1.236 1.109s0.553 1.109 1.236 1.109h20.291c0.683 0 1.236-0.497 1.236-1.109s-0.553-1.109-1.236-1.109z"></path>
</symbol>
<symbol id="icon-instagram" viewBox="0 0 30 32">
<path d="M14.629 0c1.956 0.074 3.981 0.074 5.937 0.149 1.746 0.074 3.353 0.372 4.889 1.337 1.956 1.263 3.143 3.121 3.562 5.498 0.21 1.412 0.28 2.898 0.349 4.31 0.070 3.121 0 6.242 0 9.362 0 1.635-0.070 3.269-0.559 4.83-0.978 3.046-3.003 4.904-5.937 5.499-1.327 0.297-2.724 0.297-4.051 0.372-2.934 0.074-5.797 0-8.731 0-1.537 0-3.073-0.074-4.54-0.594-2.864-1.040-4.61-3.195-5.169-6.316-0.279-1.412-0.279-2.898-0.349-4.31-0.070-3.121 0-6.242 0-9.362 0-1.635 0.070-3.269 0.559-4.83 0.978-3.046 3.003-4.904 5.937-5.498 1.327-0.297 2.724-0.297 4.051-0.372s2.654-0.074 4.051-0.074zM26.713 15.381c-0.070 0 0 0 0 0-0.070-1.263-0.070-2.452-0.070-3.715 0-1.189-0.070-2.378-0.209-3.567-0.279-2.675-1.746-4.458-4.191-4.978-1.257-0.297-2.654-0.297-3.912-0.297-2.515-0.074-4.959-0.074-7.474 0-1.257 0-2.515 0.074-3.702 0.297-2.095 0.372-3.562 1.635-4.191 3.864-0.21 0.743-0.279 1.486-0.349 2.229-0.070 2.824-0.070 5.647-0.070 8.471 0 1.783 0.070 3.641 0.21 5.424 0.21 2.675 1.746 4.533 4.261 4.978 1.257 0.223 2.584 0.297 3.912 0.297 2.445 0.074 4.889 0 7.404 0 1.118 0 2.235-0.074 3.353-0.223 1.048-0.074 2.026-0.446 2.864-1.189 1.397-1.189 1.886-2.749 1.956-4.533 0.14-2.229 0.14-4.607 0.209-7.059z"></path>
<path d="M22.176 15.679c0 4.458-3.353 8.025-7.544 8.025s-7.544-3.567-7.544-8.099c0-4.384 3.423-7.95 7.614-7.95 4.121 0 7.474 3.567 7.474 8.025zM14.632 20.881c2.654 0 4.889-2.378 4.889-5.201s-2.235-5.201-4.889-5.201c-2.724 0-4.889 2.378-4.889 5.201-0.070 2.824 2.165 5.201 4.889 5.201z"></path>
<path d="M24.195 6.845c0 0.978-0.768 1.816-1.746 1.816s-1.816-0.838-1.746-1.816c0-0.978 0.768-1.746 1.746-1.746s1.746 0.768 1.746 1.746z"></path>
</symbol>
<symbol id="icon-linkedin" viewBox="0 0 34 32">
<path d="M32.654 19.102v12.058h-7.041v-11.266c0-2.817-0.968-4.753-3.521-4.753-1.936 0-3.080 1.32-3.609 2.552-0.176 0.44-0.264 1.056-0.264 1.672v11.794h-7.041c0 0 0.088-19.099 0-21.036h7.041v2.993c0 0 0 0.088-0.088 0.088h0.088v-0.088c0.968-1.408 2.552-3.521 6.337-3.521 4.577 0 8.097 3.081 8.097 9.506zM3.961 0.002c-2.376 0-3.961 1.584-3.961 3.609s1.496 3.609 3.873 3.609h0.088c2.464 0 3.961-1.584 3.961-3.609-0.088-2.024-1.584-3.609-3.961-3.609zM0.352 31.16h6.953v-21.036h-6.953v21.036z"></path>
</symbol>
<symbol id="icon-list" viewBox="0 0 32 32">
<path fill="#f6f9f9" style="fill: var(--color6, #f6f9f9)" d="M29.514 6.838l-11.851-0.965-15.178 0.965v23.687c0 0.413 0.335 0.747 0.747 0.747h25.534c0.413 0 0.748-0.335 0.748-0.748l-0-23.687z"></path>
<path fill="#e7ecf1" style="fill: var(--color7, #e7ecf1)" d="M29.514 6.838l-2.458-1.229v18.736c0 3.147-2.551 5.699-5.699 5.699h-18.872v0.482c0 0.413 0.335 0.747 0.747 0.747h25.534c0.413 0 0.748-0.335 0.748-0.748v-23.687z"></path>
<path fill="#61a2f9" style="fill: var(--color12, #61a2f9)" d="M28.766 2.471h-25.534c-0.413 0-0.748 0.335-0.748 0.748v3.62h27.029v-3.62c0-0.413-0.335-0.748-0.748-0.748z"></path>
<path fill="#5490f9" style="fill: var(--color13, #5490f9)" d="M28.766 2.471h-1.711v4.367h2.458v-3.62c0-0.413-0.335-0.748-0.747-0.748z"></path>
<path fill="#dae4ea" style="fill: var(--color10, #dae4ea)" d="M6.305 4.842h-0.42c-0.411 0-0.745-0.333-0.745-0.745v-2.625c0-0.411 0.333-0.745 0.745-0.745h0.42c0.411 0 0.745 0.334 0.745 0.745v2.625c0 0.411-0.333 0.745-0.745 0.745z"></path>
<path fill="#dae4ea" style="fill: var(--color10, #dae4ea)" d="M11.257 4.842h-0.42c-0.411 0-0.745-0.333-0.745-0.745v-2.625c0-0.411 0.334-0.745 0.745-0.745h0.42c0.411 0 0.745 0.334 0.745 0.745v2.625c0 0.411-0.334 0.745-0.745 0.745z"></path>
<path fill="#dae4ea" style="fill: var(--color10, #dae4ea)" d="M16.208 4.842h-0.42c-0.411 0-0.745-0.333-0.745-0.745v-2.625c0-0.411 0.334-0.745 0.745-0.745h0.42c0.411 0 0.745 0.334 0.745 0.745v2.625c0 0.411-0.334 0.745-0.745 0.745z"></path>
<path fill="#dae4ea" style="fill: var(--color10, #dae4ea)" d="M21.161 4.842h-0.42c-0.411 0-0.745-0.333-0.745-0.745v-2.625c0-0.411 0.333-0.745 0.745-0.745h0.42c0.411 0 0.745 0.334 0.745 0.745v2.625c0 0.411-0.334 0.745-0.745 0.745z"></path>
<path fill="#dae4ea" style="fill: var(--color10, #dae4ea)" d="M26.113 4.842h-0.42c-0.411 0-0.745-0.333-0.745-0.745v-2.625c0-0.411 0.333-0.745 0.745-0.745h0.42c0.411 0 0.745 0.334 0.745 0.745v2.625c0 0.411-0.334 0.745-0.745 0.745z"></path>
<path fill="#80e29d" style="fill: var(--color14, #80e29d)" d="M23.73 15.266l-1.935-1.935c-0.156-0.156-0.409-0.156-0.564 0l-6.682 6.682c-0.022 0.022-0.057 0.022-0.079 0l-3.689-3.689c-0.156-0.156-0.409-0.156-0.564 0l-1.947 1.947c-0.156 0.156-0.156 0.409 0 0.564l5.945 5.945c0.156 0.156 0.409 0.156 0.565 0l8.95-8.95c0.156-0.156 0.156-0.408 0-0.564z"></path>
</symbol>
<symbol id="icon-notepad" viewBox="0 0 28 32">
<path fill="#f6f9f9" style="fill: var(--color6, #f6f9f9)" d="M27.745 6.761l-11.95-0.973-15.306 0.973v23.886c0 0.416 0.337 0.754 0.754 0.754h25.748c0.416 0 0.754-0.338 0.754-0.754l-0-23.886z"></path>
<path fill="#e7ecf1" style="fill: var(--color7, #e7ecf1)" d="M27.745 6.761l-2.479-1.24v18.893c0 3.174-2.573 5.747-5.747 5.747h-19.031v0.486c0 0.416 0.337 0.754 0.754 0.754h25.748c0.416 0 0.754-0.338 0.754-0.754v-23.886z"></path>
<path fill="#61a2f9" style="fill: var(--color12, #61a2f9)" d="M26.992 2.357h-25.748c-0.416 0-0.754 0.337-0.754 0.754v3.65h27.256v-3.65c0-0.416-0.337-0.754-0.754-0.754z"></path>
<path fill="#5490f9" style="fill: var(--color13, #5490f9)" d="M26.992 2.357h-1.725v4.404h2.479v-3.65c0-0.416-0.337-0.754-0.754-0.754z"></path>
<path fill="#dae4ea" style="fill: var(--color10, #dae4ea)" d="M4.342 4.748h-0.424c-0.415 0-0.751-0.336-0.751-0.751v-2.647c0-0.415 0.336-0.751 0.751-0.751h0.424c0.415 0 0.751 0.336 0.751 0.751v2.647c0 0.415-0.336 0.751-0.751 0.751z"></path>
<path fill="#dae4ea" style="fill: var(--color10, #dae4ea)" d="M9.335 4.748h-0.424c-0.415 0-0.751-0.336-0.751-0.751v-2.647c0-0.415 0.336-0.751 0.751-0.751h0.424c0.415 0 0.751 0.336 0.751 0.751v2.647c0 0.415-0.336 0.751-0.751 0.751z"></path>
<path fill="#dae4ea" style="fill: var(--color10, #dae4ea)" d="M14.329 4.748h-0.424c-0.415 0-0.751-0.336-0.751-0.751v-2.647c0-0.415 0.336-0.751 0.751-0.751h0.424c0.415 0 0.751 0.336 0.751 0.751v2.647c0 0.415-0.336 0.751-0.751 0.751z"></path>
<path fill="#dae4ea" style="fill: var(--color10, #dae4ea)" d="M19.323 4.748h-0.424c-0.415 0-0.751-0.336-0.751-0.751v-2.647c0-0.415 0.336-0.751 0.751-0.751h0.424c0.415 0 0.751 0.336 0.751 0.751v2.647c0 0.415-0.336 0.751-0.751 0.751z"></path>
<path fill="#dae4ea" style="fill: var(--color10, #dae4ea)" d="M24.316 4.748h-0.424c-0.415 0-0.751-0.336-0.751-0.751v-2.647c0-0.415 0.336-0.751 0.751-0.751h0.424c0.415 0 0.751 0.336 0.751 0.751v2.647c0 0.415-0.336 0.751-0.751 0.751z"></path>
<path fill="#dae4ea" style="fill: var(--color10, #dae4ea)" d="M8.84 12.743v-1.090c0-0.134 0.109-0.243 0.243-0.243h13.77c0.134 0 0.243 0.109 0.243 0.243v1.090c0 0.134-0.109 0.243-0.243 0.243h-13.77c-0.134 0-0.243-0.109-0.243-0.243z"></path>
<path fill="#dae4ea" style="fill: var(--color10, #dae4ea)" d="M8.84 15.897v-1.090c0-0.134 0.109-0.243 0.243-0.243h13.77c0.134 0 0.243 0.109 0.243 0.243v1.090c0 0.134-0.109 0.243-0.243 0.243h-13.77c-0.134 0-0.243-0.109-0.243-0.243z"></path>
<path fill="#dae4ea" style="fill: var(--color10, #dae4ea)" d="M8.84 19.052v-1.090c0-0.134 0.109-0.243 0.243-0.243h13.77c0.134 0 0.243 0.109 0.243 0.243v1.090c0 0.134-0.109 0.243-0.243 0.243h-13.77c-0.134 0-0.243-0.109-0.243-0.243z"></path>
<path fill="#dae4ea" style="fill: var(--color10, #dae4ea)" d="M8.84 22.206v-1.090c0-0.134 0.109-0.243 0.243-0.243h13.77c0.134 0 0.243 0.109 0.243 0.243v1.090c0 0.134-0.109 0.243-0.243 0.243h-13.77c-0.134 0-0.243-0.109-0.243-0.243z"></path>
<path fill="#dae4ea" style="fill: var(--color10, #dae4ea)" d="M8.84 25.36v-1.090c0-0.134 0.109-0.243 0.243-0.243h13.77c0.134 0 0.243 0.109 0.243 0.243v1.090c0 0.134-0.109 0.243-0.243 0.243h-13.77c-0.134 0-0.243-0.109-0.243-0.243z"></path>
<path fill="#dae4ea" style="fill: var(--color10, #dae4ea)" d="M5.137 12.743v-1.090c0-0.134 0.109-0.243 0.243-0.243h1.357c0.134 0 0.243 0.109 0.243 0.243v1.090c0 0.134-0.109 0.243-0.243 0.243h-1.357c-0.134 0-0.243-0.109-0.243-0.243z"></path>
<path fill="#dae4ea" style="fill: var(--color10, #dae4ea)" d="M5.137 15.897v-1.090c0-0.134 0.109-0.243 0.243-0.243h1.357c0.134 0 0.243 0.109 0.243 0.243v1.090c0 0.134-0.109 0.243-0.243 0.243h-1.357c-0.134 0-0.243-0.109-0.243-0.243z"></path>
<path fill="#dae4ea" style="fill: var(--color10, #dae4ea)" d="M5.137 19.052v-1.090c0-0.134 0.109-0.243 0.243-0.243h1.357c0.134 0 0.243 0.109 0.243 0.243v1.090c0 0.134-0.109 0.243-0.243 0.243h-1.357c-0.134 0-0.243-0.109-0.243-0.243z"></path>
<path fill="#dae4ea" style="fill: var(--color10, #dae4ea)" d="M5.137 22.206v-1.090c0-0.134 0.109-0.243 0.243-0.243h1.357c0.134 0 0.243 0.109 0.243 0.243v1.090c0 0.134-0.109 0.243-0.243 0.243h-1.357c-0.134 0-0.243-0.109-0.243-0.243z"></path>
<path fill="#dae4ea" style="fill: var(--color10, #dae4ea)" d="M5.137 25.36v-1.090c0-0.134 0.109-0.243 0.243-0.243h1.357c0.134 0 0.243 0.109 0.243 0.243v1.090c0 0.134-0.109 0.243-0.243 0.243h-1.357c-0.134 0-0.243-0.109-0.243-0.243z"></path>
</symbol>
<symbol id="icon-timer" viewBox="0 0 32 32">
<path fill="#b9c1cb" style="fill: var(--color27, #b9c1cb)" d="M11.057 9.924l-0.978-1.694-0.979-0.073-0.361 0.846 0.979 1.695c0.703 0.129 1.225-0.143 1.339-0.775z"></path>
<path fill="#b9c1cb" style="fill: var(--color27, #b9c1cb)" d="M20.939 9.924l0.978-1.694 0.979-0.073 0.361 0.846-0.979 1.695c-0.703 0.129-1.225-0.143-1.339-0.775z"></path>
<path fill="#dae4ea" style="fill: var(--color10, #dae4ea)" d="M16.794 7.283c1.227-0.352 2.084-1.49 2.084-2.768 0-1.588-1.291-2.879-2.879-2.879s-2.879 1.292-2.879 2.879c0 1.278 0.857 2.416 2.084 2.768l0.124 0.96c-1.812-0.324-3.117-1.92-3.117-3.728 0-2.088 1.699-3.787 3.787-3.787s3.787 1.699 3.787 3.787c0 1.806-1.301 3.399-3.109 3.727l0.116-0.958z"></path>
<path fill="#b9c1cb" style="fill: var(--color27, #b9c1cb)" d="M15.998 9.032c0.31 0 0.616 0.014 0.92 0.043v-3.78h-1.84v3.78c0.303-0.028 0.61-0.043 0.92-0.043z"></path>
<path fill="#dae4ea" style="fill: var(--color10, #dae4ea)" d="M15.998 31.273c6.21 0 11.245-5.035 11.245-11.245s-5.035-11.245-11.245-11.245c-6.21 0-11.245 5.034-11.245 11.245s5.034 11.245 11.245 11.245z"></path>
<path fill="#dae4ea" style="fill: var(--color10, #dae4ea)" d="M17.361 3.481h-2.726c-0.135 0-0.245 0.11-0.245 0.245v1.577c0 0.135 0.11 0.245 0.245 0.245h2.726c0.135 0 0.245-0.11 0.245-0.245v-1.577c0-0.135-0.11-0.245-0.245-0.245z"></path>
<path fill="#dae4ea" style="fill: var(--color10, #dae4ea)" d="M10.219 8.15l-1.619 0.934c-0.061 0.035-0.139 0.014-0.174-0.047l-1.209-2.095c-0.035-0.061-0.014-0.139 0.047-0.174l1.619-0.934c0.061-0.035 0.139-0.014 0.174 0.047l1.209 2.095c0.035 0.061 0.014 0.139-0.046 0.174z"></path>
<path fill="#dae4ea" style="fill: var(--color10, #dae4ea)" d="M21.777 8.15l1.619 0.934c0.061 0.035 0.139 0.014 0.174-0.047l1.209-2.095c0.035-0.061 0.014-0.139-0.047-0.174l-1.619-0.934c-0.061-0.035-0.139-0.014-0.174 0.047l-1.209 2.095c-0.035 0.061-0.014 0.139 0.047 0.174z"></path>
<path fill="#f6f9f9" style="fill: var(--color6, #f6f9f9)" d="M15.998 29.228c5.081 0 9.2-4.119 9.2-9.2s-4.119-9.2-9.2-9.2-9.2 4.119-9.2 9.2c0 5.081 4.119 9.2 9.2 9.2z"></path>
<path fill="#e7ecf1" style="fill: var(--color7, #e7ecf1)" d="M18.853 11.279c2.373 1.664 3.924 4.42 3.924 7.538 0 5.081-4.119 9.2-9.2 9.2-0.996 0-1.956-0.158-2.854-0.451 1.494 1.048 3.313 1.662 5.276 1.662 5.081 0 9.2-4.119 9.2-9.2 0-4.085-2.662-7.548-6.346-8.749z"></path>
<path fill="#da4a54" style="fill: var(--color8, #da4a54)" d="M15.999 19.942v-7.513c0-0.048 0.039-0.087 0.087-0.087 4.169 0.047 7.552 3.43 7.599 7.599 0.001 0.048-0.039 0.087-0.087 0.087h-7.513c-0.048 0-0.086-0.039-0.086-0.086z"></path>
<path fill="#d82e3d" style="fill: var(--color9, #d82e3d)" d="M23.598 20.028c0.048 0 0.087-0.039 0.087-0.087-0.019-1.716-0.604-3.299-1.575-4.57 0.43 1.065 0.667 2.228 0.667 3.447 0 0.41-0.027 0.815-0.079 1.211h0.9z"></path>
</symbol>
<symbol id="icon-tracker" viewBox="0 0 32 32">
<path fill="#b9c1cb" style="fill: var(--color27, #b9c1cb)" d="M11.003 9.854l-0.989-1.713-0.99-0.074-0.365 0.856 0.99 1.714c0.711 0.13 1.239-0.145 1.355-0.784z"></path>
<path fill="#b9c1cb" style="fill: var(--color27, #b9c1cb)" d="M20.997 9.854l0.989-1.713 0.99-0.074 0.365 0.856-0.99 1.714c-0.711 0.13-1.239-0.145-1.354-0.784z"></path>
<path fill="#dae4ea" style="fill: var(--color10, #dae4ea)" d="M16.804 7.182c1.241-0.356 2.108-1.507 2.108-2.8 0-1.606-1.306-2.912-2.912-2.912s-2.912 1.306-2.912 2.912c0 1.293 0.867 2.444 2.108 2.8l0.126 0.971c-1.833-0.328-3.153-1.942-3.153-3.771 0-2.112 1.719-3.831 3.831-3.831s3.831 1.718 3.831 3.831c0 1.827-1.316 3.438-3.145 3.769l0.118-0.97z"></path>
<path fill="#b9c1cb" style="fill: var(--color27, #b9c1cb)" d="M16 8.951c0.313 0 0.624 0.015 0.93 0.043v-3.824h-1.861v3.824c0.307-0.029 0.617-0.043 0.93-0.043z"></path>
<path fill="#dae4ea" style="fill: var(--color10, #dae4ea)" d="M16 31.448c6.282 0 11.374-5.092 11.374-11.374s-5.092-11.374-11.374-11.374c-6.282 0-11.374 5.092-11.374 11.374s5.092 11.374 11.374 11.374z"></path>
<path fill="#dae4ea" style="fill: var(--color10, #dae4ea)" d="M17.379 3.337h-2.757c-0.137 0-0.248 0.111-0.248 0.248v1.595c0 0.137 0.111 0.248 0.248 0.248h2.757c0.137 0 0.248-0.111 0.248-0.248v-1.595c0-0.137-0.111-0.248-0.248-0.248z"></path>
<path fill="#dae4ea" style="fill: var(--color10, #dae4ea)" d="M10.155 8.059l-1.637 0.945c-0.062 0.036-0.14 0.014-0.176-0.047l-1.223-2.119c-0.036-0.062-0.014-0.14 0.047-0.176l1.637-0.945c0.062-0.036 0.14-0.014 0.176 0.047l1.223 2.119c0.036 0.062 0.014 0.14-0.047 0.176z"></path>
<path fill="#dae4ea" style="fill: var(--color10, #dae4ea)" d="M21.845 8.059l1.637 0.945c0.062 0.036 0.14 0.014 0.176-0.047l1.223-2.119c0.036-0.062 0.015-0.14-0.047-0.176l-1.637-0.945c-0.062-0.036-0.14-0.014-0.176 0.047l-1.223 2.119c-0.036 0.062-0.015 0.14 0.047 0.176z"></path>
<path fill="#f6f9f9" style="fill: var(--color6, #f6f9f9)" d="M16 29.381c5.14 0 9.306-4.166 9.306-9.306s-4.167-9.306-9.306-9.306c-5.14 0-9.306 4.166-9.306 9.306s4.167 9.306 9.306 9.306z"></path>
<path fill="#ffc954" style="fill: var(--color28, #ffc954)" d="M23.775 20.074c0-4.265-3.452-7.739-7.709-7.775-0.036-0-0.066 0.029-0.066 0.066v7.709h-7.709c-0.036 0-0.066 0.030-0.065 0.066 0.036 4.257 3.51 7.709 7.775 7.709 0.017 0 0.035-0 0.052-0 4.263-0.028 7.723-3.505 7.723-7.775z"></path>
<path fill="#e1a729" style="fill: var(--color29, #e1a729)" d="M18.188 12.613c1.903 1.419 3.137 3.686 3.137 6.237 0 4.27-3.46 7.747-7.723 7.775-0.017 0-0.035 0-0.052 0-0.759 0-1.494-0.109-2.188-0.313 1.296 0.966 2.901 1.538 4.638 1.538 0.017 0 0.035-0 0.052-0 4.263-0.028 7.723-3.505 7.723-7.775-0-3.528-2.362-6.514-5.587-7.462z"></path>
</symbol>
<symbol id="icon-twitter" viewBox="0 0 38 32">
<path d="M37.008 4.503c-1.393 0.61-2.787 1.045-4.354 1.219 1.567-0.958 2.787-2.438 3.309-4.18-1.48 0.871-3.135 1.48-4.789 1.829-1.393-1.48-3.396-2.438-5.573-2.438-4.18 0-7.576 3.396-7.576 7.576 0 0.61 0.087 1.219 0.174 1.742-6.357-0.348-11.93-3.309-15.674-7.924-0.697 1.132-1.045 2.438-1.045 3.831 0 2.612 1.306 4.963 3.396 6.357-1.219 0-2.438-0.348-3.483-0.958v0.087c0 3.657 2.612 6.792 6.095 7.489-0.61 0.174-1.306 0.261-2.003 0.261-0.522 0-0.958-0.087-1.393-0.174 0.958 3.048 3.744 5.224 7.14 5.312-2.612 2.003-5.834 3.222-9.404 3.222-0.61 0-1.219 0-1.829-0.087 3.396 2.177 7.314 3.396 11.668 3.396 14.019 0 21.595-11.581 21.595-21.595 0-0.348 0-0.697 0-0.958 1.48-1.132 2.786-2.525 3.744-4.005z"></path>
</symbol>
<symbol id="icon-wallet" viewBox="0 0 36 32">
<path fill="#fa855c" style="fill: var(--color30, #fa855c)" d="M32.359 9.306h-1.094v-3.283c0-0.606-0.49-1.094-1.094-1.094h-26.262c-1.81 0-3.283 1.473-3.283 3.283v19.697c0 1.81 1.473 3.283 3.283 3.283h28.451c0.604 0 1.094-0.49 1.094-1.094v-19.697c0-0.606-0.49-1.094-1.094-1.094z"></path>
<path fill="#ffd6c8" style="fill: var(--color31, #ffd6c8)" d="M34.547 22.437h-6.566c-1.812 0-3.283-1.471-3.283-3.283 0-1.814 1.471-3.283 3.283-3.283h6.566c0.604 0 1.094 0.49 1.094 1.094v4.377c0 0.604-0.49 1.094-1.094 1.094z"></path>
<path fill="#f8fefe" style="fill: var(--color32, #f8fefe)" d="M28.658 9.306l-4.075-8.15c-0.271-0.541-0.928-0.757-1.468-0.49l-17.276 8.64h22.82z"></path>
<path fill="#e6eae8" style="fill: var(--color33, #e6eae8)" d="M2.815 9.306h21.467l-4.075-8.15c-0.271-0.541-0.928-0.757-1.468-0.488l-15.924 7.962v0.676z"></path>
</symbol>
<symbol id="icon-logo" viewBox="0 0 32 32">
<path fill="#ff553e" style="fill: var(--color1, #ff553e)" d="M17.477 28.88h-8.653c-3.619 0-6.554-2.933-6.554-6.554v-13.437c0-3.619 2.933-6.554 6.554-6.554h10.544c-1.176 0.116-2.314 0.366-3.406 0.759-1.552 0.56-2.814 1.402-3.786 2.524s-1.458 2.467-1.458 4.038c0 1.682 0.412 3.048 1.235 4.092 0.821 1.047 1.813 1.832 2.973 2.354 1.157 0.525 2.653 1.047 4.485 1.571 1.496 0.449 2.664 0.842 3.506 1.178 0.84 0.336 1.542 0.805 2.104 1.402 0.56 0.597 0.839 1.364 0.839 2.298 0 1.383-0.495 2.459-1.485 3.223-0.99 0.767-2.365 1.149-4.122 1.149-1.945 0-3.43-0.328-4.458-0.982s-1.542-1.542-1.542-2.664c0-0.821 0.215-1.458 0.646-1.907s0.646-0.692 0.646-0.729c0-0.186-0.234-0.449-0.702-0.786s-1.001-0.506-1.598-0.506c-1.047 0-1.897 0.336-2.551 1.009s-0.982 1.553-0.982 2.637c0 1.907 0.934 3.385 2.803 4.429 1.356 0.767 3.013 1.246 4.961 1.455z"></path>
<path fill="#ff553e" style="fill: var(--color1, #ff553e)" d="M22.506 0h-13.8c-4.8 0-8.707 3.907-8.707 8.707v13.8c0 4.803 3.907 8.706 8.707 8.706h13.8c4.803 0 8.709-3.907 8.709-8.706v-13.8c0-4.8-3.907-8.707-8.709-8.707zM30.47 22.506c0 4.396-3.565 7.961-7.961 7.961h-13.802c-4.396 0-7.961-3.565-7.961-7.961v-13.8c0-4.396 3.565-7.961 7.961-7.961h13.8c1.875 0 3.597 0.654 4.959 1.743 1.55 1.496 2.572 4.003 1.415 6.514-0.153 0.422-0.382 0.81-0.686 1.16-0.616 0.71-1.431 1.065-2.44 1.065-0.6 0-1.13-0.169-1.598-0.506s-0.702-0.597-0.702-0.786c0-0.038 0.151-0.186 0.449-0.449 0.299-0.261 0.57-0.57 0.815-0.926 0.242-0.355 0.366-0.775 0.366-1.262-0.075-1.009-0.581-1.795-1.515-2.354-0.936-0.56-2.039-0.842-3.309-0.842-1.421 0-2.664 0.328-3.729 0.982s-1.598 1.561-1.598 2.72c0 1.047 0.223 1.878 0.673 2.494s1.122 1.114 2.018 1.485c0.896 0.374 2.317 0.88 4.262 1.515 1.98 0.635 3.533 1.224 4.655 1.768 0.952 0.46 1.725 1.063 2.341 1.792 0.008 0.011 0.016 0.019 0.024 0.030 1.044 1.256 1.566 2.863 1.566 4.496v1.122z"></path>
</symbol>
<symbol id="icon-cross" viewBox="0 0 32 32">
<path d="M31.708 25.708c-0-0-0-0-0-0l-9.708-9.708 9.708-9.708c0-0 0-0 0-0 0.105-0.105 0.18-0.227 0.229-0.357 0.133-0.356 0.057-0.771-0.229-1.057l-4.586-4.586c-0.286-0.286-0.702-0.361-1.057-0.229-0.13 0.048-0.252 0.124-0.357 0.228 0 0-0 0-0 0l-9.708 9.708-9.708-9.708c-0-0-0-0-0-0-0.105-0.104-0.227-0.18-0.357-0.228-0.356-0.133-0.771-0.057-1.057 0.229l-4.586 4.586c-0.286 0.286-0.361 0.702-0.229 1.057 0.049 0.13 0.124 0.252 0.229 0.357 0 0 0 0 0 0l9.708 9.708-9.708 9.708c-0 0-0 0-0 0-0.104 0.105-0.18 0.227-0.229 0.357-0.133 0.355-0.057 0.771 0.229 1.057l4.586 4.586c0.286 0.286 0.702 0.361 1.057 0.229 0.13-0.049 0.252-0.124 0.357-0.229 0-0 0-0 0-0l9.708-9.708 9.708 9.708c0 0 0 0 0 0 0.105 0.105 0.227 0.18 0.357 0.229 0.356 0.133 0.771 0.057 1.057-0.229l4.586-4.586c0.286-0.286 0.362-0.702 0.229-1.057-0.049-0.13-0.124-0.252-0.229-0.357z"></path>
</symbol>
</defs>
</svg>
